<svg width="20" height="25" viewBox="0 0 20 25" fill="none" xmlns="http://www.w3.org/2000/svg">
<path d="M14.7729 0.693651C14.7219 0.636651 12.8844 0.716151 11.2855 2.45164C9.68646 4.18563 9.93246 6.17462 9.96846 6.22562C10.0045 6.27662 12.2485 6.35612 13.6809 4.33863C15.1134 2.32114 14.8239 0.752151 14.7729 0.693651V0.693651ZM19.7439 18.2931C19.6719 18.1491 16.2564 16.4421 16.5744 13.1601C16.8924 9.8766 19.0869 8.97661 19.1214 8.87911C19.1559 8.78161 18.2259 7.69412 17.2404 7.14362C16.5169 6.7555 15.716 6.53313 14.8959 6.49262C14.7339 6.48812 14.1714 6.35012 13.0149 6.66662C12.253 6.87512 10.5355 7.55012 10.063 7.57712C9.58896 7.60412 8.17897 6.79412 6.66248 6.57962C5.69198 6.39212 4.66299 6.77612 3.92649 7.07162C3.1915 7.36562 1.7935 8.20261 0.815508 10.4271C-0.162487 12.6501 0.34901 16.1721 0.715008 17.2671C1.08101 18.3606 1.6525 20.1531 2.6245 21.461C3.48849 22.937 4.63449 23.9615 5.11299 24.3095C5.59148 24.6575 6.94148 24.8885 7.87747 24.41C8.63047 23.948 9.98946 23.6825 10.5265 23.702C11.062 23.7215 12.118 23.933 13.1994 24.5105C14.0559 24.806 14.8659 24.683 15.6774 24.353C16.4889 24.0215 17.6634 22.7645 19.0344 20.2161C19.5549 19.0311 19.7919 18.3906 19.7439 18.2931V18.2931Z" fill="#121212"/>
<path d="M14.7729 0.693651C14.7219 0.636651 12.8844 0.716151 11.2855 2.45164C9.68646 4.18563 9.93246 6.17462 9.96846 6.22562C10.0045 6.27662 12.2485 6.35612 13.6809 4.33863C15.1134 2.32114 14.8239 0.752151 14.7729 0.693651V0.693651ZM19.7439 18.2931C19.6719 18.1491 16.2564 16.4421 16.5744 13.1601C16.8924 9.8766 19.0869 8.97661 19.1214 8.87911C19.1559 8.78161 18.2259 7.69412 17.2404 7.14362C16.5169 6.7555 15.716 6.53313 14.8959 6.49262C14.7339 6.48812 14.1714 6.35012 13.0149 6.66662C12.253 6.87512 10.5355 7.55012 10.063 7.57712C9.58896 7.60412 8.17897 6.79412 6.66248 6.57962C5.69198 6.39212 4.66299 6.77612 3.92649 7.07162C3.1915 7.36562 1.7935 8.20261 0.815508 10.4271C-0.162487 12.6501 0.34901 16.1721 0.715008 17.2671C1.08101 18.3606 1.6525 20.1531 2.6245 21.461C3.48849 22.937 4.63449 23.9615 5.11299 24.3095C5.59148 24.6575 6.94148 24.8885 7.87747 24.41C8.63047 23.948 9.98946 23.6825 10.5265 23.702C11.062 23.7215 12.118 23.933 13.1994 24.5105C14.0559 24.806 14.8659 24.683 15.6774 24.353C16.4889 24.0215 17.6634 22.7645 19.0344 20.2161C19.5549 19.0311 19.7919 18.3906 19.7439 18.2931V18.2931Z" fill="#121212"/>
</svg>
