<svg width="42" height="24" viewBox="0 0 42 24" fill="none" xmlns="http://www.w3.org/2000/svg">
<path d="M1.54067 5.99645C3.23115 7.6843 4.63183 9.63365 5.69441 11.7732L5.79101 11.9396C6.4672 13.2946 7.89203 14.1029 9.41346 13.984C9.84816 13.9602 10.2587 13.8414 10.6451 13.675C10.6934 13.6512 10.7417 13.6274 10.79 13.6037C10.9832 13.5086 11.1764 13.4372 11.3696 13.3422C10.79 13.675 10.2345 14.0316 9.70326 14.4357C8.44747 15.3866 7.65054 16.8129 7.52979 18.3582C7.43319 19.6419 7.84373 20.9018 8.73727 21.8765C9.17196 22.3757 9.88248 23.0176 10.5345 23.184C10.9692 23.3028 11.5005 23.4217 11.6213 23.4217C11.7013 23.4217 12.225 23.5406 12.3457 23.5406C12.4853 23.5406 12.9495 23.6356 13.3117 23.6356H14.509C15.6682 23.707 16.8274 23.3266 17.7209 22.5897C18.6869 21.8052 19.2907 20.6641 19.3873 19.4279L19.7495 15.1489C19.822 14.3644 20.0152 13.6037 20.305 12.8905C20.3291 12.9143 20.3291 12.938 20.3533 12.9618C19.7254 13.6274 19.6288 18.168 20.788 19.2377C21.9471 18.168 21.8747 13.6512 21.2226 12.9618C21.2468 12.938 21.2468 12.9143 21.271 12.8905C21.5849 13.6037 21.7781 14.3644 21.8264 15.1489L22.1886 19.4279C22.2852 20.6641 22.889 21.7814 23.855 22.5897C24.7485 23.3266 25.9903 23.3979 27.1978 23.6356L28.7675 23.6594C29.1539 23.6356 29.5594 23.6594 29.8543 23.6594C30.4101 23.6594 30.5787 23.5406 30.941 23.4217C31.1971 23.3376 31.3032 23.3028 31.6655 22.9462C31.8397 22.7747 32.4383 22.1142 32.873 21.6388C33.7424 20.6879 34.1427 19.6419 34.0461 18.3582C33.9254 16.8129 33.1284 15.3866 31.8727 14.4357C31.3414 14.0316 30.7859 13.675 30.2063 13.3422C30.3995 13.4135 30.5927 13.5086 30.7859 13.6037C30.8342 13.6274 30.8825 13.6512 30.9308 13.675C31.3172 13.8414 31.7277 13.9602 32.1624 13.984C33.6839 14.1029 35.1329 13.2946 35.7849 11.9396L35.8815 11.7732C36.9441 9.63365 38.3448 7.6843 40.0352 5.99645C40.6873 5.33082 41.122 4.47501 41.2427 3.54789C41.3393 2.78717 40.9288 2.05022 40.2043 1.74118C38.0308 0.837822 35.6641 0.481235 33.2975 0.695188C29.989 1.00423 26.9461 2.57321 24.7727 5.04555L21.609 8.49257C21.609 8.44502 21.6332 8.3737 21.6332 8.32616C21.6332 8.11221 21.5607 7.92203 21.4158 7.75562L22.0679 5.63987C22.5992 3.95202 23.541 2.40681 24.7727 1.12309C24.9175 1.12309 25.0141 1.00423 25.0141 0.861595C25.0141 0.71896 24.8934 0.600098 24.7485 0.600098C24.6036 0.600098 24.4829 0.71896 24.4829 0.861595C23.2029 2.16908 22.2369 3.76184 21.6815 5.521L21.0536 7.49412C20.9328 7.44658 20.788 7.39903 20.6431 7.39903C20.4982 7.39903 20.3533 7.44658 20.2325 7.49412L19.6046 5.521C19.0733 3.78561 18.0832 2.16908 16.8033 0.861595C16.8033 0.71896 16.6825 0.600098 16.5376 0.600098C16.3927 0.600098 16.272 0.71896 16.272 0.861595C16.272 1.00423 16.3927 1.09932 16.5135 1.12309C17.7692 2.38303 18.7111 3.95202 19.2182 5.63987L19.8703 7.75562C19.7495 7.92203 19.6529 8.11221 19.6529 8.32616C19.6529 8.3737 19.6529 8.44502 19.6771 8.49257L16.5135 5.04555C14.3641 2.57321 11.2971 1.00423 7.98863 0.695188C5.62196 0.481235 3.2553 0.837822 1.08183 1.74118C0.357337 2.05022 -0.0532083 2.78717 0.0433903 3.54789C0.429785 4.47501 0.864478 5.33082 1.54067 5.99645Z" fill="#EBB42C"/>
</svg>
