<svg width="24" height="24" viewBox="0 0 24 24" fill="none" xmlns="http://www.w3.org/2000/svg">
<path d="M4.01112 18.689V18.889H4.21112H11.7525C11.7604 19.2161 11.788 19.537 11.8352 19.8518C11.8784 20.14 11.9434 20.4228 12.0301 20.7001H4.21112C3.65658 20.7001 3.18659 20.5048 2.79039 20.1086C2.39419 19.7124 2.19933 19.2429 2.2 18.6892V18.689V3.21112C2.2 2.65658 2.39529 2.18659 2.79149 1.79039C3.18769 1.39419 3.65723 1.19933 4.21088 1.2H4.21112H19.689C20.2435 1.2 20.7135 1.39529 21.1097 1.79149C21.5059 2.18769 21.7008 2.65723 21.7001 3.21088V3.21112V12.6237C21.4482 12.4903 21.1868 12.3762 20.9159 12.2814C20.5872 12.1664 20.2449 12.0729 19.889 12.0009V3.21112V3.01112H19.689H4.21112H4.01112V3.21112V18.689ZM6.62224 15.3723L6.62224 15.3718C6.62162 15.1101 6.708 14.8995 6.88096 14.7265C7.05394 14.5536 7.26503 14.4667 7.5278 14.4667L7.52827 14.4667C7.79001 14.4661 8.00058 14.5525 8.17354 14.7254C8.34652 14.8984 8.43336 15.1095 8.43336 15.3723L8.43336 15.3728C8.43398 15.6345 8.3476 15.8451 8.17465 16.018C8.00167 16.191 7.79057 16.2778 7.5278 16.2778L7.52733 16.2778C7.2656 16.2785 7.05502 16.1921 6.88207 16.0191C6.70908 15.8461 6.62224 15.6351 6.62224 15.3723ZM6.62224 10.95L6.62224 10.9496C6.62162 10.6878 6.708 10.4773 6.88096 10.3043C7.05394 10.1313 7.26503 10.0445 7.5278 10.0445L7.52827 10.0445C7.79001 10.0439 8.00058 10.1302 8.17354 10.3032C8.34652 10.4762 8.43336 10.6873 8.43336 10.95L8.43336 10.9505C8.43398 11.2122 8.3476 11.4228 8.17465 11.5958C8.00167 11.7688 7.79057 11.8556 7.5278 11.8556L7.52733 11.8556C7.2656 11.8562 7.05502 11.7698 6.88207 11.5969C6.70908 11.4239 6.62224 11.2128 6.62224 10.95ZM7.5278 7.43336L7.52733 7.43336C7.2656 7.43398 7.05502 7.3476 6.88207 7.17465C6.70908 7.00167 6.62224 6.79057 6.62224 6.5278L6.62224 6.52733C6.62162 6.2656 6.708 6.05502 6.88096 5.88207C7.05394 5.70908 7.26503 5.62224 7.5278 5.62224L7.52827 5.62224C7.79001 5.62162 8.00058 5.708 8.17354 5.88096C8.34652 6.05394 8.43336 6.26503 8.43336 6.5278L8.43336 6.52827C8.43398 6.79001 8.3476 7.00058 8.17465 7.17354C8.00167 7.34652 7.79057 7.43336 7.5278 7.43336ZM8.31607 16.1594C8.52834 15.9472 8.6341 15.6848 8.63336 15.3723L7.5278 16.4778C7.84104 16.4778 8.1038 16.3717 8.31607 16.1594ZM6.74064 7.31607C6.95291 7.52834 7.2153 7.6341 7.5278 7.63336L8.63336 6.5278C8.63336 6.21456 8.52723 5.95181 8.31496 5.73954C8.10269 5.52727 7.84031 5.42151 7.5278 5.42224C7.21456 5.42224 6.95181 5.52838 6.73954 5.74064C6.52727 5.95291 6.42151 6.2153 6.42224 6.5278C6.42224 6.84104 6.52838 7.1038 6.74064 7.31607ZM17.2778 10.0445V11.8556H11.0445V10.0445H17.2778ZM17.2778 5.62224V7.43336H11.0445V5.62224H17.2778ZM12.7183 15.1865C12.5134 15.5279 12.3395 15.8918 12.1963 16.2778H11.0445V14.4667H13.2229C13.038 14.6941 12.8697 14.934 12.7183 15.1865Z" fill="black" stroke="#F8F8F8" stroke-width="0.4"/>
<path d="M19.7676 20.6548L17.4224 18.3096L15.0772 20.6548L14.2954 19.8731L16.6407 17.5278L14.2954 15.1826L15.0772 14.4009L17.4224 16.7461L19.7676 14.4009L20.5494 15.1826L18.2041 17.5278L20.5494 19.8731L19.7676 20.6548Z" fill="black"/>
</svg>
