<svg width="25" height="25" viewBox="0 0 25 25" fill="none" xmlns="http://www.w3.org/2000/svg">
<g clip-path="url(#clip0_120_1578)">
<path d="M24.2139 12.9062C24.2139 11.9229 24.1342 11.2054 23.9615 10.4613H12.7335V14.8993H19.3241C19.1913 16.0022 18.4737 17.6631 16.8792 18.7792L16.8568 18.9278L20.4069 21.678L20.6529 21.7026C22.9117 19.6164 24.2139 16.547 24.2139 12.9062Z" fill="#4285F4"/>
<path d="M12.7335 24.5992C15.9623 24.5992 18.673 23.5362 20.6529 21.7025L16.8792 18.7792C15.8693 19.4834 14.514 19.9751 12.7335 19.9751C9.57109 19.9751 6.88703 17.889 5.93023 15.0056L5.78999 15.0175L2.09857 17.8743L2.05029 18.0085C4.01683 21.9151 8.05625 24.5992 12.7335 24.5992Z" fill="#34A853"/>
<path d="M5.93029 15.0056C5.67783 14.2615 5.53173 13.4642 5.53173 12.6404C5.53173 11.8165 5.67783 11.0193 5.91701 10.2752L5.91032 10.1167L2.17264 7.21399L2.05035 7.27216C1.23985 8.89326 0.77478 10.7137 0.77478 12.6404C0.77478 14.5671 1.23985 16.3874 2.05035 18.0085L5.93029 15.0056Z" fill="#FBBC05"/>
<path d="M12.7335 5.30567C14.9791 5.30567 16.4938 6.27566 17.3575 7.08625L20.7326 3.79092C18.6598 1.86424 15.9623 0.681641 12.7335 0.681641C8.05625 0.681641 4.01683 3.3657 2.05029 7.27221L5.91695 10.2752C6.88703 7.39184 9.57109 5.30567 12.7335 5.30567Z" fill="#EB4335"/>
</g>
<defs>
<clipPath id="clip0_120_1578">
<rect width="23.4504" height="24" fill="white" transform="translate(0.77478 0.681641)"/>
</clipPath>
</defs>
</svg>
