<svg width="17" height="18" viewBox="0 0 17 18" fill="none" xmlns="http://www.w3.org/2000/svg">
<path d="M2.5 18C1.95 18 1.479 17.804 1.087 17.412C0.695002 17.02 0.499335 16.5493 0.500002 16V7C0.500002 6.68333 0.571002 6.38333 0.713002 6.1C0.855002 5.81667 1.05067 5.58333 1.3 5.4L7.3 0.9C7.48334 0.766667 7.675 0.666667 7.875 0.6C8.075 0.533333 8.28334 0.5 8.5 0.5C8.71667 0.5 8.925 0.533333 9.125 0.6C9.325 0.666667 9.51667 0.766667 9.7 0.9L15.7 5.4C15.95 5.58333 16.146 5.81667 16.288 6.1C16.43 6.38333 16.5007 6.68333 16.5 7V16C16.5 16.55 16.304 17.021 15.912 17.413C15.52 17.805 15.0493 18.0007 14.5 18H10.5V11H6.5V18H2.5Z" fill="#B3B9C4"/>
</svg>
