<svg width="48" height="47" viewBox="0 0 48 47" fill="none" xmlns="http://www.w3.org/2000/svg">
<g clip-path="url(#clip0_579_5089)">
<path d="M36.4027 0.265137H11.5972C5.55319 0.265137 0.653564 5.16476 0.653564 11.2087V36.0143C0.653564 42.0583 5.55319 46.9579 11.5972 46.9579H36.4027C42.4467 46.9579 47.3463 42.0583 47.3463 36.0143V11.2087C47.3463 5.16476 42.4467 0.265137 36.4027 0.265137Z" fill="url(#paint0_radial_579_5089)"/>
<path d="M36.4027 0.265137H11.5972C5.55319 0.265137 0.653564 5.16476 0.653564 11.2087V36.0143C0.653564 42.0583 5.55319 46.9579 11.5972 46.9579H36.4027C42.4467 46.9579 47.3463 42.0583 47.3463 36.0143V11.2087C47.3463 5.16476 42.4467 0.265137 36.4027 0.265137Z" fill="url(#paint1_radial_579_5089)"/>
<path d="M24.0017 5.37158C19.0483 5.37158 18.4265 5.39329 16.4811 5.48175C14.5393 5.57076 13.2139 5.87809 12.0542 6.32915C10.8544 6.79498 9.83687 7.41822 8.82313 8.43233C7.80847 9.44625 7.18524 10.4638 6.71794 11.6631C6.26561 12.8231 5.95791 14.1491 5.87054 16.0899C5.78354 18.0355 5.76074 18.6575 5.76074 23.6111C5.76074 28.5647 5.78263 29.1845 5.87091 31.1299C5.96028 33.0717 6.26761 34.3971 6.71831 35.5568C7.18451 36.7566 7.80774 37.7742 8.82185 38.7879C9.83541 39.8026 10.853 40.4272 12.0519 40.8931C13.2124 41.3441 14.5381 41.6515 16.4795 41.7405C18.4251 41.8289 19.0463 41.8506 23.9995 41.8506C28.9535 41.8506 29.5733 41.8289 31.5187 41.7405C33.4605 41.6515 34.7874 41.3441 35.948 40.8931C37.1472 40.4272 38.1633 39.8026 39.1767 38.7879C40.1913 37.7742 40.8144 36.7566 41.2819 35.5573C41.7302 34.3971 42.0381 33.0713 42.1293 31.1303C42.2166 29.1849 42.2394 28.5647 42.2394 23.6111C42.2394 18.6575 42.2166 18.0359 42.1293 16.0903C42.0381 14.1485 41.7302 12.8233 41.2819 11.6636C40.8144 10.4638 40.1913 9.44625 39.1767 8.43233C38.1622 7.41785 37.1476 6.79462 35.9469 6.32933C34.7841 5.87809 33.4579 5.57057 31.5162 5.48175C29.5706 5.39329 28.9512 5.37158 23.9961 5.37158H24.0017ZM22.3655 8.6585C22.8512 8.65777 23.3931 8.6585 24.0017 8.6585C28.8718 8.6585 29.4489 8.67601 31.3721 8.76337C33.1504 8.84472 34.1156 9.14184 34.7586 9.39154C35.6098 9.72203 36.2166 10.1173 36.8546 10.7558C37.493 11.3942 37.8881 12.0021 38.2195 12.8534C38.4692 13.4954 38.7667 14.4606 38.8477 16.239C38.935 18.1617 38.954 18.7392 38.954 23.6069C38.954 28.4746 38.935 29.0523 38.8477 30.9749C38.7663 32.7532 38.4692 33.7185 38.2195 34.3607C37.889 35.2119 37.493 35.818 36.8546 36.456C36.2163 37.0944 35.6102 37.4894 34.7586 37.8201C34.1164 38.0709 33.1504 38.3673 31.3721 38.4486C29.4493 38.536 28.8718 38.555 24.0017 38.555C19.1315 38.555 18.5542 38.536 16.6316 38.4486C14.8532 38.3666 13.888 38.0694 13.2445 37.8198C12.3935 37.4891 11.7854 37.094 11.147 36.4556C10.5086 35.8173 10.1136 35.2108 9.78215 34.3592C9.53246 33.717 9.23497 32.7518 9.15399 30.9734C9.06662 29.0506 9.04911 28.4732 9.04911 23.6024C9.04911 18.7317 9.06662 18.1572 9.15399 16.2344C9.23534 14.4561 9.53246 13.4908 9.78215 12.8479C10.1128 11.9967 10.5086 11.3887 11.1472 10.7504C11.7856 10.112 12.3935 9.71674 13.2447 9.38552C13.8876 9.13472 14.8532 8.83834 16.6316 8.75662C18.3142 8.68056 18.9662 8.65777 22.3655 8.65394V8.6585ZM33.7379 11.687C32.5295 11.687 31.5492 12.6664 31.5492 13.875C31.5492 15.0833 32.5295 16.0637 33.7379 16.0637C34.9463 16.0637 35.9266 15.0833 35.9266 13.875C35.9266 12.6666 34.9463 11.6862 33.7379 11.6862V11.687ZM24.0017 14.2443C18.8291 14.2443 14.6351 18.4383 14.6351 23.6111C14.6351 28.784 18.8291 32.9759 24.0017 32.9759C29.1746 32.9759 33.3671 28.784 33.3671 23.6111C33.3671 18.4384 29.1742 14.2443 24.0014 14.2443H24.0017ZM24.0017 17.5312C27.3594 17.5312 30.0816 20.2531 30.0816 23.6111C30.0816 26.9688 27.3594 29.691 24.0017 29.691C20.6439 29.691 17.922 26.9688 17.922 23.6111C17.922 20.2531 20.6439 17.5312 24.0017 17.5312Z" fill="white"/>
</g>
<defs>
<radialGradient id="paint0_radial_579_5089" cx="0" cy="0" r="1" gradientUnits="userSpaceOnUse" gradientTransform="translate(13.0563 50.5541) rotate(-90) scale(46.276 43.0403)">
<stop stop-color="#FFDD55"/>
<stop offset="0.1" stop-color="#FFDD55"/>
<stop offset="0.5" stop-color="#FF543E"/>
<stop offset="1" stop-color="#C837AB"/>
</radialGradient>
<radialGradient id="paint1_radial_579_5089" cx="0" cy="0" r="1" gradientUnits="userSpaceOnUse" gradientTransform="translate(-7.16765 3.62865) rotate(78.681) scale(20.6856 85.2668)">
<stop stop-color="#3771C8"/>
<stop offset="0.128" stop-color="#3771C8"/>
<stop offset="1" stop-color="#6600FF" stop-opacity="0"/>
</radialGradient>
<clipPath id="clip0_579_5089">
<rect width="46.6927" height="46.6927" fill="white" transform="translate(0.654053 0.265625)"/>
</clipPath>
</defs>
</svg>
