<svg width="24" height="24" viewBox="0 0 24 24" fill="none" xmlns="http://www.w3.org/2000/svg">
<path d="M13.5 14.25H18V15.75H13.5V14.25ZM13.5 11.25H22.5V12.75H13.5V11.25ZM13.5 8.25H22.5V9.75H13.5V8.25ZM10.5 15.75V14.25H6.75V12.75H5.25V14.25H1.5V15.75H7.66125C7.38557 16.8756 6.81141 17.9061 5.99925 18.7327C5.57351 18.2887 5.20858 17.7901 4.914 17.25H3.24975C3.63094 18.1653 4.17614 19.0033 4.8585 19.7228C4.05455 20.2953 3.17717 20.7569 2.25 21.0953L2.7765 22.5C3.93035 22.0797 5.01485 21.4892 5.994 20.748C6.97748 21.4896 8.06625 22.0801 9.22425 22.5L9.75 21.0953C8.82324 20.7575 7.94612 20.2966 7.14225 19.725C8.20093 18.6304 8.91293 17.2476 9.189 15.75H10.5ZM8.37525 9.75H9.99975L6.5625 1.5H4.93725L1.5 9.75H3.1245L3.75 8.25H7.74975L8.37525 9.75ZM4.37475 6.75L5.7495 3.45L7.125 6.75H4.37475Z" fill="black"/>
</svg>
