<svg width="48" height="48" viewBox="0 0 48 48" fill="none" xmlns="http://www.w3.org/2000/svg">
<path d="M40.6826 40.1493H33.7642V29.3146C33.7642 26.731 33.7181 23.4051 30.166 23.4051C26.5626 23.4051 26.0112 26.2201 26.0112 29.1266V40.1486H19.093V17.8681H25.7345V20.913H25.8276C26.4922 19.7765 27.4527 18.8416 28.6067 18.2078C29.7606 17.574 31.0649 17.265 32.3806 17.3138C39.3927 17.3138 40.6855 21.9262 40.6855 27.9266L40.6826 40.1493ZM11.2866 14.8227C9.06924 14.8231 7.27139 13.0258 7.27102 10.8084C7.27066 8.59105 9.06778 6.7932 11.2851 6.79283C13.5025 6.79228 15.3003 8.58959 15.3007 10.8069C15.3009 11.8718 14.8781 12.8931 14.1253 13.6462C13.3725 14.3992 12.3514 14.8225 11.2866 14.8227ZM14.7459 40.1495H7.82021V17.8681H14.7457V40.1493L14.7459 40.1495ZM44.1317 0.367656H4.34379C2.46331 0.346499 0.921175 1.85289 0.898193 3.73336V43.6872C0.920445 45.5686 2.4624 47.0764 4.34361 47.0567H44.1317C46.0169 47.0801 47.5648 45.5722 47.5909 43.6872V3.73026C47.5641 1.84614 46.016 0.339932 44.1317 0.364555" fill="#0A66C2"/>
</svg>
