<svg width="24" height="24" viewBox="0 0 24 24" fill="none" xmlns="http://www.w3.org/2000/svg">
<path d="M17.85 8V8.15H18H20C20.2254 8.15 20.4416 8.23955 20.601 8.39896C20.7604 8.55836 20.85 8.77457 20.85 9V21C20.85 21.2254 20.7604 21.4416 20.601 21.601C20.4416 21.7604 20.2254 21.85 20 21.85H4C3.77457 21.85 3.55836 21.7604 3.39896 21.601C3.23955 21.4416 3.15 21.2254 3.15 21V9C3.15 8.77457 3.23955 8.55837 3.39896 8.39896C3.55837 8.23955 3.77457 8.15 4 8.15H6H6.15V8V7C6.15 5.44848 6.76634 3.96051 7.86343 2.86343C8.96051 1.76634 10.4485 1.15 12 1.15C13.5515 1.15 15.0395 1.76634 16.1366 2.86343C17.2337 3.96051 17.85 5.44848 17.85 7V8ZM5 9.85H4.85V10V20V20.15H5H19H19.15V20V10V9.85H19H5ZM16 8.15H16.15V8V7C16.15 5.89935 15.7128 4.84378 14.9345 4.06551C14.1562 3.28723 13.1006 2.85 12 2.85C10.8994 2.85 9.84378 3.28723 9.06551 4.06551C8.28723 4.84378 7.85 5.89935 7.85 7V8V8.15H8H16ZM12.85 14.15V15.85H11.15V14.15H12.85ZM8.85 14.15V15.85H7.15V14.15H8.85ZM16.85 14.15V15.85H15.15V14.15H16.85Z" fill="black" stroke="#F8F8F8" stroke-width="0.3"/>
</svg>
