<svg width="286" height="156" viewBox="0 0 286 156" fill="none" xmlns="http://www.w3.org/2000/svg">
<path d="M96.0602 13.119C100.17 17.2223 103.575 21.9614 106.158 27.1628L106.393 27.5673C108.037 30.8615 111.501 32.8265 115.2 32.5375C116.256 32.4797 117.255 32.1908 118.194 31.7862C118.311 31.7284 118.429 31.6706 118.546 31.6128C119.016 31.3817 119.486 31.2083 119.955 30.9771C118.546 31.7862 117.196 32.6531 115.904 33.6356C112.851 35.9473 110.914 39.4149 110.62 43.1715C110.385 46.2923 111.384 49.3553 113.556 51.7248C114.613 52.9385 116.34 54.4989 117.925 54.9035C118.982 55.1924 120.274 55.4814 120.567 55.4814C120.762 55.4814 122.035 55.7704 122.328 55.7704C122.668 55.7704 123.796 56.0015 124.677 56.0015H127.588C130.406 56.1749 133.224 55.2502 135.396 53.4586C137.744 51.5515 139.212 48.7774 139.447 45.7722L140.328 35.3694C140.504 33.4622 140.973 31.6128 141.678 29.879C141.737 29.9368 141.737 29.9946 141.795 30.0524C140.269 31.6706 140.034 42.7091 142.852 45.3098C145.67 42.7091 145.494 31.7284 143.909 30.0524C143.968 29.9946 143.968 29.9368 144.026 29.879C144.79 31.6128 145.259 33.4622 145.377 35.3694L146.257 45.7722C146.492 48.7774 147.96 51.4937 150.308 53.4586C152.481 55.2502 155.5 55.4236 158.435 56.0015L162.251 56.0593C163.191 56.0015 164.176 56.0593 164.893 56.0593C166.244 56.0593 166.654 55.7704 167.535 55.4814C168.158 55.2771 168.416 55.1924 169.296 54.3255C169.72 53.9085 171.175 52.3028 172.232 51.1469C174.345 48.8352 175.319 46.2923 175.084 43.1715C174.79 39.4149 172.853 35.9473 169.8 33.6356C168.508 32.6531 167.158 31.7862 165.749 30.9771C166.219 31.1505 166.688 31.3817 167.158 31.6128C167.276 31.6706 167.393 31.7284 167.51 31.7862C168.45 32.1908 169.448 32.4797 170.505 32.5375C174.203 32.8265 177.726 30.8615 179.311 27.5673L179.546 27.1628C182.129 21.9614 185.534 17.2223 189.644 13.119C191.229 11.5008 192.286 9.42028 192.58 7.16635C192.814 5.31697 191.816 3.52538 190.055 2.77407C184.771 0.577931 179.018 -0.288966 173.264 0.231172C165.221 0.982483 157.823 4.79683 152.539 10.8073L144.848 19.1873C144.848 19.0717 144.907 18.8983 144.907 18.7828C144.907 18.2626 144.731 17.8003 144.379 17.3957L145.964 12.2521C147.255 8.14883 149.545 4.39228 152.539 1.27145C152.892 1.27145 153.126 0.982483 153.126 0.635724C153.126 0.288965 152.833 0 152.481 0C152.128 0 151.835 0.288965 151.835 0.635724C148.723 3.81435 146.375 7.68648 145.024 11.9632L143.498 16.76C143.204 16.6444 142.852 16.5288 142.5 16.5288C142.148 16.5288 141.795 16.6444 141.502 16.76L139.975 11.9632C138.684 7.74428 136.277 3.81435 133.165 0.635724C133.165 0.288965 132.871 0 132.519 0C132.167 0 131.873 0.288965 131.873 0.635724C131.873 0.982483 132.167 1.21366 132.46 1.27145C135.513 4.33448 137.803 8.14883 139.036 12.2521L140.621 17.3957C140.328 17.8003 140.093 18.2626 140.093 18.7828C140.093 18.8983 140.093 19.0717 140.151 19.1873L132.46 10.8073C127.235 4.79683 119.779 0.982483 111.736 0.231172C105.982 -0.288966 100.229 0.577931 94.9447 2.77407C93.1834 3.52538 92.1854 5.31697 92.4202 7.16635C93.3596 9.42028 94.4163 11.5008 96.0602 13.119Z" fill="#EBB42C"/>
<path d="M7.91973 91.1652V99.2975H17.4872V103.005H7.91973V111.496H18.6831V115.203H3.37519V87.4578H18.6831V91.1652H7.91973ZM55.4569 101.37L64.0676 115.203H58.9649L52.7062 105.158L46.8462 115.203H41.7834L50.3941 101.37L41.7435 87.4976H46.8462L53.1447 97.6232L59.0447 87.4976H64.1074L55.4569 101.37ZM106.89 95.7496C106.89 97.1581 106.558 98.4869 105.894 99.736C105.229 100.985 104.166 102.008 102.705 102.806C101.243 103.576 99.3693 103.962 97.0838 103.962H92.0609V115.203H87.5163V87.4976H97.0838C99.2099 87.4976 101.004 87.8697 102.465 88.6138C103.954 89.3314 105.057 90.3147 105.774 91.5638C106.518 92.8129 106.89 94.2081 106.89 95.7496ZM97.0838 100.254C98.8112 100.254 100.1 99.8689 100.951 99.0982C101.801 98.3009 102.226 97.1847 102.226 95.7496C102.226 92.7199 100.512 91.205 97.0838 91.205H92.0609V100.254H97.0838ZM146.387 109.543H134.787L132.794 115.203H128.05L137.976 87.4578H143.238L153.164 115.203H148.381L146.387 109.543ZM145.112 105.835L140.607 92.9591L136.063 105.835H145.112ZM193.839 87.4976V91.205H186.464V115.203H181.919V91.205H174.505V87.4976H193.839ZM239.026 87.4976V115.203H234.481V103.085H221.445V115.203H216.901V87.4976H221.445V99.3772H234.481V87.4976H239.026ZM283.998 87.4976L274.829 105.158V115.203H270.285V105.158L261.076 87.4976H266.139L272.557 101.091L278.975 87.4976H283.998Z" fill="#EBB42C"/>
<path d="M34.8814 140.849C35.285 140.849 35.6122 140.522 35.6122 140.119C35.6122 139.715 35.285 139.388 34.8814 139.388V140.849ZM0 140.849H34.8814V139.388H0V140.849Z" fill="#EBB42C"/>
<path d="M72.3337 131.203L64.311 148.619H62.3676L60.6235 133.819L53.5227 148.619L51.6042 148.644L49.8601 131.203H51.7537L53.0244 146.376L60.175 131.203H62.1433L63.7628 146.426L70.4401 131.203H72.3337ZM80.0404 134.816C81.1865 134.816 82.1665 135.04 82.9804 135.488C83.7943 135.92 84.4088 136.518 84.8241 137.282C85.256 138.046 85.4719 138.918 85.4719 139.898C85.4719 140.347 85.4387 140.745 85.3722 141.094C85.2726 141.593 85.1729 142.041 85.0733 142.44H73.7866C73.7368 142.755 73.7119 143.054 73.7119 143.337C73.7119 144.616 74.0939 145.604 74.858 146.302C75.6387 146.999 76.627 147.348 77.8229 147.348C78.969 147.348 79.9739 147.074 80.8377 146.526C81.7014 145.978 82.3326 145.238 82.7312 144.308H84.5999C84.0351 145.637 83.1299 146.725 81.8841 147.572C80.6549 148.403 79.2182 148.818 77.5738 148.818C75.8795 148.818 74.5175 148.336 73.4877 147.373C72.4744 146.393 71.9678 145.064 71.9678 143.386C71.9678 142.888 72.0177 142.365 72.1173 141.817C72.3665 140.405 72.8648 139.167 73.6122 138.104C74.3763 137.041 75.3148 136.227 76.4277 135.663C77.5405 135.098 78.7448 134.816 80.0404 134.816ZM83.5783 141.144C83.6614 140.679 83.7029 140.289 83.7029 139.973C83.7029 138.794 83.3292 137.888 82.5817 137.257C81.8343 136.626 80.8792 136.311 79.7165 136.311C78.8694 136.311 78.0555 136.493 77.2748 136.859C76.4941 137.224 75.8131 137.772 75.2317 138.503C74.6504 139.234 74.2517 140.114 74.0358 141.144H83.5783ZM94.5776 141.817C94.8268 140.405 95.3251 139.176 96.0725 138.129C96.8366 137.066 97.7668 136.252 98.8631 135.688C99.9593 135.106 101.147 134.816 102.426 134.816C104.104 134.816 105.407 135.231 106.338 136.061C107.284 136.892 107.791 138.021 107.857 139.45H105.989C105.939 138.47 105.574 137.706 104.893 137.158C104.228 136.593 103.323 136.311 102.177 136.311C100.765 136.311 99.5192 136.792 98.4395 137.756C97.3764 138.702 96.6871 140.056 96.3715 141.817C96.2885 142.232 96.247 142.705 96.247 143.237C96.247 144.566 96.6041 145.587 97.3183 146.302C98.0492 146.999 99.0125 147.348 100.208 147.348C101.371 147.348 102.384 147.074 103.248 146.526C104.112 145.961 104.751 145.18 105.167 144.184H107.035C106.471 145.579 105.565 146.7 104.319 147.547C103.074 148.394 101.62 148.818 99.9593 148.818C98.2817 148.818 96.9363 148.336 95.9231 147.373C94.9264 146.409 94.4281 145.089 94.4281 143.411C94.4281 142.896 94.478 142.365 94.5776 141.817ZM109.664 141.792C109.913 140.397 110.412 139.176 111.159 138.129C111.907 137.066 112.82 136.252 113.9 135.688C114.996 135.106 116.167 134.816 117.413 134.816C118.709 134.816 119.772 135.115 120.602 135.713C121.433 136.311 121.972 137.075 122.222 138.005L122.745 135.015H124.489L122.097 148.619H120.353L120.876 145.604C120.311 146.534 119.498 147.306 118.434 147.921C117.388 148.519 116.217 148.818 114.921 148.818C113.842 148.818 112.895 148.594 112.081 148.145C111.267 147.697 110.636 147.066 110.188 146.252C109.739 145.421 109.515 144.449 109.515 143.337C109.515 142.855 109.565 142.34 109.664 141.792ZM121.549 141.817C121.632 141.352 121.673 140.936 121.673 140.571C121.673 139.275 121.283 138.246 120.502 137.482C119.722 136.717 118.709 136.335 117.463 136.335C116.499 136.335 115.594 136.551 114.747 136.983C113.916 137.415 113.211 138.046 112.629 138.877C112.048 139.691 111.658 140.662 111.458 141.792C111.375 142.29 111.334 142.714 111.334 143.063C111.334 144.375 111.716 145.413 112.48 146.177C113.26 146.924 114.274 147.298 115.519 147.298C116.45 147.298 117.338 147.074 118.185 146.625C119.049 146.177 119.772 145.537 120.353 144.707C120.951 143.876 121.35 142.913 121.549 141.817ZM129.548 137.731C130.096 136.784 130.81 136.053 131.69 135.538C132.571 135.023 133.592 134.766 134.755 134.766L134.431 136.585H133.933C132.737 136.585 131.707 136.892 130.843 137.506C129.98 138.121 129.382 139.134 129.049 140.546L127.629 148.619H125.885L128.277 135.015H130.021L129.548 137.731ZM143.04 134.816C144.187 134.816 145.167 135.04 145.98 135.488C146.794 135.92 147.409 136.518 147.824 137.282C148.256 138.046 148.472 138.918 148.472 139.898C148.472 140.347 148.439 140.745 148.372 141.094C148.273 141.593 148.173 142.041 148.073 142.44H136.787C136.737 142.755 136.712 143.054 136.712 143.337C136.712 144.616 137.094 145.604 137.858 146.302C138.639 146.999 139.627 147.348 140.823 147.348C141.969 147.348 142.974 147.074 143.838 146.526C144.701 145.978 145.333 145.238 145.731 144.308H147.6C147.035 145.637 146.13 146.725 144.884 147.572C143.655 148.403 142.218 148.818 140.574 148.818C138.88 148.818 137.518 148.336 136.488 147.373C135.474 146.393 134.968 145.064 134.968 143.386C134.968 142.888 135.018 142.365 135.117 141.817C135.367 140.405 135.865 139.167 136.612 138.104C137.376 137.041 138.315 136.227 139.428 135.663C140.541 135.098 141.745 134.816 143.04 134.816ZM146.578 141.144C146.661 140.679 146.703 140.289 146.703 139.973C146.703 138.794 146.329 137.888 145.582 137.257C144.834 136.626 143.879 136.311 142.717 136.311C141.869 136.311 141.055 136.493 140.275 136.859C139.494 137.224 138.813 137.772 138.232 138.503C137.65 139.234 137.252 140.114 137.036 141.144H146.578ZM165.501 134.816C166.647 134.816 167.627 135.04 168.441 135.488C169.255 135.92 169.869 136.518 170.284 137.282C170.716 138.046 170.932 138.918 170.932 139.898C170.932 140.347 170.899 140.745 170.833 141.094C170.733 141.593 170.633 142.041 170.534 142.44H159.247C159.197 142.755 159.172 143.054 159.172 143.337C159.172 144.616 159.554 145.604 160.318 146.302C161.099 146.999 162.087 147.348 163.283 147.348C164.429 147.348 165.434 147.074 166.298 146.526C167.162 145.978 167.793 145.238 168.192 144.308H170.06C169.495 145.637 168.59 146.725 167.344 147.572C166.115 148.403 164.679 148.818 163.034 148.818C161.34 148.818 159.978 148.336 158.948 147.373C157.935 146.393 157.428 145.064 157.428 143.386C157.428 142.888 157.478 142.365 157.578 141.817C157.827 140.405 158.325 139.167 159.073 138.104C159.837 137.041 160.775 136.227 161.888 135.663C163.001 135.098 164.205 134.816 165.501 134.816ZM169.039 141.144C169.122 140.679 169.163 140.289 169.163 139.973C169.163 138.794 168.79 137.888 168.042 137.257C167.295 136.626 166.34 136.311 165.177 136.311C164.33 136.311 163.516 136.493 162.735 136.859C161.954 137.224 161.273 137.772 160.692 138.503C160.111 139.234 159.712 140.114 159.496 141.144H169.039ZM178.414 141.742L181.579 148.619H179.586L177.069 143.162L172.684 148.619H170.865L176.446 141.817L173.307 135.015H175.3L177.792 140.397L182.102 135.015H183.946L178.414 141.742ZM187.364 138.005C187.929 137.091 188.734 136.335 189.781 135.737C190.844 135.123 192.015 134.816 193.294 134.816C194.938 134.816 196.25 135.306 197.23 136.286C198.227 137.249 198.725 138.569 198.725 140.247C198.725 140.729 198.676 141.244 198.576 141.792C198.327 143.187 197.828 144.416 197.081 145.479C196.334 146.542 195.412 147.365 194.315 147.946C193.236 148.527 192.073 148.818 190.827 148.818C189.548 148.818 188.494 148.519 187.663 147.921C186.832 147.306 186.276 146.542 185.994 145.629L184.349 155.047H182.605L186.143 135.015H187.887L187.364 138.005ZM196.807 141.792C196.89 141.294 196.931 140.87 196.931 140.521C196.931 139.209 196.541 138.187 195.76 137.457C194.996 136.709 193.983 136.335 192.721 136.335C191.791 136.335 190.902 136.56 190.055 137.008C189.208 137.457 188.485 138.096 187.887 138.927C187.289 139.757 186.891 140.721 186.691 141.817C186.608 142.282 186.567 142.697 186.567 143.063C186.567 144.358 186.957 145.388 187.738 146.152C188.518 146.916 189.532 147.298 190.777 147.298C191.741 147.298 192.638 147.082 193.468 146.65C194.315 146.202 195.03 145.562 195.611 144.732C196.209 143.885 196.608 142.905 196.807 141.792ZM200.769 141.792C201.019 140.397 201.517 139.176 202.264 138.129C203.012 137.066 203.925 136.252 205.005 135.688C206.101 135.106 207.272 134.816 208.518 134.816C209.814 134.816 210.877 135.115 211.707 135.713C212.538 136.311 213.078 137.075 213.327 138.005L213.85 135.015H215.594L213.202 148.619H211.458L211.981 145.604C211.417 146.534 210.603 147.306 209.54 147.921C208.493 148.519 207.322 148.818 206.027 148.818C204.947 148.818 204 148.594 203.186 148.145C202.372 147.697 201.741 147.066 201.293 146.252C200.844 145.421 200.62 144.449 200.62 143.337C200.62 142.855 200.67 142.34 200.769 141.792ZM212.654 141.817C212.737 141.352 212.779 140.936 212.779 140.571C212.779 139.275 212.388 138.246 211.608 137.482C210.827 136.717 209.814 136.335 208.568 136.335C207.605 136.335 206.699 136.551 205.852 136.983C205.022 137.415 204.316 138.046 203.734 138.877C203.153 139.691 202.763 140.662 202.563 141.792C202.48 142.29 202.439 142.714 202.439 143.063C202.439 144.375 202.821 145.413 203.585 146.177C204.366 146.924 205.379 147.298 206.625 147.298C207.555 147.298 208.443 147.074 209.291 146.625C210.154 146.177 210.877 145.537 211.458 144.707C212.056 143.876 212.455 142.913 212.654 141.817ZM219.881 144.931C219.831 145.23 219.806 145.488 219.806 145.704C219.806 146.235 219.947 146.609 220.229 146.825C220.528 147.024 221.01 147.124 221.674 147.124H223.269L222.995 148.619H221.126C220.096 148.619 219.324 148.419 218.809 148.021C218.294 147.622 218.037 146.966 218.037 146.052C218.037 145.687 218.07 145.313 218.136 144.931L219.631 136.485H217.738L218.012 135.015H219.905L220.503 131.602H222.247L221.65 135.015H225.412L225.138 136.485H221.375L219.881 144.931ZM230.212 148.818C228.834 148.818 227.713 148.502 226.849 147.871C225.985 147.223 225.553 146.343 225.553 145.23C225.553 145.031 225.562 144.881 225.578 144.782H227.272C227.206 145.579 227.439 146.218 227.97 146.7C228.502 147.182 229.282 147.423 230.312 147.423C231.359 147.423 232.197 147.207 232.829 146.775C233.46 146.326 233.775 145.737 233.775 145.006C233.775 144.574 233.642 144.209 233.377 143.91C233.111 143.611 232.779 143.37 232.38 143.187C231.998 142.988 231.458 142.764 230.761 142.514C229.897 142.199 229.199 141.908 228.668 141.642C228.153 141.36 227.704 140.978 227.322 140.496C226.957 139.998 226.774 139.375 226.774 138.628C226.774 137.88 226.99 137.216 227.422 136.634C227.854 136.053 228.444 135.605 229.191 135.289C229.955 134.973 230.819 134.816 231.782 134.816C233.128 134.816 234.224 135.148 235.071 135.812C235.935 136.477 236.367 137.357 236.367 138.453C236.367 138.686 236.358 138.86 236.342 138.976H234.697C234.714 138.91 234.722 138.802 234.722 138.653C234.722 137.922 234.431 137.332 233.85 136.884C233.285 136.435 232.555 136.211 231.658 136.211C230.761 136.211 230.013 136.427 229.415 136.859C228.834 137.274 228.543 137.839 228.543 138.553C228.543 139.035 228.684 139.442 228.967 139.774C229.249 140.089 229.598 140.347 230.013 140.546C230.428 140.745 230.985 140.978 231.682 141.244C232.513 141.559 233.177 141.85 233.676 142.116C234.191 142.382 234.622 142.747 234.971 143.212C235.32 143.677 235.495 144.258 235.495 144.956C235.495 146.135 235.005 147.074 234.025 147.772C233.045 148.469 231.774 148.818 230.212 148.818Z" fill="#EBB42C"/>
<path d="M285 140.849C285.404 140.849 285.731 140.522 285.731 140.119C285.731 139.715 285.404 139.388 285 139.388V140.849ZM250.119 140.849H285V139.388H250.119V140.849Z" fill="#EBB42C"/>
</svg>
