<svg width="198" height="93" viewBox="0 0 198 93" fill="none" xmlns="http://www.w3.org/2000/svg">
<mask id="mask0_445_3421" style="mask-type:luminance" maskUnits="userSpaceOnUse" x="162" y="0" width="32" height="51">
<path d="M180.252 44.2948C175.038 45.4411 170.416 47.4957 166.392 50.4611C158.448 35.0363 163.246 18.2168 180.782 0C179.613 7.20393 182.927 15.3808 190.729 24.5332C196.6 32.9611 193.107 39.5491 180.252 44.2948Z" fill="white"/>
</mask>
<g mask="url(#mask0_445_3421)">
<path d="M196.598 0.00253296H158.452V50.4636H196.598V0.00253296Z" fill="url(#paint0_linear_445_3421)"/>
</g>
<mask id="mask1_445_3421" style="mask-type:luminance" maskUnits="userSpaceOnUse" x="166" y="45" width="31" height="22">
<path d="M195.835 57.8871C192.582 70.5017 177.331 70.0152 166.396 50.4606C185.539 40.801 198.138 46.0617 195.835 57.8871Z" fill="white"/>
</mask>
<g mask="url(#mask1_445_3421)">
<path d="M198.138 40.801H166.396V70.4991H198.138V40.801Z" fill="url(#paint1_linear_445_3421)"/>
</g>
<mask id="mask2_445_3421" style="mask-type:luminance" maskUnits="userSpaceOnUse" x="166" y="49" width="29" height="23">
<path d="M192.853 65.3685C186.397 76.6816 171.811 72.2024 166.403 50.4613C187.412 46.1787 198.184 54.5652 192.853 65.3685Z" fill="white"/>
</mask>
<g mask="url(#mask2_445_3421)">
<path opacity="0.38" d="M198.184 46.1786H166.4V76.684H198.184V46.1786Z" fill="url(#paint2_linear_445_3421)"/>
</g>
<path fill-rule="evenodd" clip-rule="evenodd" d="M180.252 44.2947C193.107 39.549 196.598 32.9609 190.729 24.5356C182.927 15.3832 179.613 7.20375 180.782 0.00241089C177.434 3.48017 174.551 6.90617 172.132 10.2804C173.213 15.7067 176.471 21.6064 181.903 27.9797C186.729 34.9068 185.228 40.5892 177.4 45.0295C178.332 44.7527 179.281 44.5068 180.252 44.2947Z" fill="#39D4FF"/>
<path fill-rule="evenodd" clip-rule="evenodd" d="M195.834 57.8873C198.111 46.1939 185.817 40.9203 167.031 50.1426C180.689 46.3026 188.904 51.5891 187.008 61.3314C186.49 63.3369 185.67 65.011 184.612 66.3307C189.921 66.9957 194.269 63.9605 195.834 57.8873Z" fill="#FCE2A6"/>
<mask id="mask3_445_3421" style="mask-type:luminance" maskUnits="userSpaceOnUse" x="165" y="5" width="33" height="46">
<path d="M181.4 48.2797C176.07 47.9795 171.068 48.7144 166.395 50.4869C162.896 33.4941 172.044 18.5868 193.834 5.76517C190.768 12.3869 191.759 21.1563 196.81 32.0709C200.194 41.7641 195.058 47.1696 181.4 48.2797Z" fill="white"/>
</mask>
<g mask="url(#mask3_445_3421)">
<path opacity="0.28" d="M200.194 5.76511H162.896V50.4895H200.194V5.76511Z" fill="url(#paint3_linear_445_3421)"/>
</g>
<path d="M162.853 44.5198C160.886 40.6358 159.895 36.4024 159.875 32.1665C159.854 27.7909 160.873 23.41 162.931 19.4044L162.499 19.1819C160.405 23.2574 159.368 27.7158 159.388 32.1691C159.406 36.3688 160.366 40.5633 162.263 44.4266C161.67 44.4189 161.088 44.6673 160.679 45.1305C160.612 45.2081 160.55 45.2909 160.493 45.3737C158.247 42.6438 156.682 39.4739 155.861 36.1256C155.005 32.6245 154.958 28.9242 155.797 25.3145L155.323 25.2058C154.467 28.888 154.513 32.6659 155.388 36.2394C156.244 39.7327 157.89 43.0293 160.263 45.8576C160.087 46.3984 160.136 47.0013 160.426 47.5188C160.858 48.2874 161.727 48.7014 162.597 48.5487C163.2 52.3008 165.335 54.64 168.999 55.5612C171.685 58.1177 174.301 60.977 176.849 64.1365C177.276 64.1598 177.672 63.9062 177.828 63.5077C177.983 63.1092 177.866 62.6538 177.535 62.3821C174.226 59.484 171.597 56.767 169.646 54.2259C167.876 50.2514 166.095 47.7103 164.31 46.6028C164.354 45.723 163.834 44.9105 163.019 44.5767C162.964 44.556 162.91 44.5353 162.853 44.5198Z" fill="#F8F8F8"/>
<path d="M8.48153 56.4719V61.3737H15.0639V64.4828H8.48153V69.6647H15.9042V72.8578H4.56011V53.2788H15.9042V56.4719H8.48153ZM36.5974 72.8578L32.3679 66.2755L28.5305 72.8578H24.1049L30.2671 62.9983L24.0209 53.3068H28.5305L32.76 59.8611L36.5694 53.3068H40.995L34.8608 63.1383L41.1071 72.8578H36.5974ZM63.7699 59.357C63.7699 60.4027 63.5178 61.383 63.0137 62.298C62.5282 63.213 61.7532 63.9506 60.6888 64.5108C59.6431 65.071 58.3173 65.3511 56.7114 65.3511H53.4342V72.8578H49.5128V53.3068H56.7114C58.2239 53.3068 59.5124 53.5682 60.5768 54.091C61.6412 54.6139 62.4348 55.3328 62.9576 56.2478C63.4992 57.1628 63.7699 58.1992 63.7699 59.357ZM56.5433 62.186C57.6264 62.186 58.4293 61.9432 58.9522 61.4577C59.475 60.9535 59.7365 60.2533 59.7365 59.357C59.7365 57.4523 58.6721 56.4999 56.5433 56.4999H53.4342V62.186H56.5433ZM83.9638 69.1325H76.1769L74.8885 72.8578H70.771L77.8015 53.2788H82.3672L89.3977 72.8578H85.2522L83.9638 69.1325ZM82.8994 65.9954L80.0704 57.8164L77.2413 65.9954H82.8994ZM110.752 53.3068V56.4719H105.542V72.8578H101.62V56.4719H96.4106V53.3068H110.752ZM135.252 53.3068V72.8578H131.331V64.5388H122.956V72.8578H119.034V53.3068H122.956V61.3457H131.331V53.3068H135.252ZM160.079 53.3068L153.468 66.0514V72.8578H149.547V66.0514L142.909 53.3068H147.334L151.536 62.242L155.709 53.3068H160.079Z" fill="#F8F8F8"/>
<path d="M18.2586 85.038C18.5081 85.038 18.7103 84.8358 18.7103 84.5863C18.7103 84.3368 18.5081 84.1345 18.2586 84.1345V85.038ZM0.1875 85.038H18.2586V84.1345H0.1875V85.038Z" fill="#F8F8F8"/>
<path d="M27.8454 79.6667L26.6527 86.4569C26.4991 87.2972 26.1196 87.9613 25.5142 88.4493C24.9179 88.9372 24.2086 89.1811 23.3863 89.1811C22.6635 89.1811 22.0897 88.9959 21.6651 88.6255C21.2494 88.246 21.0416 87.7264 21.0416 87.0668C21.0416 86.85 21.0597 86.6467 21.0958 86.4569H22.6545C22.6364 86.5383 22.6273 86.6557 22.6273 86.8093C22.6273 87.1165 22.7087 87.3605 22.8713 87.5412C23.043 87.7219 23.296 87.8123 23.6303 87.8123C24.0279 87.8123 24.3486 87.6903 24.5926 87.4463C24.8456 87.1933 25.0127 86.8635 25.094 86.4569L26.2867 79.6667H27.8454ZM36.65 81.6184L35.3354 89.0863H33.7903L33.9394 88.2053C33.6412 88.5125 33.2798 88.7565 32.8551 88.9372C32.4395 89.1089 32.0103 89.1947 31.5675 89.1947C30.7815 89.1947 30.1535 88.9824 29.6836 88.5577C29.2138 88.133 28.9789 87.5322 28.9789 86.7551C28.9789 86.5473 29.0015 86.2988 29.0466 86.0097L29.8192 81.6184H31.3507L30.6188 85.7793C30.5827 86.0323 30.5646 86.213 30.5646 86.3214C30.5646 86.8184 30.7001 87.1978 30.9712 87.4599C31.2513 87.7219 31.6353 87.8529 32.1232 87.8529C32.6925 87.8529 33.1759 87.6858 33.5734 87.3515C33.971 87.0081 34.233 86.5157 34.3595 85.8741L35.105 81.6184H36.65ZM40.0057 89.2083C39.4907 89.2083 39.0209 89.1224 38.5962 88.9507C38.1715 88.77 37.8372 88.5216 37.5933 88.2053C37.3493 87.88 37.2273 87.5096 37.2273 87.0939C37.2273 87.0217 37.2364 86.9223 37.2544 86.7958H38.7588C38.7227 87.1391 38.8266 87.4237 39.0706 87.6496C39.3145 87.8755 39.6579 87.9885 40.1006 87.9885C40.5343 87.9885 40.8912 87.9117 41.1713 87.758C41.4514 87.6044 41.5915 87.3786 41.5915 87.0804C41.5915 86.8274 41.474 86.6241 41.2391 86.4705C41.0132 86.3169 40.6473 86.1452 40.1413 85.9555C39.6624 85.7657 39.2739 85.5895 38.9757 85.4269C38.6775 85.2642 38.42 85.0429 38.2032 84.7628C37.9863 84.4736 37.8779 84.1167 37.8779 83.6921C37.8779 83.2584 37.9999 82.8789 38.2438 82.5536C38.4968 82.2193 38.8447 81.9618 39.2874 81.781C39.7392 81.5913 40.2542 81.4964 40.8325 81.4964C41.3566 81.4964 41.8219 81.5868 42.2285 81.7675C42.6441 81.9392 42.9649 82.1876 43.1908 82.5129C43.4257 82.8292 43.5432 83.1951 43.5432 83.6107C43.5432 83.7372 43.5386 83.8321 43.5296 83.8954H42.0658C42.102 83.543 41.9981 83.2584 41.7541 83.0415C41.5192 82.8246 41.1804 82.7162 40.7376 82.7162C40.3491 82.7162 40.0329 82.7975 39.7889 82.9602C39.554 83.1228 39.4365 83.3442 39.4365 83.6243C39.4365 83.9044 39.5585 84.1303 39.8024 84.302C40.0464 84.4646 40.4214 84.6453 40.9274 84.8441C41.3882 85.0248 41.7632 85.1965 42.0523 85.3591C42.3414 85.5218 42.5899 85.7386 42.7977 86.0097C43.0055 86.2807 43.1094 86.6196 43.1094 87.0262C43.1094 87.4689 42.9739 87.8574 42.7029 88.1918C42.4408 88.517 42.0749 88.77 41.605 88.9507C41.1352 89.1224 40.6021 89.2083 40.0057 89.2083ZM46.5433 87.0126C46.5252 87.1391 46.5162 87.2204 46.5162 87.2566C46.5162 87.4463 46.5749 87.5864 46.6924 87.6767C46.8098 87.758 47.0041 87.7987 47.2752 87.7987H48.2239L47.9935 89.0863H46.7737C46.1774 89.0863 45.7211 88.9688 45.4048 88.7339C45.0886 88.4899 44.9305 88.1059 44.9305 87.5819C44.9305 87.3831 44.9485 87.1933 44.9847 87.0126L45.7166 82.8789H44.8356L45.0524 81.6184H45.947L46.2722 79.7616H47.8309L47.5056 81.6184H49.3082L49.0913 82.8789H47.2752L46.5433 87.0126ZM55.4103 87.0126C55.3923 87.1391 55.3832 87.2204 55.3832 87.2566C55.3832 87.4463 55.442 87.5864 55.5594 87.6767C55.6769 87.758 55.8711 87.7987 56.1422 87.7987H57.0909L56.8605 89.0863H55.6407C55.0444 89.0863 54.5881 88.9688 54.2719 88.7339C53.9556 88.4899 53.7975 88.1059 53.7975 87.5819C53.7975 87.3831 53.8156 87.1933 53.8517 87.0126L54.5836 82.8789H53.7026L53.9195 81.6184H54.814L55.1393 79.7616H56.6979L56.3726 81.6184H58.1752L57.9584 82.8789H56.1422L55.4103 87.0126ZM63.3695 81.4964C64.1195 81.4964 64.7203 81.7088 65.1721 82.1334C65.6239 82.5491 65.8498 83.1454 65.8498 83.9225C65.8498 84.1303 65.8272 84.3833 65.782 84.6815L64.9959 89.0863H63.4644L64.2098 84.9119C64.2459 84.6589 64.264 84.4782 64.264 84.3697C64.264 83.8728 64.124 83.4933 63.8439 83.2312C63.5728 82.9692 63.1933 82.8382 62.7054 82.8382C62.1181 82.8382 61.6211 83.0189 61.2145 83.3803C60.817 83.7327 60.564 84.2432 60.4555 84.9119V84.8848L59.7101 89.0863H58.165L59.9405 79.0568H61.4856L60.8757 82.4858C61.1919 82.1696 61.5669 81.9256 62.0006 81.7539C62.4343 81.5823 62.8906 81.4964 63.3695 81.4964ZM69.1241 80.629C68.8802 80.629 68.6814 80.5522 68.5278 80.3986C68.3742 80.245 68.2974 80.0507 68.2974 79.8158C68.2974 79.4996 68.4149 79.2285 68.6498 79.0026C68.8937 78.7677 69.1693 78.6502 69.4765 78.6502C69.7205 78.6502 69.9148 78.727 70.0593 78.8806C70.2129 79.0342 70.2897 79.2285 70.2897 79.4634C70.2897 79.7797 70.1723 80.0553 69.9373 80.2902C69.7024 80.5161 69.4314 80.629 69.1241 80.629ZM69.7069 81.6184L68.3923 89.0863H66.8472L68.1619 81.6184H69.7069ZM75.4109 81.4964C76.197 81.4964 76.8204 81.7088 77.2812 82.1334C77.7511 82.5491 77.986 83.1499 77.986 83.936C77.986 84.1348 77.9634 84.3833 77.9182 84.6815L77.1321 89.0863H75.6006L76.346 84.9119C76.3822 84.6589 76.4003 84.4782 76.4003 84.3697C76.4003 83.8728 76.2602 83.4933 75.9801 83.2312C75.709 82.9692 75.3295 82.8382 74.8416 82.8382C74.2543 82.8382 73.7574 83.0189 73.3508 83.3803C72.9532 83.7327 72.7002 84.2432 72.5918 84.9119V84.8712L71.8463 89.0863H70.3013L71.6159 81.6184H73.161L73.0119 82.4858C73.3191 82.1786 73.6806 81.9392 74.0962 81.7675C74.5209 81.5868 74.9591 81.4964 75.4109 81.4964ZM82.5886 85.3591L85.3806 89.0863H83.2934L81.0977 85.8741L80.5285 89.0863H78.9834L80.7589 79.0568H82.304L81.2739 84.8712L84.5538 81.6184H86.6953L82.5886 85.3591ZM89.1198 89.2083C88.6048 89.2083 88.1349 89.1224 87.7103 88.9507C87.2856 88.77 86.9513 88.5216 86.7073 88.2053C86.4634 87.88 86.3414 87.5096 86.3414 87.0939C86.3414 87.0217 86.3504 86.9223 86.3685 86.7958H87.8729C87.8368 87.1391 87.9407 87.4237 88.1846 87.6496C88.4286 87.8755 88.7719 87.9885 89.2147 87.9885C89.6484 87.9885 90.0053 87.9117 90.2854 87.758C90.5655 87.6044 90.7055 87.3786 90.7055 87.0804C90.7055 86.8274 90.5881 86.6241 90.3532 86.4705C90.1273 86.3169 89.7613 86.1452 89.2553 85.9555C88.7765 85.7657 88.3879 85.5895 88.0898 85.4269C87.7916 85.2642 87.5341 85.0429 87.3172 84.7628C87.1004 84.4736 86.9919 84.1167 86.9919 83.6921C86.9919 83.2584 87.1139 82.8789 87.3579 82.5536C87.6109 82.2193 87.9587 81.9618 88.4015 81.781C88.8533 81.5913 89.3683 81.4964 89.9466 81.4964C90.4706 81.4964 90.936 81.5868 91.3425 81.7675C91.7582 81.9392 92.0789 82.1876 92.3048 82.5129C92.5398 82.8292 92.6572 83.1951 92.6572 83.6107C92.6572 83.7372 92.6527 83.8321 92.6437 83.8954H91.1799C91.2161 83.543 91.1121 83.2584 90.8682 83.0415C90.6333 82.8246 90.2944 82.7162 89.8517 82.7162C89.4632 82.7162 89.1469 82.7975 88.903 82.9602C88.668 83.1228 88.5506 83.3442 88.5506 83.6243C88.5506 83.9044 88.6725 84.1303 88.9165 84.302C89.1605 84.4646 89.5354 84.6453 90.0414 84.8441C90.5022 85.0248 90.8772 85.1965 91.1664 85.3591C91.4555 85.5218 91.704 85.7386 91.9118 86.0097C92.1196 86.2807 92.2235 86.6196 92.2235 87.0262C92.2235 87.4689 92.088 87.8574 91.8169 88.1918C91.5549 88.517 91.1889 88.77 90.7191 88.9507C90.2493 89.1224 89.7162 89.2083 89.1198 89.2083ZM101.987 81.4964C102.917 81.4964 103.658 81.7585 104.209 82.2825C104.769 82.8066 105.05 83.5113 105.05 84.3968C105.05 84.6046 105.027 84.8531 104.982 85.1423C104.946 85.341 104.882 85.585 104.792 85.8741H99.0861C99.0771 85.9374 99.0726 86.0323 99.0726 86.1588C99.0726 86.6919 99.2352 87.1165 99.5605 87.4328C99.8948 87.749 100.329 87.9071 100.862 87.9071C101.702 87.9071 102.348 87.5593 102.8 86.8635H104.467C104.123 87.5502 103.617 88.115 102.949 88.5577C102.28 88.9914 101.508 89.2083 100.631 89.2083C100.008 89.2083 99.4611 89.0863 98.9913 88.8423C98.5214 88.5984 98.1555 88.2505 97.8934 87.7987C97.6314 87.3379 97.5004 86.8003 97.5004 86.1859C97.5004 85.9238 97.5275 85.6437 97.5817 85.3456C97.7173 84.5775 97.9928 83.9044 98.4085 83.3261C98.8241 82.7388 99.3391 82.287 99.9536 81.9708C100.577 81.6545 101.255 81.4964 101.987 81.4964ZM103.437 84.7628C103.455 84.6001 103.464 84.4827 103.464 84.4104C103.464 83.9134 103.297 83.5204 102.962 83.2312C102.637 82.9421 102.212 82.7975 101.688 82.7975C101.137 82.7975 100.64 82.9737 100.198 83.3261C99.7548 83.6785 99.4521 84.1574 99.2894 84.7628H103.437ZM109.554 85.2913L111.289 89.0863H109.541L108.375 86.5518L106.41 89.0863H104.797L107.86 85.4133L106.112 81.6184H107.86L109.026 84.1529L110.991 81.6184H112.604L109.554 85.2913ZM114.992 82.7162C115.317 82.3729 115.724 82.0837 116.212 81.8488C116.709 81.6139 117.242 81.4964 117.811 81.4964C118.38 81.4964 118.886 81.6184 119.329 81.8624C119.772 82.1063 120.115 82.4542 120.359 82.906C120.603 83.3577 120.725 83.8863 120.725 84.4917C120.725 84.7537 120.698 85.0293 120.644 85.3185C120.508 86.0684 120.232 86.7416 119.817 87.3379C119.41 87.9252 118.909 88.386 118.312 88.7203C117.725 89.0456 117.106 89.2083 116.456 89.2083C115.886 89.2083 115.398 89.0953 114.992 88.8694C114.594 88.6345 114.283 88.3454 114.057 88.002L113.244 92.6372H111.698L113.637 81.6184H115.182L114.992 82.7162ZM119.071 85.3185C119.108 85.1468 119.126 84.9616 119.126 84.7628C119.126 84.1574 118.945 83.6875 118.584 83.3532C118.231 83.0099 117.784 82.8382 117.242 82.8382C116.853 82.8382 116.465 82.9376 116.076 83.1364C115.697 83.3352 115.367 83.6243 115.087 84.0038C114.807 84.3833 114.621 84.8305 114.531 85.3456C114.495 85.5172 114.477 85.7025 114.477 85.9012C114.477 86.5066 114.653 86.9855 115.005 87.3379C115.367 87.6903 115.814 87.8665 116.347 87.8665C116.745 87.8665 117.133 87.7671 117.513 87.5683C117.901 87.3605 118.236 87.0623 118.516 86.6738C118.796 86.2853 118.981 85.8335 119.071 85.3185ZM121.537 85.3185C121.672 84.5685 121.944 83.9044 122.35 83.3261C122.766 82.7478 123.272 82.3006 123.868 81.9843C124.464 81.6591 125.088 81.4964 125.738 81.4964C126.326 81.4964 126.818 81.6139 127.216 81.8488C127.613 82.0747 127.912 82.3593 128.11 82.7027L128.3 81.6184H129.859L128.544 89.0863H126.985L127.189 87.9749C126.863 88.3273 126.452 88.6209 125.955 88.8559C125.467 89.0908 124.934 89.2083 124.356 89.2083C123.796 89.2083 123.294 89.0818 122.852 88.8288C122.418 88.5758 122.075 88.2189 121.822 87.758C121.578 87.2882 121.456 86.7506 121.456 86.1452C121.456 85.8741 121.483 85.5986 121.537 85.3185ZM127.649 85.3456C127.686 85.1739 127.704 84.9887 127.704 84.7899C127.704 84.1845 127.523 83.7101 127.162 83.3668C126.809 83.0144 126.366 82.8382 125.833 82.8382C125.436 82.8382 125.047 82.9376 124.668 83.1364C124.288 83.3261 123.958 83.6107 123.678 83.9902C123.398 84.3607 123.213 84.8034 123.123 85.3185C123.087 85.4901 123.068 85.6754 123.068 85.8741C123.068 86.4886 123.245 86.9765 123.597 87.3379C123.958 87.6903 124.406 87.8665 124.939 87.8665C125.336 87.8665 125.725 87.7671 126.104 87.5683C126.484 87.3695 126.814 87.0804 127.094 86.7009C127.374 86.3124 127.559 85.8606 127.649 85.3456ZM132.622 87.0126C132.604 87.1391 132.595 87.2204 132.595 87.2566C132.595 87.4463 132.654 87.5864 132.771 87.6767C132.889 87.758 133.083 87.7987 133.354 87.7987H134.303L134.073 89.0863H132.853C132.256 89.0863 131.8 88.9688 131.484 88.7339C131.168 88.4899 131.01 88.1059 131.01 87.5819C131.01 87.3831 131.028 87.1933 131.064 87.0126L131.796 82.8789H130.915L131.132 81.6184H132.026L132.351 79.7616H133.91L133.585 81.6184H135.387L135.17 82.8789H133.354L132.622 87.0126ZM138.128 89.2083C137.613 89.2083 137.144 89.1224 136.719 88.9507C136.294 88.77 135.96 88.5216 135.716 88.2053C135.472 87.88 135.35 87.5096 135.35 87.0939C135.35 87.0217 135.359 86.9223 135.377 86.7958H136.882C136.845 87.1391 136.949 87.4237 137.193 87.6496C137.437 87.8755 137.781 87.9885 138.223 87.9885C138.657 87.9885 139.014 87.9117 139.294 87.758C139.574 87.6044 139.714 87.3786 139.714 87.0804C139.714 86.8274 139.597 86.6241 139.362 86.4705C139.136 86.3169 138.77 86.1452 138.264 85.9555C137.785 85.7657 137.397 85.5895 137.098 85.4269C136.8 85.2642 136.543 85.0429 136.326 84.7628C136.109 84.4736 136.001 84.1167 136.001 83.6921C136.001 83.2584 136.123 82.8789 136.366 82.5536C136.619 82.2193 136.967 81.9618 137.41 81.781C137.862 81.5913 138.377 81.4964 138.955 81.4964C139.479 81.4964 139.945 81.5868 140.351 81.7675C140.767 81.9392 141.088 82.1876 141.313 82.5129C141.548 82.8292 141.666 83.1951 141.666 83.6107C141.666 83.7372 141.661 83.8321 141.652 83.8954H140.189C140.225 83.543 140.121 83.2584 139.877 83.0415C139.642 82.8246 139.303 82.7162 138.86 82.7162C138.472 82.7162 138.156 82.7975 137.912 82.9602C137.677 83.1228 137.559 83.3442 137.559 83.6243C137.559 83.9044 137.681 84.1303 137.925 84.302C138.169 84.4646 138.544 84.6453 139.05 84.8441C139.511 85.0248 139.886 85.1965 140.175 85.3591C140.464 85.5218 140.713 85.7386 140.92 86.0097C141.128 86.2807 141.232 86.6196 141.232 87.0262C141.232 87.4689 141.097 87.8574 140.826 88.1918C140.563 88.517 140.198 88.77 139.728 88.9507C139.258 89.1224 138.725 89.2083 138.128 89.2083Z" fill="#EBB42C"/>
<path d="M162.847 85.038C163.097 85.038 163.299 84.8358 163.299 84.5863C163.299 84.3368 163.097 84.1345 162.847 84.1345V85.038ZM144.776 85.038H162.847V84.1345H144.776V85.038Z" fill="#F8F8F8"/>
<defs>
<linearGradient id="paint0_linear_445_3421" x1="195.262" y1="-4.15011" x2="167.849" y2="41.2613" gradientUnits="userSpaceOnUse">
<stop stop-color="#1EF8FC"/>
<stop offset="1" stop-color="#E14FD0"/>
</linearGradient>
<linearGradient id="paint1_linear_445_3421" x1="189.565" y1="66.931" x2="172.309" y2="40.2629" gradientUnits="userSpaceOnUse">
<stop stop-color="#EAD40C"/>
<stop offset="1" stop-color="#FF00E9"/>
</linearGradient>
<linearGradient id="paint2_linear_445_3421" x1="185.673" y1="72.0486" x2="176.037" y2="41.7815" gradientUnits="userSpaceOnUse">
<stop stop-color="#EAD40C"/>
<stop offset="1" stop-color="#FF00E9"/>
</linearGradient>
<linearGradient id="paint3_linear_445_3421" x1="207.259" y1="3.92395" x2="168.634" y2="40.2792" gradientUnits="userSpaceOnUse">
<stop stop-color="#1EF8FC"/>
<stop offset="1" stop-color="#E14FD0"/>
</linearGradient>
</defs>
</svg>
