<svg width="284" height="181" viewBox="0 0 284 181" fill="none" xmlns="http://www.w3.org/2000/svg">
<path opacity="0.47" d="M281.528 125.922H231.43C230.128 125.922 229.087 124.88 229.087 123.579V68.8977C229.087 67.5957 230.128 66.5542 231.43 66.5542H281.581C282.882 66.5542 283.924 67.5957 283.924 68.8977V123.526C283.872 124.88 282.83 125.922 281.528 125.922Z" fill="#F8F8F8"/>
<path d="M271.582 77.6988H241.325C240.752 77.6988 240.284 77.2301 240.284 76.6572V72.439C240.284 71.8662 240.752 71.3975 241.325 71.3975H271.582C272.155 71.3975 272.623 71.8662 272.623 72.439V76.6572C272.623 77.2301 272.155 77.6988 271.582 77.6988Z" fill="#F8F8F8"/>
<path d="M271.582 82.5419H241.325C240.752 82.5419 240.284 82.0732 240.284 81.5004V81.4483C240.284 80.8754 240.752 80.4067 241.325 80.4067H271.582C272.155 80.4067 272.623 80.8754 272.623 81.4483V81.5004C272.623 82.0732 272.155 82.5419 271.582 82.5419Z" fill="#F8F8F8"/>
<path d="M271.582 87.2807H241.325C240.752 87.2807 240.284 86.812 240.284 86.2391V86.187C240.284 85.6142 240.752 85.1455 241.325 85.1455H271.582C272.155 85.1455 272.623 85.6142 272.623 86.187V86.2391C272.623 86.8641 272.155 87.2807 271.582 87.2807Z" fill="#F8F8F8"/>
<path d="M242.419 94.3114C242.419 95.7695 241.273 96.9152 239.815 96.9152C238.357 96.9152 237.211 95.7695 237.211 94.3114C237.211 92.8532 238.357 91.7075 239.815 91.7075C241.273 91.7075 242.419 92.9053 242.419 94.3114Z" fill="#F8F8F8"/>
<path d="M242.419 106.133C242.419 107.591 241.273 108.737 239.815 108.737C238.357 108.737 237.211 107.591 237.211 106.133C237.211 104.675 238.357 103.529 239.815 103.529C241.273 103.529 242.419 104.675 242.419 106.133Z" fill="#F8F8F8"/>
<path d="M242.419 117.59C242.419 119.048 241.273 120.194 239.815 120.194C238.357 120.194 237.211 119.048 237.211 117.59C237.211 116.132 238.357 114.986 239.815 114.986C241.273 114.986 242.419 116.132 242.419 117.59Z" fill="#F8F8F8"/>
<path d="M268.822 93.322H243.929C243.773 93.322 243.668 93.2179 243.668 93.0617C243.668 92.9054 243.773 92.8013 243.929 92.8013H268.822C268.978 92.8013 269.082 92.9054 269.082 93.0617C269.082 93.2179 268.926 93.322 268.822 93.322Z" fill="#F8F8F8"/>
<path d="M256.323 95.9773H243.877C243.72 95.9773 243.616 95.8732 243.616 95.7169C243.616 95.5607 243.72 95.4565 243.877 95.4565H256.323C256.479 95.4565 256.583 95.5607 256.583 95.7169C256.583 95.8732 256.479 95.9773 256.323 95.9773Z" fill="#F8F8F8"/>
<path d="M268.822 105.508H243.929C243.773 105.508 243.668 105.404 243.668 105.248C243.668 105.091 243.773 104.987 243.929 104.987H268.822C268.978 104.987 269.082 105.091 269.082 105.248C269.082 105.404 268.926 105.508 268.822 105.508Z" fill="#F8F8F8"/>
<path d="M256.323 108.163H243.877C243.72 108.163 243.616 108.059 243.616 107.903C243.616 107.747 243.72 107.643 243.877 107.643H256.323C256.479 107.643 256.583 107.747 256.583 107.903C256.583 108.059 256.479 108.163 256.323 108.163Z" fill="#F8F8F8"/>
<path d="M268.822 116.653H243.929C243.773 116.653 243.668 116.548 243.668 116.392C243.668 116.236 243.773 116.132 243.929 116.132H268.822C268.978 116.132 269.082 116.236 269.082 116.392C269.082 116.496 268.926 116.653 268.822 116.653Z" fill="#F8F8F8"/>
<path d="M256.323 119.308H243.877C243.72 119.308 243.616 119.204 243.616 119.048C243.616 118.892 243.72 118.788 243.877 118.788H256.323C256.479 118.788 256.583 118.892 256.583 119.048C256.583 119.152 256.479 119.308 256.323 119.308Z" fill="#F8F8F8"/>
<path opacity="0.47" d="M213.777 59.628H246.794C248.252 59.628 249.449 58.4302 249.449 56.972V46.5046C249.449 45.0464 248.252 43.8486 246.794 43.8486H213.777C212.319 43.8486 211.121 45.0464 211.121 46.5046V56.972C211.069 58.4302 212.266 59.628 213.777 59.628Z" fill="#599AF2"/>
<path d="M220.13 47.1298H259.5C260.698 47.1298 261.687 46.1404 261.687 44.9426V32.9128C261.687 31.715 260.698 30.7256 259.5 30.7256H220.13C218.932 30.7256 217.942 31.715 217.942 32.9128V44.9947C217.994 46.1404 218.984 47.1298 220.13 47.1298Z" fill="#F8F8F8"/>
<path opacity="0.74" d="M220.13 47.1298H259.5C260.698 47.1298 261.687 46.1404 261.687 44.9426V32.9128C261.687 31.715 260.698 30.7256 259.5 30.7256H220.13C218.932 30.7256 217.942 31.715 217.942 32.9128V44.9947C217.994 46.1404 218.984 47.1298 220.13 47.1298Z" fill="#EBB42C"/>
<path d="M247.835 40.8288C246.793 40.8288 245.908 39.9435 245.908 38.9019C245.908 37.8604 246.793 36.9751 247.835 36.9751C248.876 36.9751 249.761 37.8604 249.761 38.9019C249.709 39.9956 248.876 40.8288 247.835 40.8288ZM247.835 37.4959C247.053 37.4959 246.428 38.1208 246.428 38.9019C246.428 39.6831 247.053 40.308 247.835 40.308C248.616 40.308 249.241 39.6831 249.241 38.9019C249.241 38.1208 248.564 37.4959 247.835 37.4959Z" fill="#F8F8F8"/>
<path d="M239.971 40.8288C238.929 40.8288 238.044 39.9435 238.044 38.9019C238.044 37.8604 238.929 36.9751 239.971 36.9751C241.012 36.9751 241.898 37.8604 241.898 38.9019C241.898 39.9956 241.064 40.8288 239.971 40.8288ZM239.971 37.4959C239.19 37.4959 238.565 38.1208 238.565 38.9019C238.565 39.6831 239.19 40.308 239.971 40.308C240.752 40.308 241.377 39.6831 241.377 38.9019C241.377 38.1208 240.752 37.4959 239.971 37.4959Z" fill="#F8F8F8"/>
<path d="M232.68 40.8288C231.638 40.8288 230.753 39.9435 230.753 38.9019C230.753 37.8604 231.638 36.9751 232.68 36.9751C233.721 36.9751 234.607 37.8604 234.607 38.9019C234.607 39.9956 233.721 40.8288 232.68 40.8288ZM232.68 37.4959C231.899 37.4959 231.274 38.1208 231.274 38.9019C231.274 39.6831 231.899 40.308 232.68 40.308C233.461 40.308 234.086 39.6831 234.086 38.9019C234.086 38.1208 233.461 37.4959 232.68 37.4959Z" fill="#F8F8F8"/>
<path d="M232.732 174.926H232.836V175.916L221.848 176.072V175.343C221.848 175.239 221.9 175.135 222.004 175.083C222.056 175.083 222.056 175.083 222.109 175.083L232.732 174.926Z" fill="#373449"/>
<path d="M228.878 171.229L232.211 171.177C232.315 171.177 232.368 171.177 232.42 171.229L232.472 171.281C232.524 171.333 232.576 171.437 232.576 171.541V171.906L232.628 173.156L232.68 174.874L222.056 175.03C222.004 175.03 222.004 175.03 221.952 175.03C222.213 174.249 222.785 173.676 223.567 173.468L226.014 173.26C226.587 172.947 227.108 172.687 227.681 172.427L228.67 171.229H228.722H228.774C228.826 171.229 228.826 171.229 228.878 171.229Z" fill="#373449"/>
<path d="M252.314 134.15L244.554 111.913L244.45 111.08H223.255V122.745C223.255 124.256 223.307 125.714 223.463 127.224L227.525 172.01H233.358L234.816 121.079L235.128 121.027L243.409 137.535L237.159 151.544C237.055 151.752 237.107 151.961 237.316 152.065L241.221 155.085C241.534 155.346 242.003 155.241 242.211 154.877L252.001 137.587C252.574 136.546 252.678 135.296 252.314 134.15Z" fill="#472D1B"/>
<path d="M235.805 154.408L235.753 154.356L235.076 155.085L242.783 162.949L243.304 162.428C243.408 162.324 243.408 162.22 243.356 162.115C243.356 162.115 243.356 162.063 243.304 162.063L235.805 154.408Z" fill="#373449"/>
<path d="M241.116 154.512L238.773 152.169C238.721 152.117 238.669 152.064 238.565 152.064C238.513 152.064 238.513 152.064 238.46 152.064C238.356 152.064 238.304 152.117 238.2 152.169L237.94 152.429L237.002 153.262L235.752 154.408L243.199 162.011L243.252 162.063C243.616 161.334 243.616 160.501 243.199 159.824L241.585 157.949C241.377 157.324 241.221 156.803 241.012 156.179L241.168 154.616C241.168 154.616 241.168 154.564 241.116 154.564V154.512C241.168 154.564 241.168 154.564 241.116 154.512Z" fill="#373449"/>
<path d="M249.761 89.3121C249.449 88.7393 245.803 92.2284 244.97 95.6655C245.022 95.5614 244.918 95.8217 244.97 95.6655L248.043 100.04L239.658 109.414L241.793 111.028C241.793 111.028 253.979 103.06 254.708 100.144C255.281 98.1131 251.323 92.0201 249.761 89.3121Z" fill="#F9DCD2"/>
<path d="M204.923 88.322C204.714 87.8533 204.298 87.2283 203.256 86.3951L201.381 84.7807C201.225 84.6766 201.069 84.6245 200.913 84.7286L200.861 84.7807C200.704 84.8849 200.652 85.0932 200.757 85.2494L201.59 86.6034C201.746 86.8638 201.538 87.1763 201.277 87.1763L199.35 87.02H199.298L196.851 86.4472C196.642 86.3951 196.486 86.4993 196.434 86.7076V86.8117C196.382 87.02 196.486 87.2283 196.695 87.2804L199.246 88.0616L196.122 87.5929C195.913 87.5408 195.705 87.697 195.705 87.9053V87.9574C195.705 88.1657 195.809 88.322 196.018 88.374L199.194 89.1552L196.434 88.8948C196.174 88.8948 196.018 89.1031 196.07 89.3114V89.4156C196.122 89.5718 196.226 89.676 196.382 89.728L199.09 90.2488L197.163 90.353C197.007 90.353 196.851 90.4571 196.851 90.6133C196.799 90.8217 196.955 91.03 197.215 91.082L199.298 91.2904C199.298 91.2904 199.298 91.2904 199.35 91.2904C199.611 91.3424 202.996 92.0715 204.298 92.1236H204.35L218.098 93.4255C218.15 93.4255 218.15 93.4255 218.202 93.4255C217.525 91.3945 217.109 89.2593 216.953 87.1763L204.923 88.322Z" fill="#F9DCD2"/>
<path d="M249.917 89.4163C248.459 87.6977 247.053 86.1354 246.168 85.3022C243.876 83.115 239.606 83.3754 239.606 83.3754L228.097 84.2607C226.795 84.3648 225.441 84.521 224.139 84.7814C221.587 85.2501 219.296 85.7188 216.744 86.2396C216.744 86.5 216.796 86.7604 216.796 86.9687C216.952 89.1038 217.369 91.1869 218.046 93.2179C218.098 93.3221 218.098 93.3741 218.15 93.4783C221.067 93.1658 223.306 92.9575 223.306 92.9575L223.254 116.809L244.449 112.018L243.512 94.5719L245.022 95.5093C246.428 93.3741 248.094 91.3431 249.917 89.4163Z" fill="#EBB42C"/>
<path d="M245.127 79.2085C244.189 76.0319 242.315 75.1465 241.013 74.8862C241.794 73.5842 242.367 72.1261 242.523 70.5117C242.94 65.9289 235.336 58.2736 230.858 63.8458C229.4 63.8979 227.681 64.5228 225.962 66.6059C222.734 70.5117 223.723 73.5842 224.765 75.2507C225.285 76.0318 226.015 76.6568 226.9 76.9692L233.67 79.521C235.076 80.0418 236.638 79.7293 237.732 78.7398C238.148 78.3753 238.617 77.9066 239.086 77.3859C241.377 78.3753 240.284 80.5105 240.284 80.5105C237.992 85.4057 240.804 87.8533 242.887 89.2594C243.773 89.8843 245.023 89.3636 245.231 88.2699C245.648 86.1348 246.064 82.4373 245.127 79.2085Z" fill="#472D1B"/>
<path d="M238.305 72.1786H237.992L236.534 74.5221C234.607 73.5326 233.878 71.0329 233.67 68.8457C232.055 69.8872 229.504 71.085 226.066 71.1371L225.494 76.8135C225.181 79.9381 227.993 82.2816 230.493 82.4378L230.441 84.3126C230.076 86.4477 231.274 88.4267 233.045 88.687C234.711 88.9474 236.326 87.5934 236.69 85.6145L237.367 76.3969C237.419 76.3969 237.419 76.3969 237.471 76.3969L238.096 76.4489C238.877 76.501 239.502 75.9282 239.554 75.147L239.659 73.7409C239.659 72.9077 239.086 72.2307 238.305 72.1786Z" fill="#F9DCD2"/>
<path opacity="0.37" d="M234.867 82.438L230.389 82.5421V84.1045L234.867 82.438Z" fill="#EBB42C"/>
<path d="M227.941 73.0115C227.837 73.0636 227.681 73.0115 227.577 73.0115C227.472 73.0115 227.316 72.9594 227.212 72.9594C227.108 72.9594 226.952 72.9594 226.847 72.9594C226.743 72.9594 226.587 72.9594 226.483 72.9073C226.379 72.8552 226.379 72.699 226.483 72.5428C226.587 72.3866 226.9 72.1782 227.264 72.2303C227.629 72.2824 227.889 72.4907 227.993 72.6469C228.097 72.8032 228.045 72.9594 227.941 73.0115Z" fill="#373449"/>
<path d="M232.42 73.2722C232.315 73.3243 232.159 73.2722 232.055 73.2722C231.951 73.2722 231.795 73.2201 231.69 73.2201C231.586 73.2201 231.43 73.2201 231.326 73.2201C231.222 73.2201 231.066 73.2201 230.961 73.1681C230.857 73.116 230.857 72.9598 230.961 72.8035C231.066 72.6473 231.378 72.439 231.743 72.4911C232.107 72.5431 232.367 72.7515 232.472 72.9077C232.576 73.0639 232.524 73.2201 232.42 73.2722Z" fill="#373449"/>
<path d="M226.951 74.8342C226.795 74.8342 226.691 74.6779 226.691 74.5217L226.743 73.9489C226.743 73.7926 226.899 73.6885 227.055 73.6885C227.212 73.6885 227.316 73.8447 227.316 74.0009L227.264 74.5738C227.264 74.73 227.108 74.8342 226.951 74.8342Z" fill="#373449"/>
<path d="M231.274 75.2512C231.117 75.2512 231.013 75.0949 231.013 74.9387L231.065 74.3659C231.065 74.2096 231.221 74.1055 231.378 74.1055C231.534 74.1055 231.638 74.2617 231.638 74.4179L231.586 74.9908C231.534 75.147 231.43 75.2512 231.274 75.2512Z" fill="#373449"/>
<path d="M229.347 76.2925L228.879 76.2404C228.618 76.2404 228.358 76.0842 228.202 75.8238C228.045 75.5634 228.097 75.303 228.202 75.0426V74.9906H228.254C228.67 74.8343 228.983 74.4177 229.035 74.0011V73.8449C229.035 73.7928 229.087 73.7407 229.191 73.7407C229.243 73.7407 229.295 73.7928 229.295 73.8969V74.0532C229.243 74.5739 228.879 75.0426 228.41 75.251C228.358 75.4072 228.358 75.6155 228.41 75.7717C228.514 75.928 228.67 76.0321 228.879 76.0842L229.347 76.1363C229.399 76.1363 229.451 76.1883 229.451 76.2925C229.451 76.2404 229.399 76.2925 229.347 76.2925Z" fill="#EBB42C"/>
<path d="M231.014 78.74L229.868 78.688C229.608 78.688 229.399 78.4276 229.451 78.1672L229.503 77.0215L232.159 77.1777L232.107 77.7506C232.107 78.3234 231.587 78.7921 231.014 78.74Z" fill="#F8F8F8"/>
<path opacity="0.47" d="M62.8047 147.534H12.6545C11.3526 147.534 10.311 146.492 10.311 145.19V90.5617C10.311 89.2598 11.3526 88.2183 12.6545 88.2183H62.8047C64.1066 88.2183 65.1481 89.2598 65.1481 90.5617V145.19C65.1481 146.492 64.0545 147.534 62.8047 147.534Z" fill="#F8F8F8"/>
<path d="M52.8063 99.3628H22.6016C22.0288 99.3628 21.5601 98.8942 21.5601 98.3213V94.1031C21.5601 93.5302 22.0288 93.0615 22.6016 93.0615H52.8063C53.3791 93.0615 53.8478 93.5302 53.8478 94.1031V98.3213C53.8478 98.8942 53.3791 99.3628 52.8063 99.3628Z" fill="#F8F8F8"/>
<path d="M52.8063 104.154H22.6016C22.0288 104.154 21.5601 103.685 21.5601 103.112C21.5601 102.539 22.0288 102.071 22.6016 102.071H52.8063C53.3791 102.071 53.8478 102.539 53.8478 103.112V103.164C53.8478 103.737 53.3791 104.154 52.8063 104.154Z" fill="#F8F8F8"/>
<path d="M52.8063 108.945H22.6016C22.0288 108.945 21.5601 108.477 21.5601 107.904V107.852C21.5601 107.279 22.0288 106.81 22.6016 106.81H52.8063C53.3791 106.81 53.8478 107.279 53.8478 107.852V107.904C53.8478 108.477 53.3791 108.945 52.8063 108.945Z" fill="#F8F8F8"/>
<path d="M23.6432 115.975C23.6432 117.433 22.4976 118.579 21.0394 118.579C19.5812 118.579 18.4355 117.433 18.4355 115.975C18.4355 114.517 19.5812 113.371 21.0394 113.371C22.4976 113.371 23.6432 114.517 23.6432 115.975Z" fill="#F8F8F8"/>
<path d="M23.6432 127.797C23.6432 129.255 22.4976 130.401 21.0394 130.401C19.5812 130.401 18.4355 129.255 18.4355 127.797C18.4355 126.339 19.5812 125.193 21.0394 125.193C22.4976 125.193 23.6432 126.339 23.6432 127.797Z" fill="#F8F8F8"/>
<path d="M23.6432 139.202C23.6432 140.66 22.4976 141.805 21.0394 141.805C19.5812 141.805 18.4355 140.66 18.4355 139.202C18.4355 137.743 19.5812 136.598 21.0394 136.598C22.4976 136.598 23.6432 137.795 23.6432 139.202Z" fill="#F8F8F8"/>
<path d="M50.0463 114.986H25.1535C24.9972 114.986 24.8931 114.881 24.8931 114.725C24.8931 114.569 24.9972 114.465 25.1535 114.465H50.0463C50.2025 114.465 50.3066 114.569 50.3066 114.725C50.3066 114.829 50.2025 114.986 50.0463 114.986Z" fill="#F8F8F8"/>
<path d="M37.5999 117.59H25.1535C24.9972 117.59 24.8931 117.485 24.8931 117.329C24.8931 117.173 24.9972 117.069 25.1535 117.069H37.5999C37.7561 117.069 37.8602 117.173 37.8602 117.329C37.8602 117.485 37.704 117.59 37.5999 117.59Z" fill="#F8F8F8"/>
<path d="M50.0463 127.172H25.1535C24.9972 127.172 24.8931 127.067 24.8931 126.911C24.8931 126.755 24.9972 126.651 25.1535 126.651H50.0463C50.2025 126.651 50.3066 126.755 50.3066 126.911C50.3066 127.015 50.2025 127.172 50.0463 127.172Z" fill="#F8F8F8"/>
<path d="M37.5999 129.776H25.1535C24.9972 129.776 24.8931 129.671 24.8931 129.515C24.8931 129.359 24.9972 129.255 25.1535 129.255H37.5999C37.7561 129.255 37.8602 129.359 37.8602 129.515C37.8602 129.671 37.704 129.776 37.5999 129.776Z" fill="#F8F8F8"/>
<path d="M50.0463 138.264H25.1535C24.9972 138.264 24.8931 138.16 24.8931 138.004C24.8931 137.848 24.9972 137.744 25.1535 137.744H50.0463C50.2025 137.744 50.3066 137.848 50.3066 138.004C50.3066 138.16 50.2025 138.264 50.0463 138.264Z" fill="#F8F8F8"/>
<path d="M37.5999 140.92H25.1535C24.9972 140.92 24.8931 140.816 24.8931 140.66C24.8931 140.504 24.9972 140.399 25.1535 140.399H37.5999C37.7561 140.399 37.8602 140.504 37.8602 140.66C37.8602 140.816 37.704 140.92 37.5999 140.92Z" fill="#F8F8F8"/>
<path opacity="0.47" d="M83.2193 50.0982H25.9347C23.3829 50.0982 21.2998 48.0151 21.2998 45.4634V27.2364C21.2998 24.6846 23.3829 22.6016 25.9347 22.6016H83.2193C85.7711 22.6016 87.8542 24.6846 87.8542 27.2364V45.4113C87.8542 48.0151 85.7711 50.0982 83.2193 50.0982Z" fill="#E4E7E6"/>
<path d="M72.0746 28.434H3.74954C1.66646 28.434 0 26.7676 0 24.6845V3.74954C0 1.66646 1.66646 0 3.74954 0H72.0746C74.1576 0 75.8241 1.66646 75.8241 3.74954V24.6845C75.8241 26.7155 74.1576 28.434 72.0746 28.434Z" fill="#F8F8F8"/>
<path opacity="0.74" d="M72.0746 28.434H3.74954C1.66646 28.434 0 26.7676 0 24.6845V3.74954C0 1.66646 1.66646 0 3.74954 0H72.0746C74.1576 0 75.8241 1.66646 75.8241 3.74954V24.6845C75.8241 26.7155 74.1576 28.434 72.0746 28.434Z" fill="#EBB42C"/>
<path d="M24.0597 17.2893C22.3411 17.2893 20.9351 15.8832 20.9351 14.1647C20.9351 12.4461 22.3411 11.04 24.0597 11.04C25.7782 11.04 27.1843 12.4461 27.1843 14.1647C27.2364 15.8832 25.8303 17.2893 24.0597 17.2893ZM24.0597 11.5608C22.6015 11.5608 21.4558 12.7586 21.4558 14.1647C21.4558 15.6228 22.6536 16.7685 24.0597 16.7685C25.5178 16.7685 26.6635 15.5707 26.6635 14.1647C26.7156 12.7065 25.5178 11.5608 24.0597 11.5608Z" fill="#F8F8F8"/>
<path d="M37.652 17.2893C35.9334 17.2893 34.5273 15.8832 34.5273 14.1647C34.5273 12.4461 35.9334 11.04 37.652 11.04C39.3705 11.04 40.7766 12.4461 40.7766 14.1647C40.8287 15.8832 39.4226 17.2893 37.652 17.2893ZM37.652 11.5608C36.1938 11.5608 35.0481 12.7586 35.0481 14.1647C35.0481 15.6228 36.2459 16.7685 37.652 16.7685C39.1101 16.7685 40.2558 15.5707 40.2558 14.1647C40.3079 12.7065 39.1101 11.5608 37.652 11.5608Z" fill="#F8F8F8"/>
<path d="M50.3585 17.2893C48.64 17.2893 47.2339 15.8832 47.2339 14.1647C47.2339 12.4461 48.64 11.04 50.3585 11.04C52.077 11.04 53.4831 12.4461 53.4831 14.1647C53.4831 15.8832 52.077 17.2893 50.3585 17.2893ZM50.3585 11.5608C48.9004 11.5608 47.7547 12.7586 47.7547 14.1647C47.7547 15.6228 48.9524 16.7685 50.3585 16.7685C51.8167 16.7685 52.9624 15.5707 52.9624 14.1647C52.9624 12.7065 51.8167 11.5608 50.3585 11.5608Z" fill="#F8F8F8"/>
<path d="M148.68 146.389H114.57V171.334H148.68V146.389Z" fill="#323232"/>
<path d="M211.953 138.473H51.2438C48.8482 138.473 46.9214 136.546 46.9214 134.151V39.006C46.9214 36.6104 48.8482 34.6836 51.2438 34.6836H211.953C214.349 34.6836 216.276 36.6104 216.276 39.006V134.151C216.276 136.546 214.349 138.473 211.953 138.473Z" fill="#222222"/>
<path d="M211.224 148.837H51.9729C49.2128 148.837 46.9214 146.181 46.9214 142.9V127.537H216.224V142.9C216.276 146.181 214.036 148.837 211.224 148.837Z" fill="#222222"/>
<path d="M208.048 127.121H55.202C54.6813 127.121 54.2646 126.704 54.2646 126.183V42.808C54.2646 42.2872 54.6813 41.8706 55.202 41.8706H208.048C208.569 41.8706 208.985 42.2872 208.985 42.808V126.235C208.985 126.704 208.569 127.121 208.048 127.121Z" fill="#F8F8F8"/>
<path opacity="0.81" d="M197.32 121.444H65.8778C65.357 121.444 64.9404 121.027 64.9404 120.507V48.9008C64.9404 48.38 65.357 47.9634 65.8778 47.9634H197.32C197.841 47.9634 198.258 48.38 198.258 48.9008V120.507C198.258 121.027 197.841 121.444 197.32 121.444Z" fill="#ECF1F7"/>
<path d="M131.599 144.514C128.162 144.514 125.402 141.754 125.402 138.317C125.402 134.88 128.162 132.12 131.599 132.12C135.036 132.12 137.796 134.88 137.796 138.317C137.796 141.754 135.036 144.514 131.599 144.514ZM131.599 132.64C128.474 132.64 125.923 135.192 125.923 138.317C125.923 141.441 128.474 143.993 131.599 143.993C134.724 143.993 137.275 141.441 137.275 138.317C137.275 135.192 134.724 132.64 131.599 132.64Z" fill="#F8F8F8"/>
<path d="M167.845 175.604H95.3535V174.563C95.3535 171.126 98.1657 168.313 101.603 168.313H161.595C165.033 168.313 167.845 171.126 167.845 174.563V175.604Z" fill="#222222"/>
<path opacity="0.9" d="M131.599 71.8666C134.101 71.8666 136.13 69.8381 136.13 67.3359C136.13 64.8336 134.101 62.8052 131.599 62.8052C129.097 62.8052 127.068 64.8336 127.068 67.3359C127.068 69.8381 129.097 71.8666 131.599 71.8666Z" fill="#F8F8F8"/>
<path opacity="0.15" d="M131.599 106.238C134.101 106.238 136.13 104.209 136.13 101.707C136.13 99.2047 134.101 97.1763 131.599 97.1763C129.097 97.1763 127.068 99.2047 127.068 101.707C127.068 104.209 129.097 106.238 131.599 106.238Z" fill="#F8F8F8"/>
<path opacity="0.5" d="M148.836 89.0521C151.338 89.0521 153.367 87.0237 153.367 84.5214C153.367 82.0192 151.338 79.9907 148.836 79.9907C146.334 79.9907 144.305 82.0192 144.305 84.5214C144.305 87.0237 146.334 89.0521 148.836 89.0521Z" fill="#F8F8F8"/>
<path d="M114.414 89.0521C116.916 89.0521 118.944 87.0237 118.944 84.5214C118.944 82.0192 116.916 79.9907 114.414 79.9907C111.911 79.9907 109.883 82.0192 109.883 84.5214C109.883 87.0237 111.911 89.0521 114.414 89.0521Z" fill="#F8F8F8"/>
<path opacity="0.7" d="M146.961 75.564C145.191 77.3346 142.327 77.3346 140.556 75.564C138.785 73.7934 138.785 70.9291 140.556 69.1585C142.327 67.3879 145.191 67.3879 146.961 69.1585C148.732 70.9291 148.732 73.7934 146.961 75.564Z" fill="#F8F8F8"/>
<path opacity="0.1" d="M119.465 101.186C121.968 101.186 123.996 99.1575 123.996 96.6552C123.996 94.153 121.968 92.1245 119.465 92.1245C116.963 92.1245 114.935 94.153 114.935 96.6552C114.935 99.1575 116.963 101.186 119.465 101.186Z" fill="#F8F8F8"/>
<path opacity="0.3" d="M140.556 99.8838C138.785 98.1132 138.785 95.249 140.556 93.4784C142.327 91.7077 145.191 91.7077 146.961 93.4784C148.732 95.249 148.732 98.1132 146.961 99.8838C145.191 101.654 142.327 101.654 140.556 99.8838Z" fill="#F8F8F8"/>
<path d="M116.236 75.564C114.466 73.7934 114.466 70.9291 116.236 69.1585C118.007 67.3879 120.871 67.3879 122.642 69.1585C124.412 70.9291 124.412 73.7934 122.642 75.564C120.871 77.3346 118.007 77.3346 116.236 75.564Z" fill="#F8F8F8"/>
<path opacity="0.47" d="M208.048 50.6195H55.202C54.6813 50.6195 54.2646 50.2029 54.2646 49.6822V42.808C54.2646 42.2872 54.6813 41.8706 55.202 41.8706H208.048C208.569 41.8706 208.985 42.2872 208.985 42.808V49.6822C208.985 50.2029 208.569 50.6195 208.048 50.6195Z" fill="#D3E1E1"/>
<path d="M194.143 46.0893C194.143 46.5059 193.778 46.8704 193.362 46.8704C192.945 46.8704 192.581 46.5059 192.581 46.0893C192.581 45.6726 192.945 45.3081 193.362 45.3081C193.778 45.3081 194.143 45.6726 194.143 46.0893Z" fill="#ECF1F7"/>
<path d="M202.58 46.0893C202.58 46.5059 202.215 46.8704 201.799 46.8704C201.382 46.8704 201.018 46.5059 201.018 46.0893C201.018 45.6726 201.382 45.3081 201.799 45.3081C202.267 45.3081 202.58 45.6726 202.58 46.0893Z" fill="#ECF1F7"/>
<path d="M197.58 46.8704C198.012 46.8704 198.362 46.5207 198.362 46.0893C198.362 45.6578 198.012 45.3081 197.58 45.3081C197.149 45.3081 196.799 45.6578 196.799 46.0893C196.799 46.5207 197.149 46.8704 197.58 46.8704Z" fill="#ECF1F7"/>
<path d="M59.1598 134.516L59.993 132.172C60.3576 131.131 61.347 130.454 62.4406 130.454H82.8028C84.2609 130.454 85.4066 131.599 85.4066 133.057V136.286V141.65V173.573C85.4066 175.032 84.2609 176.177 82.8028 176.177H21.3519C19.8937 176.177 18.748 175.032 18.748 173.573V138.89C18.748 137.432 19.8937 136.286 21.3519 136.286H56.7122C57.8579 136.286 58.8473 135.557 59.1598 134.516Z" fill="#012B28"/>
<path opacity="0.12" d="M60.6698 136.911L61.451 134.672C61.8155 133.682 62.7008 133.005 63.7424 133.005H82.9588C84.3128 133.005 85.4064 134.099 85.4064 135.453V138.526V143.577V173.678C85.4064 175.032 84.3128 176.125 82.9588 176.125H25.0492C23.6952 176.125 22.6016 175.032 22.6016 173.678V140.973C22.6016 139.619 23.6952 138.526 25.0492 138.526H58.3785C59.42 138.578 60.3574 137.901 60.6698 136.911Z" fill="#F8F8F8"/>
<path opacity="0.21" d="M161.283 129.307C181.329 129.307 197.58 113.056 197.58 93.0096C197.58 72.9629 181.329 56.7119 161.283 56.7119C141.236 56.7119 124.985 72.9629 124.985 93.0096C124.985 113.056 141.236 129.307 161.283 129.307Z" fill="#F8F8F8"/>
<path opacity="0.81" d="M165.092 78.9547C169.329 77.9993 171.989 73.7903 171.033 69.5537C170.078 65.3172 165.869 62.6573 161.632 63.6128C157.396 64.5682 154.736 68.7772 155.691 73.0137C156.647 77.2503 160.856 79.9102 165.092 78.9547Z" fill="#ECF1F7"/>
<path opacity="0.58" d="M161.283 130.401C140.66 130.401 123.943 113.632 123.943 93.0614C123.943 72.491 140.712 55.7222 161.283 55.7222C181.853 55.7222 198.622 72.491 198.622 93.0614C198.622 113.632 181.853 130.401 161.283 130.401ZM161.283 57.7532C141.858 57.7532 126.026 73.5846 126.026 93.0093C126.026 112.434 141.858 128.265 161.283 128.265C180.707 128.265 196.539 112.434 196.539 93.0093C196.539 73.5846 180.707 57.7532 161.283 57.7532Z" fill="#222222"/>
<path d="M219.4 144.566L195.497 121.131C195.028 120.662 194.508 120.298 193.935 120.089C200.028 112.747 203.725 103.321 203.725 93.0093C203.725 69.6268 184.769 50.6187 161.335 50.6187C137.9 50.6187 118.944 69.5747 118.944 93.0093C118.944 116.444 137.9 135.4 161.335 135.4C171.125 135.4 180.134 132.067 187.321 126.495C187.581 127.172 187.946 127.797 188.519 128.318L212.422 151.752C213.412 152.69 214.661 153.21 215.911 153.21C217.213 153.21 218.515 152.69 219.505 151.7C221.431 149.721 221.379 146.492 219.4 144.566ZM124.985 93.0093C124.985 72.9597 141.233 56.7117 161.282 56.7117C181.332 56.7117 197.58 72.9597 197.58 93.0093C197.58 113.059 181.332 129.307 161.282 129.307C141.233 129.307 124.985 113.111 124.985 93.0093Z" fill="#3A3A3A"/>
<path d="M244.97 164.771L210.183 129.984C209.298 129.098 196.487 141.909 197.372 142.795L232.159 177.582C235.701 181.123 241.429 181.123 244.97 177.582C248.512 174.041 248.512 168.312 244.97 164.771ZM242.366 170.656C242.366 172.427 240.96 173.833 239.19 173.833C237.419 173.833 236.013 172.427 236.013 170.656C236.013 168.885 237.419 167.479 239.19 167.479C240.908 167.479 242.366 168.937 242.366 170.656Z" fill="#3A3A3A"/>
<g opacity="0.1">
<path d="M240.909 173.312C240.388 173.625 239.815 173.833 239.138 173.833C237.367 173.833 235.961 172.427 235.961 170.656C235.961 169.979 236.17 169.354 236.534 168.834C228.566 160.605 216.849 148.524 209.767 141.285C206.121 137.535 203.726 135.036 203.674 135.088C200.237 138.473 196.799 142.326 197.268 142.795L232.056 177.583C235.597 181.124 241.325 181.124 244.867 177.583C245.023 177.583 243.46 175.968 240.909 173.312Z" fill="#F8F8F8"/>
</g>
<path d="M212.058 132.171L199.507 144.722C198.934 145.295 197.997 145.295 197.424 144.722L195.133 142.43C194.56 141.858 194.56 140.92 195.133 140.347L207.683 127.797C208.256 127.224 209.194 127.224 209.766 127.797L212.058 130.088C212.631 130.661 212.631 131.598 212.058 132.171Z" fill="#F8F8F8"/>
</svg>
