<svg width="28" height="30" viewBox="0 0 28 30" fill="none" xmlns="http://www.w3.org/2000/svg">
<path d="M21.1787 13.6667C21.9533 20.8334 25 23.0001 25 23.0001H1C1 23.0001 5 20.1561 5 10.2001C5 7.93741 5.84267 5.76675 7.34267 4.16675C8.844 2.56675 10.88 1.66675 13 1.66675C13.4493 1.66675 13.896 1.70675 14.3333 1.78675M15.3067 27.0001C15.0725 27.4045 14.7362 27.7403 14.3313 27.9737C13.9264 28.2071 13.4673 28.33 13 28.33C12.5327 28.33 12.0736 28.2071 11.6687 27.9737C11.2638 27.7403 10.9275 27.4045 10.6933 27.0001M22.3333 9.66675C23.3942 9.66675 24.4116 9.24532 25.1618 8.49518C25.9119 7.74503 26.3333 6.72761 26.3333 5.66675C26.3333 4.60588 25.9119 3.58847 25.1618 2.83832C24.4116 2.08818 23.3942 1.66675 22.3333 1.66675C21.2725 1.66675 20.2551 2.08818 19.5049 2.83832C18.7548 3.58847 18.3333 4.60588 18.3333 5.66675C18.3333 6.72761 18.7548 7.74503 19.5049 8.49518C20.2551 9.24532 21.2725 9.66675 22.3333 9.66675Z" stroke="#F8F8F8" stroke-width="2" stroke-linecap="round" stroke-linejoin="round"/>
</svg>
