<svg width="18" height="10" viewBox="0 0 18 10" fill="none" xmlns="http://www.w3.org/2000/svg">
<path d="M5 2C4.71667 2 4.479 1.904 4.287 1.712C4.095 1.52 3.99934 1.28267 4 1C4 0.71667 4.096 0.479004 4.288 0.287004C4.48 0.0950036 4.71734 -0.000663206 5 3.4602e-06H17C17.2833 3.4602e-06 17.521 0.0960036 17.713 0.288004C17.905 0.480004 18.0007 0.717337 18 1C18 1.28334 17.904 1.521 17.712 1.713C17.52 1.905 17.2827 2.00067 17 2H5ZM5 6C4.71667 6 4.479 5.904 4.287 5.712C4.095 5.52 3.99934 5.28267 4 5C4 4.71667 4.096 4.479 4.288 4.287C4.48 4.095 4.71734 3.99934 5 4H17C17.2833 4 17.521 4.096 17.713 4.288C17.905 4.48 18.0007 4.71734 18 5C18 5.28334 17.904 5.521 17.712 5.713C17.52 5.905 17.2827 6.00067 17 6H5ZM5 10C4.71667 10 4.479 9.904 4.287 9.712C4.095 9.52 3.99934 9.28267 4 9C4 8.71667 4.096 8.479 4.288 8.287C4.48 8.095 4.71734 7.99934 5 8H17C17.2833 8 17.521 8.096 17.713 8.288C17.905 8.48 18.0007 8.71734 18 9C18 9.28334 17.904 9.521 17.712 9.713C17.52 9.905 17.2827 10.0007 17 10H5ZM1 2C0.71667 2 0.479003 1.904 0.287003 1.712C0.0950034 1.52 -0.000663206 1.28267 3.46021e-06 1C3.46021e-06 0.71667 0.0960036 0.479004 0.288004 0.287004C0.480004 0.0950036 0.717337 -0.000663206 1 3.4602e-06C1.28334 3.4602e-06 1.521 0.0960036 1.713 0.288004C1.905 0.480004 2.00067 0.717337 2 1C2 1.28334 1.904 1.521 1.712 1.713C1.52 1.905 1.28267 2.00067 1 2ZM1 6C0.71667 6 0.479003 5.904 0.287003 5.712C0.0950034 5.52 -0.000663206 5.28267 3.46021e-06 5C3.46021e-06 4.71667 0.0960036 4.479 0.288004 4.287C0.480004 4.095 0.717337 3.99934 1 4C1.28334 4 1.521 4.096 1.713 4.288C1.905 4.48 2.00067 4.71734 2 5C2 5.28334 1.904 5.521 1.712 5.713C1.52 5.905 1.28267 6.00067 1 6ZM1 10C0.71667 10 0.479003 9.904 0.287003 9.712C0.0950034 9.52 -0.000663206 9.28267 3.46021e-06 9C3.46021e-06 8.71667 0.0960036 8.479 0.288004 8.287C0.480004 8.095 0.717337 7.99934 1 8C1.28334 8 1.521 8.096 1.713 8.288C1.905 8.48 2.00067 8.71734 2 9C2 9.28334 1.904 9.521 1.712 9.713C1.52 9.905 1.28267 10.0007 1 10Z" fill="#B3B9C4"/>
</svg>
