<svg width="32" height="23" viewBox="0 0 32 23" fill="none" xmlns="http://www.w3.org/2000/svg">
<path d="M4.36364 8.775H4.51364V8.625V4.4625H7.12273V8.625V8.775H7.27273H11.4864V11.35H7.27273H7.12273V11.5V15.6625H4.51364V11.5V11.35H4.36364H0.15V8.775H4.36364ZM29.2364 20.4188H29.3864V20.2688V18.6875C29.3864 18.5147 29.2829 18.3455 29.143 18.1924C28.9986 18.0344 28.7928 17.8692 28.5401 17.7025C28.0338 17.3685 27.3191 17.0153 26.4734 16.693C24.782 16.0482 22.5456 15.5188 20.3636 15.5188C18.16 15.5188 15.9235 16.0482 14.2373 16.693C13.3943 17.0154 12.6836 17.3686 12.1806 17.7028C11.9296 17.8695 11.7253 18.0348 11.582 18.1929C11.4431 18.3462 11.3409 18.5152 11.3409 18.6875V20.2688V20.4188H11.4909H29.2364ZM16.355 1.79083C17.4179 0.740422 18.8598 0.15 20.3636 0.15C21.8675 0.15 23.3094 0.740422 24.3723 1.79082C25.4351 2.84117 26.0318 4.26536 26.0318 5.75C26.0318 7.23464 25.4351 8.65883 24.3723 9.70918C23.3094 10.7596 21.8675 11.35 20.3636 11.35C18.8598 11.35 17.4179 10.7596 16.355 9.70918C15.2922 8.65883 14.6955 7.23464 14.6955 5.75C14.6955 4.26536 15.2922 2.84117 16.355 1.79083ZM21.5894 2.82222C21.2007 2.66312 20.7842 2.58125 20.3636 2.58125C19.5143 2.58125 18.6994 2.91467 18.0983 3.50873C17.4971 4.10285 17.1591 4.90902 17.1591 5.75C17.1591 6.16637 17.2421 6.57863 17.4033 6.96321C17.5645 7.34778 17.8007 7.6971 18.0983 7.99127C18.396 8.28543 18.7492 8.51868 19.1379 8.67778C19.5265 8.83688 19.9431 8.91875 20.3636 8.91875C20.7842 8.91875 21.2007 8.83688 21.5894 8.67778C21.9781 8.51868 22.3313 8.28543 22.629 7.99127C22.9266 7.6971 23.1628 7.34778 23.324 6.96321C23.4852 6.57863 23.5682 6.16637 23.5682 5.75C23.5682 5.33363 23.4852 4.92137 23.324 4.53679C23.1628 4.15222 22.9266 3.8029 22.629 3.50873C22.3313 3.21457 21.9781 2.98132 21.5894 2.82222ZM8.87727 18.6875C8.87727 17.7836 9.33251 16.9817 10.1005 16.2806C10.8694 15.5786 11.9415 14.988 13.1442 14.5127C15.5498 13.5621 18.4402 13.0875 20.3636 13.0875C22.2871 13.0875 25.1774 13.5621 27.5831 14.5127C28.7858 14.988 29.8579 15.5786 30.6268 16.2806C31.3948 16.9817 31.85 17.7836 31.85 18.6875V22.85H8.87727V18.6875Z" fill="#F8F8F8" stroke="#012B28" stroke-width="0.3"/>
</svg>
