<svg width="18" height="17" viewBox="0 0 18 17" fill="none" xmlns="http://www.w3.org/2000/svg">
<path d="M2.06659 9.30551L1.62659 9.74884C1.74364 9.86487 1.90178 9.92997 2.06659 9.92997C2.2314 9.92997 2.38954 9.86487 2.50659 9.74884L2.06659 9.30551ZM3.90659 8.36051C4.02439 8.24359 4.09092 8.08467 4.09155 7.9187C4.09217 7.75273 4.02684 7.59331 3.90993 7.47551C3.85204 7.41718 3.78322 7.37083 3.70742 7.33909C3.63161 7.30736 3.5503 7.29086 3.46812 7.29055C3.30215 7.28993 3.14273 7.35526 3.02493 7.47218L3.90576 8.35968L3.90659 8.36051ZM1.10659 7.47218C0.988253 7.35873 0.830077 7.29632 0.666154 7.29839C0.502231 7.30047 0.345687 7.36687 0.230259 7.48328C0.114832 7.59969 0.0497635 7.75679 0.0490777 7.92073C0.048392 8.08466 0.112144 8.2423 0.226593 8.35968L1.10659 7.47218ZM14.5133 4.63218C14.5552 4.70432 14.6111 4.76734 14.6777 4.81753C14.7443 4.86772 14.8203 4.90406 14.9012 4.92442C14.9822 4.94477 15.0663 4.94872 15.1488 4.93604C15.2312 4.92335 15.3103 4.89429 15.3813 4.85056C15.4524 4.80683 15.514 4.74933 15.5624 4.68143C15.6109 4.61353 15.6453 4.53661 15.6636 4.45522C15.6818 4.37382 15.6836 4.28959 15.6688 4.20749C15.654 4.12539 15.623 4.04708 15.5774 3.97718L14.5133 4.63218ZM9.06576 0.347177C4.85993 0.347177 1.44076 3.73134 1.44076 7.91634H2.69076C2.69076 4.43134 5.54076 1.59718 9.06576 1.59718V0.347177ZM1.44076 7.91634V9.30551H2.69076V7.91634H1.44076ZM2.50743 9.74968L3.90659 8.36051L3.02493 7.47218L1.62493 8.86134L2.50576 9.74801L2.50743 9.74968ZM2.50743 8.86218L1.10659 7.47218L0.22576 8.35968L1.62576 9.74801L2.50576 8.86134L2.50743 8.86218ZM15.5774 3.97884C14.8933 2.86726 13.9355 1.94971 12.7956 1.31388C11.6557 0.678064 10.371 0.345224 9.06576 0.347177V1.59718C10.1576 1.59491 11.2327 1.87283 12.1864 2.40436C13.1402 2.93588 13.9416 3.70323 14.5141 4.63301L15.5783 3.97801L15.5774 3.97884ZM15.9283 7.63884L16.3674 7.19468C16.2504 7.07915 16.0927 7.01438 15.9283 7.01438C15.7639 7.01438 15.6061 7.07915 15.4891 7.19468L15.9283 7.63884ZM14.0833 8.58301C14.0249 8.64074 13.9784 8.7094 13.9466 8.78507C13.9147 8.86075 13.8981 8.94195 13.8976 9.02406C13.8967 9.18987 13.9617 9.34927 14.0783 9.46718C14.1948 9.58509 14.3535 9.65186 14.5193 9.65279C14.6851 9.65373 14.8445 9.58876 14.9624 9.47218L14.0833 8.58301ZM16.8941 9.47218C16.9521 9.53141 17.0214 9.5785 17.0978 9.6107C17.1742 9.6429 17.2563 9.65957 17.3392 9.65973C17.4222 9.6599 17.5043 9.64356 17.5809 9.61166C17.6574 9.57977 17.7269 9.53296 17.7851 9.47396C17.8434 9.41496 17.8894 9.34495 17.9203 9.26801C17.9513 9.19108 17.9666 9.10875 17.9654 9.02582C17.9642 8.9429 17.9466 8.86104 17.9134 8.78502C17.8803 8.70899 17.8324 8.64032 17.7724 8.58301L16.8941 9.47218ZM3.43159 12.3105C3.34451 12.1694 3.20494 12.0686 3.04358 12.0304C2.88222 11.9922 2.71229 12.0197 2.57118 12.1068C2.43006 12.1938 2.32931 12.3334 2.2911 12.4948C2.25289 12.6561 2.28035 12.8261 2.36743 12.9672L3.43159 12.3105ZM8.90243 16.5972C13.1208 16.5972 16.5524 13.2155 16.5524 9.02801H15.3024C15.3024 12.5113 12.4441 15.3472 8.90243 15.3472V16.5972ZM16.5524 9.02801V7.63884H15.3024V9.02801H16.5524ZM15.4891 7.19468L14.0833 8.58301L14.9624 9.47218L16.3674 8.08301L15.4891 7.19468ZM15.4891 8.08301L16.8941 9.47218L17.7724 8.58301L16.3674 7.19468L15.4891 8.08301ZM2.36659 12.9663C3.05528 14.0791 4.01743 14.997 5.16137 15.6326C6.30531 16.2682 7.59295 16.6002 8.90159 16.5972V15.3472C7.80629 15.3502 6.72845 15.0728 5.77078 14.5412C4.8131 14.0096 4.00834 13.2417 3.43159 12.3105L2.36743 12.9672L2.36659 12.9663Z" fill="#F8F8F8"/>
</svg>
