<svg width="24" height="24" viewBox="0 0 24 24" fill="none" xmlns="http://www.w3.org/2000/svg">
<path d="M18.6061 19.1061L22 15.7121L23.2879 17L18.5 21.7879L15.2121 18.5L16.5 17.2121L18.3939 19.1061L18.5 19.2121L18.6061 19.1061ZM5.85 20V20.15H6H12.971C13.0648 20.7335 13.2319 21.3203 13.5318 21.85H6C4.98284 21.85 4.15 21.0172 4.15 20V4C4.15 2.98284 4.98284 2.15 6 2.15H13.9379L19.85 8.06213V12.9064C19.5661 12.85 19.2479 12.85 19.0121 12.85H19H18.9879C18.7521 12.85 18.4339 12.85 18.15 12.9064V9V8.85H18H13.15V4V3.85H13H6H5.85V4V20ZM12.85 18.85H11.15V11.15H12.85V18.85ZM8.85 18.85H7.15V13.15H8.85V18.85Z" fill="black" stroke="#F8F8F8" stroke-width="0.3"/>
</svg>
