<svg width="47" height="47" viewBox="0 0 47 47" fill="none" xmlns="http://www.w3.org/2000/svg">
<g clip-path="url(#clip0_579_5096)">
<path d="M35.7577 0.265137H10.9522C4.90817 0.265137 0.00854492 5.16476 0.00854492 11.2087V36.0143C0.00854492 42.0583 4.90817 46.9579 10.9522 46.9579H35.7577C41.8017 46.9579 46.7013 42.0583 46.7013 36.0143V11.2087C46.7013 5.16476 41.8017 0.265137 35.7577 0.265137Z" fill="white"/>
<path d="M35.7577 0.265137H10.9522C4.90817 0.265137 0.00854492 5.16476 0.00854492 11.2087V36.0143C0.00854492 42.0583 4.90817 46.9579 10.9522 46.9579H35.7577C41.8017 46.9579 46.7013 42.0583 46.7013 36.0143V11.2087C46.7013 5.16476 41.8017 0.265137 35.7577 0.265137Z" fill="#1D9BF0"/>
<path d="M36.4096 16.9375C36.4297 17.227 36.4297 17.5164 36.4297 17.8086C36.4297 26.7089 29.6541 36.9736 17.2647 36.9736V36.9681C13.6046 36.9734 10.0204 35.9252 6.93994 33.9486C7.47217 34.0126 8.00694 34.0446 8.54318 34.0458C11.5767 34.0482 14.5229 33.0307 16.9085 31.1569C15.5029 31.1303 14.1409 30.6652 13.0126 29.8265C11.8844 28.9879 11.0464 27.8177 10.6159 26.4794C11.625 26.674 12.6654 26.6343 13.6568 26.3634C10.5145 25.7285 8.25372 22.9676 8.25372 19.7611V19.6758C9.19048 20.1975 10.2389 20.4867 11.3106 20.5188C8.35112 18.5407 7.43879 14.6034 9.22588 11.525C10.9169 13.6059 13.0268 15.3078 15.4184 16.5202C17.8101 17.7326 20.43 18.4283 23.108 18.5621C22.841 17.4127 22.8805 16.2134 23.2224 15.084C23.5643 13.9547 24.1968 12.9349 25.0565 12.1267C27.7695 9.57647 32.0362 9.70725 34.5864 12.4187C36.0948 12.1209 37.5413 11.5679 38.8637 10.7836C38.3609 12.3431 37.3086 13.667 35.9028 14.5088C37.238 14.3514 38.5419 13.994 39.7708 13.4485C38.8668 14.8022 37.7286 15.9836 36.4096 16.9375Z" fill="white"/>
</g>
<defs>
<clipPath id="clip0_579_5096">
<rect width="46.6927" height="46.6927" fill="white" transform="translate(0.00830078 0.265625)"/>
</clipPath>
</defs>
</svg>
