<svg width="361" height="414" viewBox="0 0 361 414" fill="none" xmlns="http://www.w3.org/2000/svg">
<path d="M352.835 32H229.416C224.906 32 221.25 35.6557 221.25 40.1653V263.718C221.25 268.227 224.906 271.883 229.416 271.883H352.835C357.344 271.883 361 268.227 361 263.718V40.1653C361 35.6557 357.344 32 352.835 32Z" fill="#121212"/>
<path d="M343.584 32H220.165C215.656 32 212 35.6557 212 40.1653V263.718C212 268.227 215.656 271.883 220.165 271.883H343.584C348.094 271.883 351.75 268.227 351.75 263.718V40.1653C351.75 35.6557 348.094 32 343.584 32Z" fill="#012B28"/>
<path d="M297.493 35.6375H271.821C270.965 35.6375 270.27 36.3304 270.27 37.185C270.27 38.0397 270.965 38.7326 271.821 38.7326H297.493C298.349 38.7326 299.044 38.0397 299.044 37.185C299.044 36.3304 298.349 35.6375 297.493 35.6375Z" fill="#012B28"/>
<path d="M269.422 164.941C269.547 155.899 252.729 163.278 252.729 163.278C252.729 163.278 245.197 185.013 244.119 187.795C243.041 190.577 228.817 209.182 228.817 209.182L243.013 216.951L259.01 193.012C261.583 189.131 269.422 164.941 269.422 164.941Z" fill="#FBB6C1"/>
<path d="M228.783 209.189C228.783 209.189 220.923 211.651 221.828 215.393C222.732 219.135 242.943 216.958 242.943 216.958L228.783 209.189Z" fill="#FBB6C1"/>
<path d="M266.028 175.067L264.887 165.817C264.887 165.817 258.627 163.883 255.15 162.339C253.717 162.854 252.771 163.264 252.771 163.264C252.771 163.264 250.427 170.018 248.167 176.479C255.421 176.59 266.048 175.088 266.048 175.088L266.028 175.067Z" fill="#FC9FAD"/>
<path d="M246.205 168.098C246.205 168.098 259.378 176.006 271.112 175.213L277.837 141.55C278.073 139.322 277.507 137.083 276.241 135.233C274.976 133.384 273.093 132.046 270.931 131.459C268.513 130.803 265.935 131.135 263.762 132.38C261.589 133.626 260 135.683 259.344 138.101L246.205 168.098Z" fill="#FF981E"/>
<path d="M281.426 88.288C281.426 88.288 272.385 91.3621 275.994 103.708C278.241 111.414 275.793 115.698 275.793 115.698C275.793 115.698 271.439 123.585 277.545 128.67C283.854 133.928 294.752 124.914 294.752 124.914C294.752 124.914 284.076 116.853 283.895 103.276C283.715 89.6999 281.426 88.288 281.426 88.288Z" fill="#023766"/>
<path d="M291.393 117.43L286.316 147.747L299.051 149.883L304.858 115.218L291.393 117.43Z" fill="#FC9FAD"/>
<path d="M283.93 101.364C283.93 101.364 282.921 117.221 290.002 121.485C297.082 125.748 307.202 119.092 309.803 112.721C309.803 112.721 315.249 112.318 315.708 107.95C316.167 103.582 312.029 104.695 311.111 105.585C309.353 102.301 308.84 98.4931 309.664 94.8606C310.978 88.4966 285.078 82.077 283.93 101.364Z" fill="#FBB6C1"/>
<path d="M311.111 105.585C309.354 102.301 308.84 98.4931 309.664 94.8606C310.979 88.4966 285.078 82.0701 283.93 101.364C283.93 101.364 283.888 102.059 283.888 103.172C285.099 103.499 289.453 104.208 295.288 99.6179C302.201 94.179 307.466 96.7176 307.466 96.7176C307.466 96.7176 307.599 103.13 311.111 105.585Z" fill="#FC9FAD"/>
<path d="M284.862 173.655L290.28 141.342V123.717L285.697 122.945L286.1 127.946C286.1 127.946 276.363 129.692 270.799 131.076C270.101 131.249 269.46 131.599 268.937 132.092C268.414 132.586 268.028 133.206 267.815 133.893C265.729 140.688 259.469 147.866 259.246 153.771C258.975 160.969 264.595 165.094 264.595 165.094C264.595 165.094 266.062 191.627 255.644 217.542L276.711 221.076L284.82 173.655" fill="#FFAE1E"/>
<path d="M276.752 221.076L316.946 227.808C316.946 227.808 328.77 158.208 329.723 152.505C331.197 143.727 327.038 141.606 318.803 136.014L307.905 131.083L309.741 126.972L299.308 125.22L290.308 141.342L276.752 221.076Z" fill="#FFAE1E"/>
<path d="M311.236 148.478L308.377 187.656L315.583 186.828L314.421 227.544C314.421 227.544 322.01 219.504 324.611 213.689C327.212 207.875 328.088 193.714 327.49 188.011C326.892 182.308 327.135 172.709 324.611 168.689C322.086 164.669 318.49 157.2 318.351 156.504C318.212 155.808 311.236 148.478 311.236 148.478Z" fill="#FF6F1E"/>
<path d="M309.156 128.28L309.741 126.972L299.28 125.22L290.28 141.342L290.301 123.717L285.725 122.945L286.128 127.946L288.187 153.798L309.156 128.28Z" fill="white"/>
<path d="M309.664 94.8606C309.664 94.8606 301.443 91.8142 294.752 97.3783C288.061 102.942 283.297 105.196 280.265 100.793C276.293 95.0344 281.28 76.5407 299.35 75.5044C317.419 74.4681 320.542 85.9371 320.542 85.9371C320.542 85.9371 330.383 91.4247 329.145 102.748C327.907 114.071 320.104 127.911 322.476 133.35C322.476 133.35 301.283 136.661 302.201 131.027C303.53 122.848 311.82 121.77 317.155 110.558C322.489 99.3466 309.664 94.8606 309.664 94.8606Z" fill="#084384"/>
<path d="M323.143 103.867C323.227 101.412 322.962 99.0615 322.309 98.5398C321.56 97.815 320.863 97.0388 320.222 96.2168C320.222 96.2168 318.351 94.1303 317.44 93.7756C316.529 93.4209 313.086 91.7238 312.752 91.7516C312.373 91.7319 311.997 91.6689 311.633 91.5638L309.678 94.8606C308.854 98.4931 309.368 102.301 311.125 105.585C311.702 105.022 313.58 104.368 314.762 105.085C314.939 105.17 315.088 105.302 315.194 105.467C315.445 105.824 315.621 106.228 315.711 106.655C315.801 107.082 315.802 107.523 315.715 107.95C315.256 112.318 309.81 112.721 309.81 112.721C309.097 113.006 308.4 113.332 307.724 113.695C306.002 114.622 304.501 115.91 303.322 117.471C302.143 119.031 301.315 120.827 300.894 122.737C298.717 132.794 304.371 133.622 304.371 133.622C304.371 133.622 310.339 128.433 310.93 128.364C311.521 128.294 314.762 125.63 315.541 123.947C316.32 122.264 317.183 117.555 319.019 113.994C320.855 110.433 323.06 106.33 323.143 103.867Z" fill="#084384"/>
<path d="M332.032 170.101C328.255 161.901 316.272 175.784 316.272 175.784C316.272 175.784 318.831 198.68 319.054 201.629C319.276 204.578 314.428 227.544 314.428 227.544L330.585 228.434C330.585 228.434 334.063 204.557 334.717 199.918C335.37 195.279 332.032 170.101 332.032 170.101Z" fill="#FBB6C1"/>
<path d="M333.332 180.701L328.318 172.842C328.318 172.842 321.808 173.808 318.024 173.927C316.946 175.005 316.271 175.784 316.271 175.784C316.271 175.784 317.064 182.885 317.809 189.694C324.402 186.668 333.332 180.708 333.332 180.708V180.701Z" fill="#FC9FAD"/>
<path d="M312.411 182.927C312.411 182.927 327.713 184.394 337.958 178.628L329.556 145.369C328.801 143.264 327.323 141.495 325.386 140.378C323.448 139.261 321.177 138.868 318.977 139.269C316.517 139.719 314.337 141.127 312.914 143.183C311.491 145.24 310.943 147.777 311.389 150.237L312.411 182.927Z" fill="#FF981E"/>
<path d="M299.232 103.742L298.775 106.472C298.663 107.139 299.113 107.77 299.78 107.882C300.446 107.993 301.077 107.543 301.189 106.877L301.646 104.147C301.758 103.48 301.308 102.849 300.641 102.737C299.975 102.625 299.344 103.075 299.232 103.742Z" fill="#023766"/>
<path d="M301.917 103.624C301.688 103.584 301.472 103.736 301.433 103.962C301.394 104.189 301.548 104.404 301.776 104.443L302.843 104.626C303.071 104.665 303.288 104.514 303.327 104.288C303.366 104.061 303.212 103.846 302.984 103.807L301.917 103.624Z" fill="white"/>
<path d="M299.113 101.384C299.113 100.821 300.873 99.2006 303.717 100.814C305.449 101.795 304.413 102.4 302.924 101.704C300.455 100.557 299.127 101.955 299.113 101.384Z" fill="#023766"/>
<path d="M287.725 101.812L287.267 104.542C287.156 105.209 287.606 105.84 288.272 105.952C288.939 106.063 289.57 105.613 289.682 104.947L290.139 102.216C290.251 101.55 289.801 100.919 289.134 100.807C288.468 100.695 287.836 101.145 287.725 101.812Z" fill="#023766"/>
<path d="M289.366 101.97C289.139 101.932 288.924 102.083 288.886 102.309C288.848 102.534 289.002 102.748 289.229 102.786L290.292 102.964C290.52 103.002 290.735 102.85 290.772 102.625C290.81 102.399 290.656 102.186 290.429 102.148L289.366 101.97Z" fill="white"/>
<path d="M287.609 99.4649C287.609 98.8946 289.369 97.281 292.214 98.8946C293.946 99.8753 292.909 100.48 291.421 99.7848C288.952 98.6303 287.623 100.021 287.609 99.4649Z" fill="#023766"/>
<path d="M293.577 105.119C293.577 105.119 291.588 108.896 290.099 110.099C288.611 111.303 293.702 112.346 293.702 112.346C293.702 112.346 293.702 111.65 292.631 111.045C290.565 109.835 293.466 108.84 293.577 105.119Z" fill="#EA8196"/>
<path d="M289.953 113.375C291.111 113.921 292.368 114.226 293.647 114.272C294.927 114.317 296.202 114.102 297.395 113.639C297.395 113.639 296.213 116.157 293.681 115.976C291.15 115.796 289.953 113.375 289.953 113.375Z" fill="white"/>
<path d="M312.662 106.99C312.662 106.99 314.053 106.594 314.435 107.282C314.818 107.971 313.795 109.974 312.078 110.433C310.36 110.892 312.217 109.884 312.926 109.042C314.046 107.63 311.716 107.456 312.662 106.99Z" fill="#FC9FAD"/>
<path d="M343.703 208.695H220.047V215.073H343.703V208.695Z" fill="#084384"/>
<path d="M220.047 215.073V255.677C220.047 256.378 220.185 257.071 220.453 257.718C220.721 258.365 221.115 258.952 221.61 259.447C222.105 259.942 222.694 260.334 223.341 260.601C223.988 260.869 224.681 261.006 225.382 261.005H338.375C339.075 261.006 339.769 260.869 340.416 260.601C341.063 260.334 341.651 259.942 342.147 259.447C342.642 258.952 343.035 258.365 343.303 257.718C343.572 257.071 343.71 256.378 343.71 255.677V215.073H220.047Z" fill="#012B28"/>
<path d="M228.985 72.422C228.772 72.422 228.59 72.3639 228.44 72.2479C228.29 72.1309 228.175 71.9615 228.096 71.7398C228.017 71.5171 227.977 71.2483 227.977 70.9331C227.977 70.6199 228.017 70.3524 228.096 70.1307C228.176 69.908 228.291 69.7382 228.441 69.6212C228.592 69.5033 228.774 69.4443 228.985 69.4443C229.196 69.4443 229.377 69.5033 229.527 69.6212C229.678 69.7382 229.793 69.908 229.872 70.1307C229.952 70.3524 229.993 70.6199 229.993 70.9331C229.993 71.2483 229.953 71.5171 229.874 71.7398C229.794 71.9615 229.68 72.1309 229.53 72.2479C229.38 72.3639 229.198 72.422 228.985 72.422ZM228.985 72.1106C229.196 72.1106 229.36 72.0087 229.477 71.8049C229.594 71.6011 229.653 71.3105 229.653 70.9331C229.653 70.6822 229.626 70.4685 229.572 70.292C229.519 70.1156 229.443 69.9811 229.343 69.8887C229.244 69.7962 229.125 69.75 228.985 69.75C228.775 69.75 228.612 69.8533 228.494 70.0599C228.376 70.2656 228.317 70.5567 228.317 70.9331C228.317 71.1841 228.343 71.3973 228.396 71.5728C228.449 71.7483 228.525 71.8818 228.624 71.9733C228.724 72.0648 228.844 72.1106 228.985 72.1106ZM230.53 72.3823V72.1276L231.487 71.0803C231.599 70.9577 231.692 70.851 231.764 70.7605C231.837 70.6689 231.891 70.5831 231.926 70.5029C231.962 70.4218 231.98 70.3368 231.98 70.2482C231.98 70.1463 231.955 70.058 231.906 69.9835C231.858 69.909 231.792 69.8514 231.708 69.8108C231.624 69.7703 231.529 69.75 231.425 69.75C231.313 69.75 231.216 69.7731 231.133 69.8193C231.051 69.8646 230.987 69.9283 230.942 70.0104C230.898 70.0925 230.876 70.1887 230.876 70.2991H230.542C230.542 70.1293 230.581 69.9802 230.659 69.8519C230.737 69.7236 230.844 69.6236 230.979 69.5519C231.115 69.4802 231.267 69.4443 231.436 69.4443C231.606 69.4443 231.756 69.4802 231.888 69.5519C232.019 69.6236 232.122 69.7203 232.196 69.842C232.271 69.9637 232.308 70.0991 232.308 70.2482C232.308 70.3548 232.289 70.459 232.25 70.5609C232.212 70.6619 232.146 70.7746 232.052 70.8992C231.958 71.0228 231.829 71.1737 231.663 71.352L231.012 72.0483V72.071H232.359V72.3823H230.53ZM234.313 72.0115C234.243 72.0115 234.184 71.9865 234.134 71.9365C234.084 71.8865 234.059 71.8266 234.059 71.7568C234.059 71.687 234.084 71.6271 234.134 71.5771C234.184 71.5271 234.243 71.502 234.313 71.502C234.383 71.502 234.443 71.5271 234.493 71.5771C234.543 71.6271 234.568 71.687 234.568 71.7568C234.568 71.803 234.556 71.8455 234.533 71.8842C234.51 71.9228 234.479 71.954 234.441 71.9776C234.403 72.0002 234.36 72.0115 234.313 72.0115ZM234.313 70.5454C234.243 70.5454 234.184 70.5203 234.134 70.4703C234.084 70.4203 234.059 70.3604 234.059 70.2906C234.059 70.2208 234.084 70.1609 234.134 70.1109C234.184 70.0609 234.243 70.0359 234.313 70.0359C234.383 70.0359 234.443 70.0609 234.493 70.1109C234.543 70.1609 234.568 70.2208 234.568 70.2906C234.568 70.3368 234.556 70.3793 234.533 70.418C234.51 70.4567 234.479 70.4878 234.441 70.5114C234.403 70.534 234.36 70.5454 234.313 70.5454ZM237.302 69.4839V72.3823H236.951V69.8519H236.934L236.226 70.3217V69.9651L236.951 69.4839H237.302ZM239.041 72.422C238.875 72.422 238.725 72.3889 238.592 72.3229C238.459 72.2568 238.353 72.1663 238.272 72.0512C238.192 71.9361 238.148 71.8049 238.141 71.6577H238.48C238.494 71.7889 238.553 71.8974 238.659 71.9832C238.765 72.0681 238.893 72.1106 239.041 72.1106C239.16 72.1106 239.265 72.0828 239.358 72.0271C239.451 71.9714 239.524 71.895 239.577 71.7978C239.631 71.6997 239.658 71.5889 239.658 71.4653C239.658 71.3388 239.63 71.2261 239.574 71.127C239.52 71.027 239.444 70.9482 239.348 70.8907C239.252 70.8331 239.142 70.8039 239.018 70.8029C238.93 70.802 238.838 70.8157 238.745 70.844C238.652 70.8713 238.575 70.9067 238.514 70.9501L238.186 70.9105L238.362 69.4839H239.867V69.7953H238.656L238.554 70.6501H238.571C238.63 70.6029 238.705 70.5637 238.795 70.5326C238.884 70.5015 238.978 70.4859 239.075 70.4859C239.252 70.4859 239.41 70.5284 239.549 70.6133C239.689 70.6973 239.798 70.8124 239.877 70.9586C239.957 71.1048 239.998 71.2718 239.998 71.4596C239.998 71.6445 239.956 71.8096 239.873 71.9549C239.791 72.0993 239.678 72.2134 239.533 72.2974C239.389 72.3804 239.225 72.422 239.041 72.422ZM241.85 69.4839L242.711 71.9238H242.745L243.605 69.4839H243.973L242.909 72.3823H242.547L241.482 69.4839H241.85ZM244.379 72.3823V70.2085H244.713V72.3823H244.379ZM244.549 69.8462C244.484 69.8462 244.428 69.8241 244.381 69.7797C244.335 69.7354 244.312 69.6821 244.312 69.6198C244.312 69.5575 244.335 69.5042 244.381 69.4599C244.428 69.4155 244.484 69.3934 244.549 69.3934C244.614 69.3934 244.67 69.4155 244.716 69.4599C244.763 69.5042 244.787 69.5575 244.787 69.6198C244.787 69.6821 244.763 69.7354 244.716 69.7797C244.67 69.8241 244.614 69.8462 244.549 69.8462ZM246.146 72.4276C245.965 72.4276 245.805 72.3819 245.666 72.2903C245.528 72.1979 245.419 72.0677 245.341 71.8997C245.262 71.7308 245.223 71.5313 245.223 71.3011C245.223 71.0728 245.262 70.8746 245.341 70.7067C245.419 70.5387 245.528 70.409 245.668 70.3175C245.807 70.226 245.969 70.1802 246.152 70.1802C246.293 70.1802 246.405 70.2038 246.487 70.251C246.57 70.2972 246.633 70.35 246.677 70.4095C246.721 70.468 246.756 70.5161 246.78 70.5538H246.808V69.4839H247.142V72.3823H246.82V72.0483H246.78C246.756 72.088 246.721 72.138 246.675 72.1983C246.63 72.2578 246.565 72.3111 246.481 72.3583C246.397 72.4045 246.286 72.4276 246.146 72.4276ZM246.191 72.1276C246.325 72.1276 246.439 72.0927 246.531 72.0229C246.623 71.9521 246.694 71.8544 246.742 71.7299C246.79 71.6044 246.814 71.4596 246.814 71.2954C246.814 71.1331 246.79 70.9911 246.743 70.8694C246.696 70.7468 246.626 70.6515 246.534 70.5836C246.441 70.5147 246.327 70.4803 246.191 70.4803C246.05 70.4803 245.932 70.5166 245.838 70.5892C245.744 70.6609 245.674 70.7586 245.627 70.8822C245.58 71.0048 245.557 71.1426 245.557 71.2954C245.557 71.4502 245.581 71.5907 245.628 71.7172C245.676 71.8426 245.747 71.9427 245.84 72.0172C245.935 72.0908 246.052 72.1276 246.191 72.1276ZM248.712 72.4276C248.502 72.4276 248.322 72.3814 248.17 72.2889C248.019 72.1955 247.902 72.0653 247.82 71.8983C247.739 71.7304 247.699 71.5351 247.699 71.3124C247.699 71.0897 247.739 70.8935 247.82 70.7237C247.902 70.5529 248.016 70.4199 248.163 70.3246C248.31 70.2283 248.482 70.1802 248.678 70.1802C248.791 70.1802 248.903 70.1991 249.013 70.2368C249.124 70.2746 249.224 70.3359 249.315 70.4208C249.405 70.5048 249.477 70.6161 249.531 70.7548C249.585 70.8935 249.612 71.0643 249.612 71.2671V71.4086H247.936V71.1199H249.272C249.272 70.9973 249.248 70.8878 249.199 70.7916C249.151 70.6954 249.082 70.6194 248.992 70.5637C248.903 70.5081 248.799 70.4803 248.678 70.4803C248.545 70.4803 248.43 70.5133 248.333 70.5793C248.236 70.6444 248.162 70.7293 248.11 70.8341C248.058 70.9388 248.033 71.0511 248.033 71.1709V71.3634C248.033 71.5275 248.061 71.6667 248.117 71.7809C248.175 71.8941 248.255 71.9804 248.357 72.0398C248.459 72.0983 248.577 72.1276 248.712 72.1276C248.8 72.1276 248.879 72.1153 248.95 72.0908C249.021 72.0653 249.083 72.0276 249.135 71.9776C249.187 71.9266 249.227 71.8634 249.255 71.7879L249.578 71.8785C249.544 71.9879 249.487 72.0842 249.407 72.1672C249.327 72.2493 249.227 72.3134 249.11 72.3597C248.992 72.405 248.859 72.4276 248.712 72.4276ZM251.003 72.4276C250.807 72.4276 250.635 72.3809 250.487 72.2875C250.339 72.1941 250.224 72.0634 250.141 71.8955C250.059 71.7275 250.018 71.5313 250.018 71.3067C250.018 71.0803 250.059 70.8826 250.141 70.7138C250.224 70.5449 250.339 70.4137 250.487 70.3203C250.635 70.2269 250.807 70.1802 251.003 70.1802C251.199 70.1802 251.371 70.2269 251.518 70.3203C251.666 70.4137 251.781 70.5449 251.864 70.7138C251.947 70.8826 251.988 71.0803 251.988 71.3067C251.988 71.5313 251.947 71.7275 251.864 71.8955C251.781 72.0634 251.666 72.1941 251.518 72.2875C251.371 72.3809 251.199 72.4276 251.003 72.4276ZM251.003 72.1276C251.152 72.1276 251.275 72.0894 251.371 72.0129C251.467 71.9365 251.539 71.836 251.585 71.7115C251.631 71.587 251.654 71.452 251.654 71.3067C251.654 71.1614 251.631 71.0261 251.585 70.9006C251.539 70.7751 251.467 70.6737 251.371 70.5963C251.275 70.5189 251.152 70.4803 251.003 70.4803C250.854 70.4803 250.731 70.5189 250.635 70.5963C250.539 70.6737 250.468 70.7751 250.421 70.9006C250.375 71.0261 250.352 71.1614 250.352 71.3067C250.352 71.452 250.375 71.587 250.421 71.7115C250.468 71.836 250.539 71.9365 250.635 72.0129C250.731 72.0894 250.854 72.1276 251.003 72.1276ZM255.996 70.3897H255.645C255.625 70.2887 255.588 70.2 255.536 70.1236C255.486 70.0472 255.423 69.983 255.35 69.9311C255.277 69.8783 255.196 69.8387 255.108 69.8123C255.019 69.7858 254.926 69.7726 254.83 69.7726C254.655 69.7726 254.496 69.817 254.353 69.9057C254.212 69.9944 254.099 70.125 254.015 70.2977C253.932 70.4703 253.891 70.6822 253.891 70.9331C253.891 71.1841 253.932 71.3959 254.015 71.5686C254.099 71.7412 254.212 71.8719 254.353 71.9606C254.496 72.0493 254.655 72.0936 254.83 72.0936C254.926 72.0936 255.019 72.0804 255.108 72.054C255.196 72.0276 255.277 71.9884 255.35 71.9365C255.423 71.8837 255.486 71.8191 255.536 71.7426C255.588 71.6653 255.625 71.5766 255.645 71.4766H255.996C255.97 71.6247 255.922 71.7573 255.852 71.8743C255.782 71.9912 255.695 72.0908 255.592 72.1729C255.488 72.254 255.371 72.3158 255.242 72.3583C255.114 72.4007 254.976 72.422 254.83 72.422C254.583 72.422 254.363 72.3616 254.171 72.2408C253.978 72.12 253.827 71.9483 253.716 71.7257C253.606 71.503 253.551 71.2388 253.551 70.9331C253.551 70.6274 253.606 70.3633 253.716 70.1406C253.827 69.9179 253.978 69.7462 254.171 69.6255C254.363 69.5047 254.583 69.4443 254.83 69.4443C254.976 69.4443 255.114 69.4655 255.242 69.508C255.371 69.5504 255.488 69.6127 255.592 69.6948C255.695 69.7759 255.782 69.875 255.852 69.992C255.922 70.108 255.97 70.2406 255.996 70.3897ZM257.158 72.4333C257.02 72.4333 256.895 72.4073 256.783 72.3554C256.671 72.3026 256.581 72.2266 256.515 72.1276C256.449 72.0276 256.416 71.9068 256.416 71.7653C256.416 71.6407 256.441 71.5398 256.49 71.4624C256.539 71.3841 256.605 71.3228 256.687 71.2784C256.769 71.2341 256.859 71.2011 256.958 71.1794C257.058 71.1567 257.159 71.1388 257.26 71.1256C257.392 71.1086 257.499 71.0959 257.581 71.0874C257.664 71.078 257.725 71.0624 257.762 71.0407C257.801 71.019 257.82 70.9812 257.82 70.9275V70.9161C257.82 70.7765 257.782 70.668 257.706 70.5906C257.63 70.5133 257.516 70.4746 257.362 70.4746C257.202 70.4746 257.077 70.5095 256.987 70.5793C256.896 70.6491 256.832 70.7237 256.796 70.8029L256.479 70.6897C256.535 70.5576 256.611 70.4548 256.705 70.3812C256.8 70.3066 256.904 70.2548 257.016 70.2255C257.13 70.1953 257.241 70.1802 257.35 70.1802C257.42 70.1802 257.5 70.1887 257.591 70.2057C257.683 70.2217 257.771 70.2552 257.856 70.3062C257.942 70.3571 258.013 70.434 258.069 70.5369C258.126 70.6397 258.154 70.7774 258.154 70.9501V72.3823H257.82V72.088H257.803C257.781 72.1351 257.743 72.1856 257.69 72.2394C257.637 72.2932 257.567 72.3389 257.479 72.3767C257.391 72.4144 257.284 72.4333 257.158 72.4333ZM257.209 72.1332C257.341 72.1332 257.452 72.1073 257.543 72.0554C257.634 72.0035 257.703 71.9365 257.75 71.8544C257.797 71.7724 257.82 71.686 257.82 71.5955V71.2898C257.806 71.3067 257.775 71.3223 257.727 71.3365C257.68 71.3497 257.625 71.3615 257.563 71.3718C257.501 71.3813 257.441 71.3898 257.383 71.3973C257.325 71.4039 257.279 71.4096 257.243 71.4143C257.156 71.4256 257.075 71.444 256.999 71.4695C256.925 71.494 256.865 71.5313 256.818 71.5813C256.773 71.6304 256.75 71.6974 256.75 71.7823C256.75 71.8983 256.793 71.9861 256.879 72.0455C256.966 72.104 257.076 72.1332 257.209 72.1332ZM259.098 69.4839V72.3823H258.764V69.4839H259.098ZM260.044 69.4839V72.3823H259.71V69.4839H260.044Z" fill="#012B28"/>
<path d="M228.787 66.9775H227.967L230.34 60.513H231.149L233.522 66.9775H232.702L230.77 61.5357H230.719L228.787 66.9775ZM229.09 64.4523H232.398V65.1467H229.09V64.4523ZM235.173 60.513V66.9775H234.428V60.513H235.173ZM238.57 67.0785C238.103 67.0785 237.7 66.9754 237.361 66.7691C237.025 66.5608 236.765 66.2704 236.582 65.898C236.401 65.5234 236.31 65.0878 236.31 64.5912C236.31 64.0946 236.401 63.6569 236.582 63.2781C236.765 62.8972 237.019 62.6005 237.345 62.3879C237.674 62.1733 238.057 62.066 238.494 62.066C238.747 62.066 238.996 62.1081 239.243 62.1922C239.489 62.2764 239.713 62.4132 239.915 62.6026C240.117 62.7899 240.278 63.0382 240.398 63.3475C240.518 63.6569 240.578 64.0377 240.578 64.4902V64.8058H236.84V64.1619H239.82C239.82 63.8883 239.765 63.6442 239.656 63.4296C239.549 63.2149 239.395 63.0455 239.195 62.9214C238.997 62.7972 238.764 62.7352 238.494 62.7352C238.198 62.7352 237.941 62.8088 237.724 62.9561C237.51 63.1013 237.344 63.2907 237.229 63.5243C237.113 63.7579 237.055 64.0083 237.055 64.2755V64.7048C237.055 65.071 237.118 65.3813 237.244 65.636C237.373 65.8885 237.551 66.081 237.778 66.2136C238.005 66.3441 238.269 66.4093 238.57 66.4093C238.766 66.4093 238.943 66.382 239.1 66.3272C239.26 66.2704 239.398 66.1863 239.514 66.0747C239.63 65.9611 239.719 65.8201 239.782 65.6518L240.502 65.8538C240.426 66.0979 240.299 66.3125 240.12 66.4977C239.941 66.6808 239.72 66.8239 239.457 66.927C239.194 67.028 238.898 67.0785 238.57 67.0785ZM242.136 62.1291L243.298 64.1114L244.459 62.1291H245.318L243.752 64.5533L245.318 66.9775H244.459L243.298 65.0962L242.136 66.9775H241.278L242.818 64.5533L241.278 62.1291H242.136Z" fill="#012B28"/>
<path d="M248.57 251.143C252.68 251.143 256.012 247.811 256.012 243.701C256.012 239.591 252.68 236.259 248.57 236.259C244.46 236.259 241.128 239.591 241.128 243.701C241.128 247.811 244.46 251.143 248.57 251.143Z" fill="#121212"/>
<path d="M281.878 251.143C285.988 251.143 289.32 247.811 289.32 243.701C289.32 239.591 285.988 236.259 281.878 236.259C277.768 236.259 274.436 239.591 274.436 243.701C274.436 247.811 277.768 251.143 281.878 251.143Z" fill="#121212"/>
<path d="M281.878 240.042C282.057 240.042 282.229 240.11 282.358 240.233C282.488 240.356 282.565 240.525 282.574 240.703V243.096C282.574 243.271 282.504 243.439 282.38 243.563C282.256 243.687 282.088 243.756 281.913 243.756C281.738 243.756 281.57 243.687 281.446 243.563C281.322 243.439 281.252 243.271 281.252 243.096V240.703C281.261 240.53 281.333 240.367 281.455 240.245C281.577 240.123 281.741 240.051 281.913 240.042M281.913 239.521C281.599 239.521 281.299 239.645 281.077 239.867C280.855 240.089 280.731 240.389 280.731 240.703V243.096C280.731 243.409 280.855 243.71 281.077 243.932C281.299 244.153 281.599 244.278 281.913 244.278C282.227 244.278 282.527 244.153 282.749 243.932C282.971 243.71 283.095 243.409 283.095 243.096V240.703C283.095 240.389 282.971 240.089 282.749 239.867C282.527 239.645 282.227 239.521 281.913 239.521Z" fill="white"/>
<path d="M279.548 242.08V242.776C279.548 243.394 279.794 243.988 280.23 244.426C280.667 244.864 281.26 245.111 281.878 245.113V247.533" stroke="white" stroke-width="0.521636" stroke-miterlimit="10"/>
<path d="M284.208 242.08V242.776C284.208 243.394 283.963 243.988 283.526 244.426C283.089 244.864 282.497 245.111 281.878 245.113" stroke="white" stroke-width="0.521636" stroke-miterlimit="10"/>
<path d="M280.842 247.547H282.949" stroke="white" stroke-width="0.521636" stroke-miterlimit="10"/>
<path d="M251.45 241.711H245.691C245.493 241.711 245.304 241.79 245.165 241.929C245.025 242.069 244.947 242.258 244.947 242.456V245.439C244.947 245.637 245.025 245.826 245.165 245.966C245.304 246.105 245.493 246.184 245.691 246.184H251.45C251.647 246.184 251.836 246.105 251.976 245.966C252.115 245.826 252.194 245.637 252.194 245.439V242.456C252.194 242.258 252.115 242.069 251.976 241.929C251.836 241.79 251.647 241.711 251.45 241.711ZM248.57 245.022C248.358 245.022 248.151 244.959 247.975 244.842C247.799 244.724 247.662 244.557 247.581 244.361C247.5 244.165 247.478 243.95 247.52 243.742C247.561 243.534 247.663 243.343 247.813 243.194C247.963 243.044 248.153 242.942 248.361 242.9C248.569 242.859 248.784 242.88 248.98 242.961C249.176 243.043 249.343 243.18 249.461 243.356C249.578 243.532 249.641 243.739 249.641 243.951C249.641 244.235 249.528 244.507 249.328 244.708C249.127 244.909 248.854 245.022 248.57 245.022Z" stroke="white" stroke-width="0.521636" stroke-miterlimit="10"/>
<path d="M247.276 241.072H245.691V241.711H247.276V241.072Z" fill="white"/>
<path d="M315.186 251.143C319.296 251.143 322.628 247.811 322.628 243.701C322.628 239.591 319.296 236.259 315.186 236.259C311.076 236.259 307.744 239.591 307.744 243.701C307.744 247.811 311.076 251.143 315.186 251.143Z" fill="#121212"/>
<path d="M315.194 246.81C314.798 246.829 314.403 246.768 314.033 246.63C313.662 246.492 313.323 246.28 313.036 246.007C312.75 245.734 312.522 245.406 312.366 245.043C312.21 244.679 312.13 244.287 312.13 243.892C312.13 243.496 312.21 243.105 312.366 242.741C312.522 242.378 312.75 242.049 313.036 241.777C313.323 241.504 313.662 241.292 314.033 241.154C314.403 241.016 314.798 240.955 315.194 240.974V241.67C314.683 241.669 314.187 241.846 313.792 242.17C313.398 242.495 313.128 242.946 313.029 243.447C312.93 243.949 313.008 244.469 313.25 244.919C313.492 245.369 313.883 245.721 314.355 245.915C314.828 246.108 315.353 246.132 315.842 245.981C316.33 245.831 316.751 245.515 317.032 245.088C317.313 244.662 317.438 244.151 317.384 243.643C317.33 243.135 317.102 242.661 316.738 242.303L317.231 241.788C317.645 242.194 317.93 242.713 318.047 243.281C318.165 243.849 318.111 244.439 317.893 244.976C317.674 245.513 317.301 245.972 316.82 246.296C316.34 246.621 315.773 246.794 315.194 246.796V246.81Z" fill="white"/>
<path d="M316.696 241.329L315.075 242.268V240.39L316.696 241.329Z" fill="white"/>
<path d="M328.763 54.02C330.057 54.02 331.107 52.9706 331.107 51.6761C331.107 50.3816 330.057 49.3322 328.763 49.3322C327.468 49.3322 326.419 50.3816 326.419 51.6761C326.419 52.9706 327.468 54.02 328.763 54.02Z" fill="#012B28"/>
<path d="M336.045 54.02C337.34 54.02 338.389 52.9706 338.389 51.6761C338.389 50.3816 337.34 49.3322 336.045 49.3322C334.751 49.3322 333.701 50.3816 333.701 51.6761C333.701 52.9706 334.751 54.02 336.045 54.02Z" fill="#012B28"/>
<path d="M228.24 51.6761L230.744 49.1792L231.328 49.7634L229.409 51.6761L231.321 53.5957L230.744 54.1799L228.24 51.6761Z" fill="#012B28"/>
<rect x="218" y="42" width="131" height="173" fill="white"/>
<mask id="mask0_714_5523" style="mask-type:alpha" maskUnits="userSpaceOnUse" x="218" y="42" width="131" height="173">
<rect x="218" y="42" width="131" height="173" fill="#012B28"/>
</mask>
<g mask="url(#mask0_714_5523)">
</g>
<g clip-path="url(#clip0_714_5523)">
<path d="M251.366 257.196H307.487C314.068 257.196 320.897 251.857 322.734 245.276L348.039 154.687C349.876 148.107 346.027 142.768 339.447 142.768H283.325C276.745 142.768 269.916 148.107 268.078 154.687L242.774 245.276C240.937 251.857 244.786 257.196 251.366 257.196Z" fill="#E25A44"/>
<path d="M235.771 257.196H291.892C298.473 257.196 305.302 251.857 307.139 245.276L332.443 154.687C334.281 148.107 330.432 142.768 323.851 142.768H267.73C261.15 142.768 254.321 148.107 252.483 154.687L227.204 245.276C225.366 251.857 229.19 257.196 235.771 257.196Z" fill="#F47458"/>
<path d="M220.648 228.092C220.648 228.092 231.003 239.912 233.66 241.799C236.293 243.662 267.06 298.144 267.06 298.144L260.554 305.941C260.554 305.941 229.96 268.718 219.307 253.595C210.293 240.806 213.621 241.626 208.331 233.828C205.426 229.532 206.072 223.746 209.921 220.27C210.392 219.848 210.914 219.376 211.485 218.904C219.332 212.373 278.557 199.907 278.557 199.907L307.412 208.375C307.412 208.375 279.327 228.067 278.284 228.589C277.241 229.11 239.521 234.623 238.726 234.623C237.932 234.623 220.648 228.092 220.648 228.092Z" fill="#F48C7F"/>
<path d="M310.914 208.698C310.914 208.698 316.799 226.379 307.959 234.623C299.119 242.867 246.598 241.948 229.29 241.948C229.29 241.948 223.256 261.79 221.418 264.471C218.538 268.718 184.021 311.752 184.021 311.752L174.485 309.145C174.485 309.145 213.844 230.401 216.725 227.248C219.606 224.094 260.728 211.529 270.959 208.648C281.165 205.817 310.914 208.698 310.914 208.698Z" fill="#F48C7F"/>
<path d="M275.081 108.028C278.111 101.323 281.19 94.5932 288.64 91.365C294.649 88.7576 300.832 89.9992 305.973 94.1214C320.574 105.817 307.165 117.787 323.529 139.614C328.62 146.394 334.853 151.931 337.758 159.803C341.855 170.804 336.417 175.845 327.8 180.786C286.554 204.427 266.911 152.676 268.029 141.005C268.873 132.363 273.144 112.348 275.081 108.028Z" fill="#13375B"/>
<path d="M271.977 163.23L268.054 174.181H275.28L275.801 163.23H271.977Z" fill="#6776FF"/>
<path d="M277.341 151.757C283.847 139.192 288.516 140.558 288.516 140.558L279.675 169.09C277.167 167.898 274.46 164.447 271.952 163.23C273.542 159.182 275.727 154.837 277.341 151.757Z" fill="#EBB42C"/>
<path d="M311.286 209.691C310.442 206.835 307.487 196.48 307.735 194.742C308.58 188.385 321.046 147.188 316.452 142.197C311.858 137.206 303.737 137.379 303.737 137.379C303.737 137.379 289.235 139.192 287.572 141.005C285.908 142.818 278.955 161.293 278.11 165.837C277.614 168.569 276.273 186.87 276.397 201.472C276.397 201.472 279.203 206.686 288.093 208.623C293.755 209.84 311.286 209.691 311.286 209.691Z" fill="#FFCA5A"/>
<path d="M299.864 121.884C299.864 121.884 299.914 122.232 300.038 122.803C300.559 125.584 302.546 134.822 303.887 137.355C305.526 140.434 298.324 150.218 291.396 149.026C289.335 148.678 293.134 140.036 292.961 139.118C292.613 137.355 292.141 134.971 291.645 132.537C291.371 131.146 291.098 129.756 290.825 128.44C290.08 124.69 289.484 121.636 289.484 121.636L299.864 121.884Z" fill="#FFD9D9"/>
<path d="M300.012 122.803C299.913 122.232 299.839 121.884 299.839 121.884L289.459 121.636C289.459 121.636 290.055 124.69 290.8 128.44C291.048 129.756 291.346 131.146 291.619 132.512C293.233 132.289 294.897 131.494 296.586 130.029C298.423 128.44 299.615 126.503 300.335 124.467C300.211 123.796 300.112 123.225 300.012 122.803Z" fill="#FBB4C5"/>
<path d="M293.606 97.2254C293.606 97.2254 297.828 97.8214 300.907 101.77C303.961 105.718 307.289 117.96 299.665 124.616C292.042 131.271 284.517 123.746 283.4 115.75C282.283 107.754 282.506 96.9275 293.606 97.2254Z" fill="#FFD9D9"/>
<path d="M292.502 107.701L290.365 113.965C290.144 114.628 290.513 115.291 291.176 115.438L292.502 115.733" stroke="#E16D90" stroke-width="0.329099" stroke-miterlimit="10" stroke-linecap="round" stroke-linejoin="round"/>
<path d="M298.25 109.838C298.25 110.354 297.882 110.722 297.366 110.722C296.85 110.722 296.481 110.354 296.481 109.838C296.481 109.322 296.85 108.954 297.366 108.954C297.882 108.954 298.25 109.396 298.25 109.838Z" fill="#2A3249"/>
<path d="M288.449 109.47C288.449 109.985 288.081 110.354 287.565 110.354C287.049 110.354 286.68 109.985 286.68 109.47C286.68 108.954 287.049 108.585 287.565 108.585C288.081 108.585 288.449 108.954 288.449 109.47Z" fill="#2A3249"/>
<path d="M295.744 106.596C295.744 106.596 297.881 104.827 299.945 107.333" stroke="#2A3249" stroke-width="0.348332" stroke-miterlimit="10" stroke-linecap="round"/>
<path d="M285.722 106.154C285.722 106.154 287.712 103.869 289.775 105.932" stroke="#2A3249" stroke-width="0.348332" stroke-miterlimit="10" stroke-linecap="round"/>
<path d="M295.547 117.711C295.708 119.321 294.501 120.769 292.892 120.93C291.282 121.091 289.834 119.884 289.673 118.275L295.547 117.711Z" fill="white"/>
<path d="M281.19 113.789C281.662 115.726 282.928 117.017 283.996 116.694C285.064 116.371 285.56 114.558 285.064 112.622C284.567 110.685 283.325 109.393 282.258 109.716C281.19 110.039 280.693 111.852 281.19 113.789Z" fill="#FFD9D9"/>
<path d="M288.912 97.2503C288.912 97.2503 298.87 108.673 303.539 109.219C308.207 109.766 308.828 115.949 308.828 115.949C308.828 115.949 307.164 101.695 302.521 98.9389C297.902 96.1825 288.912 97.2503 288.912 97.2503Z" fill="#13375B"/>
<path d="M301.999 111.976C301.627 114.037 302.372 115.949 303.713 116.222C305.029 116.495 306.419 115.03 306.792 112.969C307.164 110.908 306.419 108.996 305.079 108.748C303.762 108.45 302.372 109.915 301.999 111.976Z" fill="#FFD9D9"/>
<path d="M264.949 166.632L263.211 168.594L263.385 165.986L264.229 165.415L264.949 166.632Z" fill="#F2E9DA"/>
<path d="M264.229 165.415L264.403 165.713L263.211 168.594L263.385 165.986L264.229 165.415Z" fill="#E0D5C3"/>
<path d="M263.385 165.986L263.335 166.657L263.832 166.16L267.184 154.762L266.638 154.861L263.385 165.986Z" fill="#E8BA70"/>
<path d="M263.832 166.16L263.484 164.72L264.502 166.433L267.855 155.035L267.184 154.762L263.832 166.16Z" fill="#F7CC7F"/>
<path d="M264.503 166.433V167.129L264.95 166.632L268.178 155.507L267.855 155.035L264.503 166.433Z" fill="#FAE0B2"/>
<path d="M267.16 154.74L266.877 155.43L267.566 155.712L267.849 155.023L267.16 154.74Z" fill="#466EB6"/>
<path d="M267.582 155.706L267.855 155.035L268.178 155.507L268.029 155.904L267.582 155.706Z" fill="#88B5E2"/>
<path d="M266.464 155.259L266.638 154.861L267.184 154.762L266.911 155.432L266.464 155.259Z" fill="#2C4B70"/>
<path d="M267.266 156.502L267.703 156.681L268.033 155.877L267.596 155.698L267.266 156.502Z" fill="#FEF8F8"/>
<path d="M266.128 156.046L266.565 156.225L266.894 155.421L266.458 155.242L266.128 156.046Z" fill="#EDDFCA"/>
<path d="M266.578 156.238L267.267 156.52L267.597 155.716L266.908 155.433L266.578 156.238Z" fill="#F2E9DA"/>
<path d="M263.807 167.923L263.211 168.594L263.261 167.7L263.46 167.948L263.807 167.923Z" fill="#DB3F2A"/>
<path d="M287.746 160.399L284.989 159.356L267.781 163.851L270.164 166.061L287.746 160.399Z" fill="#EAFCFC"/>
<path d="M247.294 163.18L249.281 159.878L267.781 163.851L266.489 168.296L247.294 163.18Z" fill="#EAFCFC"/>
<path d="M274.361 198.715L292.985 194.966C293.482 194.866 293.78 194.419 293.705 193.898L288.789 161.094C288.689 160.424 287.994 159.927 287.348 160.051L269.096 163.727L274.361 198.715Z" fill="#001333"/>
<path d="M271.605 198.74L251.938 195.537C251.416 195.462 250.969 195.015 250.895 194.494L245.978 161.69C245.878 161.02 246.425 160.498 247.095 160.622L266.365 163.751L271.605 198.74Z" fill="#001333"/>
<path d="M272.052 199.137L274.038 199.113C274.262 199.113 274.386 198.939 274.361 198.715L269.122 163.751C269.097 163.553 268.898 163.379 268.675 163.379L266.688 163.404C266.465 163.404 266.34 163.578 266.365 163.801L271.605 198.765C271.655 198.988 271.853 199.137 272.052 199.137Z" fill="#2C4B70"/>
<path d="M275.578 188.708C275.23 188.335 274.957 187.268 272.3 184.263C271.53 183.394 269.966 182.897 269.966 182.897C269.966 182.897 268.029 182.301 267.756 182.723C267.482 183.145 267.681 183.741 267.979 183.99C268.277 184.238 269.072 184.387 269.395 184.635C269.693 184.884 269.866 186.15 269.767 186.597C269.668 187.044 264.006 185.082 264.006 185.082C264.006 185.082 262.417 184.437 261.895 184.188C261.448 183.965 260.207 183.22 260.207 183.22C260.207 183.22 258.369 182.252 258.096 182.847C257.947 183.195 259.337 184.536 260.877 185.604C262.541 186.746 264.378 187.59 264.329 187.789C264.18 188.261 261.051 187.243 261.051 187.243C261.051 187.243 259.685 186.423 258.99 186.274C258.245 185.629 256.73 184.958 256.457 185.703C256.407 185.852 258.195 187.342 258.195 187.342C258.195 187.342 259.511 188.087 260.107 188.484C261.175 189.18 262.988 189.676 263.733 190.074C264.354 190.421 264.056 190.521 264.08 190.595C264.08 190.67 263.186 190.347 261.945 189.925C261.324 189.726 260.579 189.627 259.884 189.254C259.238 188.931 258.319 188.584 257.748 188.41C256.134 187.888 256.084 189.031 257.525 189.751C258.071 190.024 258.667 190.322 259.263 190.62C261.597 191.787 263.981 192.333 263.956 192.631C263.907 193.004 259.66 191.737 259.66 191.737C259.66 191.737 257.177 191.713 259.288 192.805C261.746 194.072 263.832 194.494 263.931 194.519C264.577 194.618 266.713 195.636 268.997 195.586C270.661 195.562 273.07 195.462 274.212 195.388L275.578 188.708Z" fill="#F8A492"/>
<path d="M316.75 171.35L305.253 171.872C305.253 171.872 304.88 181.606 304.632 182.698C304.632 182.698 283.996 187.64 275.603 188.683L274.113 195.313C275.752 195.139 277.093 194.891 277.888 194.841C279.452 194.742 304.508 193.674 304.508 193.674C304.508 193.674 314.49 192.805 315.235 191.141C315.98 189.478 316.75 171.35 316.75 171.35Z" fill="#6776FF"/>
<path d="M315.409 189.527C315.409 189.527 322.685 154.191 321.393 147.958C320.102 141.725 312.28 136.535 307.313 139.167C302.347 141.8 304.582 182.798 304.582 182.798C304.582 182.798 307.736 186.473 309.126 187.342C310.566 188.261 315.409 189.527 315.409 189.527Z" fill="#EBB42C"/>
<path d="M307.413 208.4L278.557 199.932C278.557 199.932 237.634 208.549 219.332 215.204C219.332 215.204 223.281 231.171 242.575 241.998L251.788 241.973C273.79 241.725 301.726 240.483 307.959 234.648C316.799 226.403 310.914 208.723 310.914 208.723C310.914 208.723 309.573 208.574 307.413 208.4Z" fill="#13375B"/>
<path d="M223.43 224.069L256.879 213.366L221.344 220.295C221.319 220.295 222.908 223.498 223.43 224.069Z" fill="#001333"/>
</g>
<path d="M281.199 224.399C287.937 224.399 293.399 218.937 293.399 212.199C293.399 205.462 287.937 200 281.199 200C274.462 200 269 205.462 269 212.199C269 218.937 274.462 224.399 281.199 224.399Z" fill="#E14410"/>
<path d="M284.823 213.5L283.835 214.488L286.91 217.569L287.897 216.581C287.957 216.521 287.991 216.44 287.991 216.355C287.991 216.27 287.957 216.189 287.897 216.129L285.303 213.5C285.274 213.465 285.237 213.437 285.195 213.417C285.154 213.398 285.109 213.388 285.063 213.388C285.017 213.388 284.972 213.398 284.931 213.417C284.889 213.437 284.852 213.465 284.823 213.5ZM275.308 209.848C275.67 211.559 277.798 213.813 278.696 214.717C279.593 215.621 281.839 217.743 283.564 218.104C284.26 218.25 285.651 218.515 286.638 217.819L283.585 214.766C283.286 214.926 282.493 215.093 281.109 213.542L280.886 213.312L280.107 212.533L279.878 212.311C278.327 210.92 278.487 210.134 278.654 209.835L275.566 206.774C274.87 207.769 275.162 209.174 275.308 209.848ZM276.818 205.501L275.83 206.482L278.911 209.556L279.899 208.569C279.928 208.54 279.952 208.505 279.968 208.467C279.984 208.429 279.992 208.388 279.992 208.346C279.992 208.305 279.984 208.264 279.968 208.226C279.952 208.187 279.928 208.153 279.899 208.124L277.27 205.495C277.209 205.436 277.127 205.403 277.042 205.404C276.957 205.406 276.877 205.441 276.818 205.501Z" fill="white"/>
<path d="M142.796 35.6759L7.82881 74.3464L4.86384 63.8689C3.8755 60.5981 5.85248 57.1656 9.12333 56.1772L132.14 20.9389C135.411 19.9506 138.843 21.9275 139.831 25.1984L142.796 35.6759Z" fill="#012B28"/>
<g filter="url(#filter0_d_714_5523)">
<path d="M163.91 131.788L40.8035 167.153C37.5327 168.141 34.1002 166.164 33.1119 162.893L7.82867 74.3464L142.796 35.6759L168.187 124.205C169.068 127.493 167.199 130.908 163.91 131.788Z" fill="url(#paint0_linear_714_5523)"/>
</g>
<path d="M26.3753 85.2199L24.057 85.9387L23.9131 87.0709L22.745 87.3763L23.5719 81.6974L24.74 81.3919L28.478 85.8669L27.202 86.1904L26.3753 85.2199ZM25.8002 84.4291L24.3985 82.6678L24.0929 84.8244L25.8002 84.4291Z" fill="url(#paint1_linear_714_5523)"/>
<path d="M31.6051 80.6912L32.7012 84.609L31.6409 84.8965L31.4612 84.4832C31.3893 84.7168 31.1916 84.8606 30.9939 85.0043C30.7962 85.1481 30.5985 85.2919 30.3829 85.3278C29.8617 85.5255 29.4124 85.4895 29.035 85.2199C28.6756 85.0582 28.3881 84.6628 28.1724 84.0338L27.5794 81.8053L28.7476 81.4998L29.3047 83.5126C29.5203 84.1416 29.8977 84.4112 30.311 84.2315C30.6345 84.1776 30.8322 84.0339 30.9041 83.8002C30.976 83.5666 31.0479 83.333 30.8682 82.9196L30.3291 81.0146L31.6051 80.6912Z" fill="url(#paint2_linear_714_5523)"/>
<path d="M36.6731 79.1817L37.6615 82.4526C37.8951 83.1894 37.8771 83.7466 37.5176 84.2498C37.266 84.735 36.7628 85.0405 36.026 85.2741C35.5947 85.346 35.2712 85.3999 34.9477 85.4538C34.6062 85.3998 34.2827 85.4537 34.0311 85.274L34.2109 84.3575C34.4445 84.4294 34.6781 84.5013 34.8938 84.4653C35.1094 84.4294 35.4509 84.4833 35.6486 84.3396C36.0799 84.2677 36.2596 84.0161 36.4573 83.8723C36.6191 83.5129 36.5832 83.2972 36.5113 82.8659L36.4753 82.6502C36.3136 83.0097 35.9182 83.2972 35.397 83.4949C35.0735 83.5488 34.6422 83.6207 34.3008 83.5667C33.9593 83.5128 33.7077 83.3331 33.4381 83.0455C33.1686 82.758 33.0068 82.4525 32.8451 82.1469C32.7732 81.7156 32.7193 81.3921 32.7733 81.0507C32.8272 80.7092 33.0069 80.4576 33.2945 80.188C33.582 79.9185 33.8875 79.7567 34.211 79.7028C34.7322 79.5052 35.3073 79.631 35.6847 79.9006L35.487 79.3794L36.6731 79.1817ZM35.9362 82.0751C36.1159 81.8235 36.08 81.6079 36.0261 81.2844C35.9722 80.9609 35.8284 80.7632 35.5948 80.6913C35.3612 80.6194 35.1275 80.5475 34.8041 80.6014C34.4806 80.6553 34.2829 80.7991 34.1031 81.0507C33.9234 81.3023 33.9594 81.518 34.0133 81.8415C34.0672 82.1649 34.2109 82.3626 34.4446 82.4345C34.6782 82.5064 34.9118 82.5783 35.2353 82.5244C35.6666 82.4525 35.8643 82.3088 35.9362 82.0751Z" fill="url(#paint3_linear_714_5523)"/>
<path d="M41.651 77.798L42.7471 81.7159L41.6868 82.0034L41.5071 81.59C41.4352 81.8237 41.2375 81.9674 41.0398 82.1112C40.8421 82.255 40.6444 82.3987 40.4288 82.4347C39.9076 82.6323 39.4583 82.5964 39.0809 82.3268C38.7215 82.165 38.434 81.7697 38.2183 81.1406L37.6253 78.9122L38.7935 78.6067L39.3506 80.6195C39.5662 81.2485 39.9436 81.5181 40.3569 81.3384C40.6804 81.2845 40.8781 81.1407 40.95 80.9071C41.0219 80.6735 41.0938 80.4398 40.9141 80.0265L40.375 78.1215L41.651 77.798Z" fill="url(#paint4_linear_714_5523)"/>
<path d="M44.203 81.1408C43.8795 81.1947 43.6458 81.1228 43.4122 81.0509L43.592 80.1344C43.8256 80.2063 44.0413 80.1703 44.2749 80.2422C44.4905 80.2063 44.814 80.1524 45.0297 80.1165C45.5509 79.9188 45.7486 79.775 45.6048 79.5773C45.5868 79.4695 45.461 79.3796 45.3532 79.3976C45.2454 79.4156 45.0297 79.4515 44.6883 79.3976C44.3648 79.4515 44.0413 79.5054 43.8076 79.4335C43.592 79.4694 43.3584 79.3976 43.2146 79.1999C42.981 79.128 42.8372 78.9303 42.7833 78.6068C42.7474 78.3911 42.7114 78.1755 42.7833 77.9418C42.8552 77.7082 43.0349 77.4566 43.2326 77.3128C43.4303 77.1691 43.7358 77.0073 44.1492 76.8276C44.4727 76.7737 44.6883 76.7378 45.0118 76.6839C45.3353 76.63 45.5689 76.7019 45.8026 76.7738L45.6408 77.7982C45.2993 77.7442 44.8501 77.7083 44.4187 77.7801C44.2031 77.8161 44.0054 77.9598 43.9155 78.0856C43.8257 78.2114 43.7358 78.3372 43.8616 78.4271C43.8796 78.5349 44.0054 78.6248 44.1132 78.6068C44.221 78.5889 44.4546 78.6608 44.7781 78.6068C45.1016 78.5529 45.4251 78.499 45.6587 78.5709C45.8744 78.535 46.108 78.6069 46.2518 78.8046C46.4854 78.8765 46.6292 79.0742 46.6831 79.3977C46.719 79.6133 46.755 79.829 46.6831 80.0626C46.6112 80.2962 46.4315 80.5478 46.1259 80.7096C45.8204 80.8713 45.5149 81.033 45.2094 81.1948C44.8679 81.1408 44.5444 81.1947 44.203 81.1408Z" fill="url(#paint5_linear_714_5523)"/>
<path d="M50.1158 79.3798C50.0259 79.5056 49.9361 79.6314 49.7204 79.6673C49.6306 79.7931 49.4149 79.8291 49.1992 79.865C48.7859 80.0447 48.3366 80.0088 47.9772 79.847C47.6177 79.6852 47.456 79.3797 47.2763 78.9664L46.7911 77.3849L46.1621 77.6005L45.9105 76.7558L46.5395 76.5402L46.27 75.5877L47.4382 75.2822L47.7077 76.2347L48.6602 75.9652L48.9118 76.8098L47.9593 77.0794L48.4445 78.6609C48.4804 78.8766 48.6062 78.9664 48.714 78.9484C48.8398 79.0383 48.9477 79.0203 49.1633 78.9844C49.379 78.9485 49.4688 78.8227 49.5587 78.6969L50.1158 79.3798Z" fill="url(#paint6_linear_714_5523)"/>
<path d="M134.924 52.9464L61.0066 74.2403L60.737 73.2878L134.673 52.1017L134.924 52.9464Z" fill="url(#paint7_linear_714_5523)"/>
<path d="M38.4514 103.821L28.5131 106.696C27.3449 107.001 26.2487 106.408 25.9432 105.24L23.5173 96.6676C23.2118 95.4994 23.8049 94.4032 24.9731 94.0977L34.9114 91.2225C36.0796 90.9171 37.1759 91.5102 37.4813 92.6783L39.9072 101.251C40.3026 102.293 39.6016 103.407 38.4514 103.821Z" fill="url(#paint8_linear_714_5523)"/>
<path d="M55.794 98.8252L45.8556 101.7C44.6875 102.006 43.5912 101.413 43.2857 100.245L40.8598 91.672C40.5544 90.5039 41.1475 89.4076 42.3156 89.1021L52.254 86.227C53.4221 85.9215 54.5184 86.5146 54.8239 87.6828L57.2498 96.2553C57.5373 97.3156 56.9621 98.5197 55.794 98.8252Z" fill="url(#paint9_linear_714_5523)"/>
<path d="M73.0289 93.8476L63.1984 96.7048C62.0302 97.0102 60.934 96.4171 60.6285 95.249L58.2026 86.6765C57.8971 85.5083 58.4902 84.4121 59.6584 84.1066L69.5968 81.2315C70.7649 80.926 71.8612 81.5191 72.1666 82.6872L74.5925 91.2597C74.88 92.3201 74.1971 93.5421 73.0289 93.8476Z" fill="url(#paint10_linear_714_5523)"/>
<path d="M90.3716 88.852L80.4333 91.7272C79.2651 92.0326 78.1688 91.4395 77.8634 90.2714L75.4375 81.6989C75.132 80.5307 75.7251 79.4345 76.8933 79.129L86.8316 76.2539C87.9998 75.9484 89.096 76.5415 89.4015 77.7096L91.8274 86.2821C92.1149 87.3425 91.4319 88.5645 90.3716 88.852Z" fill="url(#paint11_linear_714_5523)"/>
<path d="M107.625 83.9823L97.6862 86.8575C96.518 87.1629 95.4218 86.5699 95.1163 85.4017L92.6904 76.8292C92.3849 75.661 92.978 74.5648 94.1462 74.2593L104.085 71.3842C105.253 71.0787 106.349 71.6718 106.654 72.8399L109.08 81.4124C109.476 82.4548 108.775 83.569 107.625 83.9823Z" fill="url(#paint12_linear_714_5523)"/>
<path d="M124.967 78.9868L115.029 81.8619C113.861 82.1674 112.764 81.5743 112.459 80.4061L110.033 71.8336C109.727 70.6655 110.321 69.5692 111.489 69.2638L121.427 66.3886C122.595 66.0831 123.691 66.6762 123.997 67.8444L126.423 76.4169C126.71 77.4772 126.027 78.6993 124.967 78.9868Z" fill="url(#paint13_linear_714_5523)"/>
<path d="M142.202 74.0093L132.264 76.8844C131.095 77.1899 129.999 76.5968 129.694 75.4286L127.268 66.8561C126.962 65.6879 127.555 64.5917 128.724 64.2862L138.662 61.4111C139.83 61.1056 140.926 61.6987 141.232 62.8669L143.658 71.4394C144.053 72.4817 143.37 73.7038 142.202 74.0093Z" fill="url(#paint14_linear_714_5523)"/>
<path d="M42.7994 118.611L32.861 121.487C31.6928 121.792 30.5966 121.199 30.2911 120.031L27.8652 111.458C27.5597 110.29 28.1528 109.194 29.321 108.888L39.2594 106.013C40.4275 105.708 41.5238 106.301 41.8292 107.469L44.2551 116.042C44.5606 117.21 43.8597 118.324 42.7994 118.611Z" fill="url(#paint15_linear_714_5523)"/>
<path d="M60.0525 113.742L50.1142 116.617C48.946 116.922 47.8498 116.329 47.5443 115.161L45.1184 106.589C44.8129 105.421 45.406 104.324 46.5742 104.019L56.5125 101.144C57.6807 100.838 58.7769 101.431 59.0824 102.599L61.5083 111.172C61.7958 112.232 61.2027 113.329 60.0525 113.742Z" fill="url(#paint16_linear_714_5523)"/>
<path d="M77.3951 108.746L67.4567 111.621C66.2885 111.927 65.1923 111.334 64.8868 110.166L62.4609 101.593C62.1554 100.425 62.7485 99.3288 63.9167 99.0233L73.8551 96.1481C75.0232 95.8427 76.1195 96.4358 76.4249 97.6039L78.8508 106.176C79.1383 107.237 78.4554 108.459 77.3951 108.746Z" fill="url(#paint17_linear_714_5523)"/>
<path d="M94.6299 103.769L84.6916 106.644C83.5234 106.949 82.4272 106.356 82.1217 105.188L79.6958 96.6156C79.3903 95.4474 79.9834 94.3512 81.1516 94.0457L91.0899 91.1705C92.2581 90.8651 93.3543 91.4582 93.6598 92.6263L96.0857 101.199C96.3732 102.259 95.7981 103.463 94.6299 103.769Z" fill="#012B28"/>
<path d="M111.973 98.7732L102.035 101.648C100.866 101.954 99.7701 101.361 99.4646 100.193L96.9309 91.638C96.6254 90.4699 97.2185 89.3736 98.3867 89.0681L108.325 86.193C109.493 85.8875 110.589 86.4806 110.895 87.6488L113.321 96.2213C113.734 97.3715 113.033 98.4857 111.973 98.7732Z" fill="url(#paint18_linear_714_5523)"/>
<path d="M129.225 93.9034L119.287 96.7785C118.119 97.084 117.023 96.4909 116.717 95.3228L114.291 86.7503C113.986 85.5821 114.579 84.4859 115.747 84.1804L125.685 81.3052C126.854 80.9998 127.95 81.5929 128.255 82.761L130.681 91.3335C130.969 92.3939 130.376 93.4901 129.225 93.9034Z" fill="url(#paint19_linear_714_5523)"/>
<path d="M146.46 88.9258L136.522 91.8009C135.354 92.1064 134.257 91.5133 133.952 90.3452L131.526 81.7727C131.221 80.6045 131.814 79.5083 132.982 79.2028L142.92 76.3276C144.088 76.0222 145.185 76.6153 145.49 77.7834L147.916 86.3559C148.311 87.3983 147.628 88.6203 146.46 88.9258Z" fill="url(#paint20_linear_714_5523)"/>
<path d="M47.0586 133.528L37.1203 136.403C35.9521 136.709 34.8559 136.116 34.5504 134.947L32.1245 126.375C31.819 125.207 32.4121 124.11 33.5803 123.805L43.5186 120.93C44.6868 120.624 45.783 121.217 46.0885 122.386L48.5144 130.958C48.8019 132.018 48.119 133.24 47.0586 133.528Z" fill="url(#paint21_linear_714_5523)"/>
<path d="M64.2937 128.55L54.3554 131.426C53.1872 131.731 52.091 131.138 51.7855 129.97L49.3596 121.397C49.0541 120.229 49.6472 119.133 50.8154 118.827L60.7537 115.952C61.9219 115.647 63.0181 116.24 63.3236 117.408L65.7495 125.981C66.055 127.149 65.4619 128.245 64.2937 128.55Z" fill="url(#paint22_linear_714_5523)"/>
<path d="M81.6543 123.663L71.716 126.538C70.5478 126.843 69.4516 126.25 69.1461 125.082L66.7202 116.509C66.4147 115.341 67.0078 114.245 68.176 113.94L78.1143 111.064C79.2825 110.759 80.3787 111.352 80.6842 112.52L83.1101 121.093C83.3976 122.153 82.6967 123.267 81.6543 123.663Z" fill="#E0F0FF"/>
<path d="M98.8894 118.685L88.9511 121.56C87.7829 121.866 86.6867 121.273 86.3812 120.104L83.9553 111.532C83.6498 110.364 84.2429 109.267 85.4111 108.962L95.3494 106.087C96.5176 105.781 97.6138 106.374 97.9193 107.543L100.345 116.115C100.633 117.175 100.058 118.38 98.8894 118.685Z" fill="url(#paint23_linear_714_5523)"/>
<path d="M116.232 113.69L106.294 116.565C105.125 116.87 104.029 116.277 103.724 115.109L101.298 106.536C100.992 105.368 101.585 104.272 102.754 103.967L112.692 101.091C113.86 100.786 114.956 101.379 115.262 102.547L117.688 111.12C117.975 112.18 117.292 113.402 116.232 113.69Z" fill="url(#paint24_linear_714_5523)"/>
<path d="M133.467 108.712L123.529 111.587C122.361 111.893 121.264 111.3 120.959 110.131L118.533 101.559C118.227 100.391 118.821 99.2945 119.989 98.989L129.927 96.1138C131.095 95.8084 132.191 96.4015 132.497 97.5696L134.923 106.142C135.228 107.31 134.635 108.407 133.467 108.712Z" fill="url(#paint25_linear_714_5523)"/>
<path d="M150.828 103.824L140.889 106.699C139.721 107.005 138.625 106.412 138.319 105.244L135.894 96.6712C135.588 95.503 136.181 94.4068 137.349 94.1013L147.288 91.2261C148.456 90.9207 149.552 91.5138 149.858 92.6819L152.283 101.254C152.571 102.315 151.87 103.429 150.828 103.824Z" fill="url(#paint26_linear_714_5523)"/>
<path d="M51.3174 148.445L41.3791 151.32C40.2109 151.625 39.1147 151.032 38.8092 149.864L36.3833 141.291C36.0778 140.123 36.6709 139.027 37.8391 138.721L47.7774 135.846C48.9456 135.541 50.0418 136.134 50.3473 137.302L52.7732 145.875C53.0607 146.935 52.4856 148.139 51.3174 148.445Z" fill="url(#paint27_linear_714_5523)"/>
<path d="M68.5525 143.467L58.6142 146.342C57.446 146.648 56.3498 146.054 56.0443 144.886L53.6184 136.314C53.3129 135.146 53.906 134.049 55.0742 133.744L65.0125 130.869C66.1807 130.563 67.2769 131.156 67.5824 132.325L70.0083 140.897C70.4036 141.939 69.7207 143.161 68.5525 143.467Z" fill="url(#paint28_linear_714_5523)"/>
<path d="M85.9131 138.579L75.9748 141.454C74.8066 141.76 73.7104 141.167 73.4049 139.999L70.979 131.426C70.6735 130.258 71.2666 129.162 72.4348 128.856L82.3731 125.981C83.5413 125.676 84.6375 126.269 84.943 127.437L87.3689 136.009C87.6564 137.07 86.9555 138.184 85.9131 138.579Z" fill="url(#paint29_linear_714_5523)"/>
<path d="M103.148 133.602L93.2096 136.477C92.0415 136.782 90.9452 136.189 90.6397 135.021L88.2139 126.449C87.9084 125.28 88.5015 124.184 89.6696 123.879L99.608 121.004C100.776 120.698 101.872 121.291 102.178 122.459L104.604 131.032C104.999 132.074 104.316 133.296 103.148 133.602Z" fill="url(#paint30_linear_714_5523)"/>
<path d="M120.491 128.606L110.552 131.481C109.384 131.787 108.288 131.194 107.982 130.025L105.556 121.453C105.251 120.285 105.844 119.189 107.012 118.883L116.951 116.008C118.119 115.702 119.215 116.296 119.52 117.464L121.946 126.036C122.234 127.097 121.551 128.319 120.491 128.606Z" fill="url(#paint31_linear_714_5523)"/>
<path d="M137.725 123.629L127.787 126.504C126.619 126.809 125.523 126.216 125.217 125.048L122.791 116.475C122.486 115.307 123.079 114.211 124.247 113.905L134.185 111.03C135.354 110.725 136.45 111.318 136.755 112.486L139.181 121.059C139.576 122.101 138.894 123.323 137.725 123.629Z" fill="url(#paint32_linear_714_5523)"/>
<path d="M155.068 118.633L145.13 121.508C143.962 121.814 142.865 121.22 142.56 120.052L140.134 111.48C139.829 110.312 140.422 109.215 141.59 108.91L151.528 106.035C152.696 105.729 153.793 106.322 154.098 107.491L156.524 116.063C156.829 117.231 156.128 118.345 155.068 118.633Z" fill="url(#paint33_linear_714_5523)"/>
<path d="M28.73 59.4487C27.6697 59.7362 26.4656 59.1611 26.1601 57.9929L23.285 48.0546C22.9975 46.9942 23.5726 45.7902 24.7408 45.4847C25.8011 45.1972 27.0052 45.7723 27.3107 46.9404L30.1858 56.8788C30.4913 58.047 29.7904 59.1612 28.73 59.4487Z" fill="#EBB42C"/>
<path d="M50.8357 53.1054C49.7754 53.3929 48.5713 52.8178 48.2658 51.6496L45.3907 41.7112C45.1032 40.6509 45.6783 39.4468 46.8465 39.1413C47.9068 38.8538 49.1109 39.429 49.4164 40.5971L52.2915 50.5355C52.597 51.7036 51.8961 52.8179 50.8357 53.1054Z" fill="#EBB42C"/>
<path d="M72.9405 46.7622C71.8801 47.0497 70.6761 46.4746 70.3706 45.3064L67.4955 35.368C67.2079 34.3077 67.7831 33.1036 68.9512 32.7981C70.0116 32.5106 71.2156 33.0858 71.5211 34.2539L74.3962 44.1923C74.7017 45.3604 74.0008 46.4747 72.9405 46.7622Z" fill="#EBB42C"/>
<path d="M95.0455 40.419C93.9852 40.7065 92.7811 40.1314 92.4757 38.9632L89.6185 29.1327C89.331 28.0724 89.9061 26.8683 91.0743 26.5628C92.1346 26.2753 93.3387 26.8504 93.6442 28.0186L96.5193 37.9569C96.699 39.0352 96.1059 40.1315 95.0455 40.419Z" fill="#EBB42C"/>
<path d="M117.151 34.0757C116.09 34.3632 114.886 33.7881 114.581 32.6199L111.706 22.6816C111.418 21.6212 111.993 20.4172 113.161 20.1117C114.222 19.8242 115.426 20.3993 115.731 21.5675L118.606 31.5058C118.804 32.6919 118.211 33.7882 117.151 34.0757Z" fill="#EBB42C"/>
<path d="M182.731 241.376C183.19 240.027 176.605 238.947 176.254 237.571C175.903 236.195 184.566 236.06 184.863 234.872C185.429 232.659 175.364 234.44 175.552 233.388C175.741 232.362 186.023 229.988 184.917 228.234C183.81 226.452 174.5 231.796 174.23 230.581C173.933 229.367 183.325 226.398 183.136 223.754C183.028 222.351 167.753 230.851 165.972 230.096C164.191 229.34 167.861 222.674 166.431 221.703C165.001 220.731 161.007 235.223 160.035 235.709C159.064 236.195 139.391 245.424 132.051 247.313C131.16 244.857 124.872 240.564 124.062 238.243C119.934 241.184 119.736 240.046 110 243.291C113.103 251.009 123.55 265.178 125.709 266.149C132.267 269.091 157.526 247.987 162.572 244.371C167.619 240.755 170.533 241.916 173.933 240.755C177.334 239.622 182.245 242.725 182.731 241.376Z" fill="#FFD9D9"/>
<path d="M40.8421 315.923L36.0001 379.36C94.5001 416.5 64.4081 354.979 77.5001 358.5C90.6676 362.042 67.0001 413.716 113.496 413.716L107.94 315.923L89.1511 312L79.8717 315.923H40.8421Z" fill="#012B28"/>
<path d="M41 247.023C45.7663 250.923 26.6841 258.505 36 259.48H38.0969V321.008C38.0969 321.008 38.0969 323.825 48.1711 325.883C54.1289 327.074 69.0776 328.699 83.8096 327.291C94.1004 326.316 104.175 324.041 111.216 319.167C111.216 308.443 109.049 249.406 108.941 245.723V245.507C108.941 245.507 112.84 254.064 118.257 263.38C119.557 262.188 121.073 260.672 122.915 259.047C126.381 255.689 130.606 251.573 134.939 247.023C135.588 246.373 136.238 245.723 136.78 245.073C130.822 231.208 121.723 211.926 116.307 208.676C110.457 205.318 95.9419 201.419 87.0593 199.252C82.6181 198.169 79.585 197.519 79.585 197.519L67.1277 196.436C67.1277 196.436 63.9864 197.302 59.5451 198.711C49.2543 202.069 31.5975 208.46 26.7229 215.176C23.1482 219.725 38 227.023 41 247.023Z" fill="url(#paint34_linear_714_5523)"/>
<path d="M37.9885 259.48V321.008C37.9885 321.008 37.9885 323.825 48.0626 325.883C54.0204 327.074 68.9691 328.699 83.7012 327.291C87.6008 309.851 57.8118 306.601 61.1698 292.844C64.5279 278.979 48.8209 283.312 48.0626 262.08C47.3043 240.849 42.8631 241.39 42.8631 241.39L37.9885 259.48Z" fill="url(#paint35_linear_714_5523)"/>
<mask id="mask1_714_5523" style="mask-type:luminance" maskUnits="userSpaceOnUse" x="16" y="196" width="121" height="132">
<path d="M16.5001 255.5C21.2664 259.4 26.7229 268.471 36.0388 269.446L38.0969 259.48V321.008C38.0969 321.008 38.0969 323.825 48.1711 325.883C54.1289 327.074 69.0776 328.699 83.8096 327.291C94.1004 326.316 104.175 324.041 111.216 319.167C111.216 308.443 109.049 249.406 108.941 245.723V245.507C108.941 245.507 112.84 254.064 118.257 263.38C119.557 262.188 121.073 260.672 122.915 259.047C126.814 255.256 131.797 250.381 136.78 245.073C130.822 231.208 121.723 211.926 116.307 208.676C107.641 203.693 79.4767 197.519 79.4767 197.519L67.0194 196.436C67.0194 196.436 33.5473 205.643 26.6146 215.176C23.1482 219.725 20.2915 235.243 16.5001 255.5Z" fill="white"/>
</mask>
<g mask="url(#mask1_714_5523)">
<path opacity="0.25" d="M99.733 193.944C99.408 195.244 100.166 196.436 101.358 196.761C102.658 197.086 103.849 196.327 104.174 195.136C104.499 193.836 103.741 192.644 102.549 192.319C101.358 191.994 100.058 192.753 99.733 193.944Z" fill="white"/>
<path opacity="0.25" d="M96.5917 205.752C96.2667 207.051 97.0249 208.243 98.2165 208.568C99.5164 208.893 100.708 208.135 101.033 206.943C101.358 205.643 100.6 204.452 99.4081 204.127C98.2165 203.693 96.9166 204.452 96.5917 205.752Z" fill="white"/>
<path opacity="0.25" d="M83.3763 202.177C83.0513 203.477 83.8096 204.668 85.0012 204.993C86.3011 205.318 87.4926 204.56 87.8176 203.368C88.1426 202.069 87.3843 200.877 86.1927 200.552C85.0012 200.227 83.7013 200.985 83.3763 202.177Z" fill="white"/>
<path opacity="0.25" d="M70.1605 198.711C69.8355 200.01 70.5938 201.202 71.7853 201.527C73.0852 201.852 74.2768 201.094 74.6018 199.902C74.9267 198.602 74.1685 197.411 72.9769 197.086C71.7853 196.652 70.5938 197.411 70.1605 198.711Z" fill="white"/>
<path opacity="0.25" d="M57.0536 195.136C56.7286 196.436 57.4869 197.627 58.6784 197.952C59.9783 198.277 61.1699 197.519 61.4948 196.327C61.8198 195.028 61.0615 193.836 59.87 193.511C58.6784 193.186 57.3785 193.836 57.0536 195.136Z" fill="white"/>
<path opacity="0.25" d="M93.4503 217.451C93.1253 218.75 93.8836 219.942 95.0751 220.267C96.375 220.592 97.5666 219.834 97.8916 218.642C98.2165 217.342 97.4583 216.151 96.2667 215.826C94.9668 215.501 93.7752 216.259 93.4503 217.451Z" fill="white"/>
<path opacity="0.25" d="M80.2347 213.984C79.9097 215.284 80.668 216.476 81.8596 216.801C83.1594 217.126 84.351 216.367 84.676 215.176C85.001 213.876 84.2427 212.684 83.0511 212.359C81.8596 211.926 80.5597 212.684 80.2347 213.984Z" fill="white"/>
<path opacity="0.25" d="M67.0194 210.41C66.6944 211.709 67.4527 212.901 68.6442 213.226C69.9441 213.551 71.1357 212.793 71.4607 211.601C71.7856 210.301 71.0274 209.11 69.8358 208.785C68.6442 208.46 67.3443 209.11 67.0194 210.41Z" fill="white"/>
<path opacity="0.25" d="M53.9122 206.835C53.5872 208.135 54.3455 209.326 55.5371 209.651C56.8369 209.976 58.0285 209.218 58.3535 208.026C58.6785 206.727 57.9202 205.535 56.7286 205.21C55.5371 204.885 54.2372 205.643 53.9122 206.835Z" fill="white"/>
<path opacity="0.25" d="M40.6969 203.369C40.3719 204.668 41.1302 205.86 42.3217 206.185C43.6216 206.51 44.8132 205.752 45.1381 204.56C45.4631 203.26 44.7049 202.069 43.5133 201.744C42.3217 201.31 41.0218 202.069 40.6969 203.369Z" fill="white"/>
<path opacity="0.25" d="M27.5895 199.794C27.2645 201.094 28.0227 202.285 29.2143 202.61C30.5142 202.935 31.7058 202.177 32.0307 200.985C32.3557 199.685 31.5974 198.494 30.4059 198.169C29.2143 197.844 27.9144 198.494 27.5895 199.794Z" fill="white"/>
<path opacity="0.25" d="M14.3739 196.219C14.0489 197.519 14.8072 198.711 15.9987 199.036C17.2986 199.361 18.4902 198.602 18.8151 197.411C19.1401 196.111 18.3819 194.919 17.1903 194.594C15.9987 194.269 14.6988 195.028 14.3739 196.219Z" fill="white"/>
<path opacity="0.25" d="M90.2008 229.258C89.8758 230.558 90.6341 231.749 91.8256 232.074C93.1255 232.399 94.3171 231.641 94.6421 230.449C94.967 229.15 94.2088 227.958 93.0172 227.633C91.8256 227.2 90.6341 227.958 90.2008 229.258Z" fill="white"/>
<path opacity="0.25" d="M77.0936 225.683C76.7686 226.983 77.5269 228.175 78.7185 228.5C80.0184 228.825 81.2099 228.066 81.5349 226.875C81.8598 225.575 81.1016 224.383 79.91 224.058C78.7185 223.733 77.4186 224.492 77.0936 225.683Z" fill="white"/>
<path opacity="0.25" d="M63.878 222.109C63.5531 223.408 64.3113 224.6 65.5029 224.925C66.8028 225.25 67.9943 224.492 68.3193 223.3C68.6443 222 67.886 220.809 66.6944 220.484C65.5029 220.159 64.203 220.917 63.878 222.109Z" fill="white"/>
<path opacity="0.25" d="M50.7708 218.642C50.4459 219.942 51.2041 221.134 52.3957 221.459C53.6956 221.784 54.8872 221.025 55.2121 219.834C55.5371 218.534 54.7788 217.342 53.5873 217.017C52.3957 216.584 51.0958 217.342 50.7708 218.642Z" fill="white"/>
<path opacity="0.25" d="M37.5555 215.067C37.2305 216.367 37.9888 217.559 39.1804 217.884C40.4803 218.209 41.6718 217.451 41.9968 216.259C42.3218 214.959 41.5635 213.768 40.3719 213.443C39.1804 213.118 37.8805 213.876 37.5555 215.067Z" fill="white"/>
<path opacity="0.25" d="M24.3397 211.493C24.0147 212.793 24.773 213.984 25.9646 214.309C27.2644 214.634 28.456 213.876 28.781 212.684C29.1059 211.384 28.3477 210.193 27.1561 209.868C25.9645 209.543 24.773 210.301 24.3397 211.493Z" fill="white"/>
</g>
<mask id="mask2_714_5523" style="mask-type:luminance" maskUnits="userSpaceOnUse" x="18" y="196" width="119" height="132">
<path d="M18.0001 256.5C22.7664 260.4 26.9158 268.035 36.2316 269.01L38.2898 259.045V320.573C38.2898 320.573 38.2898 323.389 48.3639 325.447C54.3217 326.639 69.2704 328.264 84.0025 326.855C94.2933 325.88 104.367 323.606 111.408 318.731C111.408 308.007 109.242 248.97 109.134 245.287V245.071C109.134 245.071 113.033 253.628 118.45 262.944C119.749 261.753 121.266 260.236 123.107 258.611C127.007 254.82 131.99 249.945 136.973 244.637C131.015 230.772 121.916 211.49 116.5 208.241C107.834 203.258 79.6695 197.083 79.6695 197.083L67.2123 196C67.2123 196 33.7402 205.208 26.8075 214.74C23.3411 219.29 21.7915 236.243 18.0001 256.5Z" fill="white"/>
</mask>
<g mask="url(#mask2_714_5523)">
<path opacity="0.25" d="M125.731 303.676C125.406 304.976 126.164 306.168 127.356 306.493C128.656 306.818 129.847 306.06 130.172 304.868C130.497 303.568 129.739 302.377 128.547 302.052C127.356 301.618 126.056 302.377 125.731 303.676Z" fill="white"/>
<path opacity="0.25" d="M112.515 300.102C112.19 301.402 112.949 302.593 114.14 302.918C115.44 303.243 116.632 302.485 116.957 301.293C117.281 299.993 116.523 298.802 115.332 298.477C114.14 298.152 112.84 298.802 112.515 300.102Z" fill="white"/>
<path opacity="0.25" d="M99.4083 296.527C99.0833 297.827 99.8416 299.019 101.033 299.343C102.333 299.668 103.525 298.91 103.85 297.719C104.175 296.419 103.416 295.227 102.225 294.902C101.033 294.577 99.7333 295.336 99.4083 296.527Z" fill="white"/>
<path opacity="0.25" d="M86.1927 293.061C85.8677 294.361 86.626 295.552 87.8176 295.877C89.1175 296.202 90.309 295.444 90.634 294.252C90.959 292.952 90.2007 291.761 89.0091 291.436C87.8176 291.003 86.5177 291.761 86.1927 293.061Z" fill="white"/>
<path opacity="0.25" d="M72.9771 289.486C72.6522 290.786 73.4104 291.977 74.602 292.302C75.9019 292.627 77.0934 291.869 77.4184 290.678C77.7434 289.378 76.9851 288.186 75.7936 287.861C74.602 287.536 73.4104 288.186 72.9771 289.486Z" fill="white"/>
<path opacity="0.25" d="M135.697 318.95C135.372 320.25 136.13 321.442 137.321 321.767C138.621 322.092 139.813 321.333 140.138 320.142C140.463 318.842 139.705 317.65 138.513 317.325C137.321 316.892 136.022 317.65 135.697 318.95Z" fill="white"/>
<path opacity="0.25" d="M122.589 315.375C122.264 316.675 123.023 317.867 124.214 318.192C125.514 318.517 126.706 317.759 127.031 316.567C127.356 315.267 126.597 314.076 125.406 313.751C124.214 313.426 122.914 314.076 122.589 315.375Z" fill="white"/>
<path opacity="0.25" d="M109.374 311.801C109.049 313.101 109.807 314.292 110.999 314.617C112.299 314.942 113.49 314.184 113.815 312.992C114.14 311.692 113.382 310.501 112.19 310.176C110.999 309.851 109.699 310.609 109.374 311.801Z" fill="white"/>
<path opacity="0.25" d="M96.1583 308.334C95.8333 309.634 96.5916 310.826 97.7831 311.151C99.083 311.476 100.275 310.718 100.6 309.526C100.925 308.226 100.166 307.035 98.9747 306.71C97.7832 306.276 96.5916 307.035 96.1583 308.334Z" fill="white"/>
<path opacity="0.25" d="M83.0511 304.76C82.7262 306.06 83.4844 307.251 84.676 307.576C85.9759 307.901 87.1674 307.143 87.4924 305.951C87.8174 304.651 87.0591 303.46 85.8675 303.135C84.676 302.81 83.3761 303.46 83.0511 304.76Z" fill="white"/>
<path opacity="0.25" d="M69.8358 301.185C69.5108 302.485 70.2691 303.676 71.4607 304.001C72.7605 304.326 73.9521 303.568 74.2771 302.377C74.602 301.077 73.8438 299.885 72.6522 299.56C71.4606 299.235 70.1608 299.993 69.8358 301.185Z" fill="white"/>
<path opacity="0.25" d="M119.448 327.074C119.123 328.374 119.881 329.566 121.073 329.891C122.373 330.216 123.564 329.458 123.889 328.266C124.214 326.966 123.456 325.775 122.264 325.45C121.073 325.125 119.773 325.883 119.448 327.074Z" fill="white"/>
<path opacity="0.25" d="M106.232 323.608C105.907 324.908 106.666 326.1 107.857 326.424C109.157 326.749 110.349 325.991 110.674 324.8C110.999 323.5 110.24 322.308 109.049 321.983C107.857 321.55 106.557 322.308 106.232 323.608Z" fill="white"/>
<path opacity="0.25" d="M93.0169 320.033C92.692 321.333 93.4502 322.525 94.6418 322.85C95.9417 323.175 97.1332 322.417 97.4582 321.225C97.7832 319.925 97.0249 318.733 95.8334 318.409C94.6418 318.084 93.3419 318.842 93.0169 320.033Z" fill="white"/>
<path opacity="0.25" d="M79.9095 316.459C79.5845 317.759 80.3428 318.95 81.5344 319.275C82.8343 319.6 84.0258 318.842 84.3508 317.65C84.6758 316.35 83.9175 315.159 82.7259 314.834C81.5344 314.509 80.2345 315.267 79.9095 316.459Z" fill="white"/>
<path opacity="0.25" d="M66.6942 312.992C66.3692 314.292 67.1275 315.484 68.319 315.809C69.6189 316.134 70.8105 315.375 71.1355 314.184C71.4604 312.884 70.7022 311.692 69.5106 311.367C68.319 310.934 67.0191 311.692 66.6942 312.992Z" fill="white"/>
<path opacity="0.25" d="M76.7684 328.266C76.4434 329.566 77.2017 330.757 78.3933 331.082C79.6931 331.407 80.8847 330.649 81.2097 329.458C81.5347 328.158 80.7764 326.966 79.5848 326.641C78.3933 326.208 77.0934 326.966 76.7684 328.266Z" fill="white"/>
<path opacity="0.25" d="M63.5528 324.691C63.2279 325.991 63.9861 327.183 65.1777 327.508C66.4776 327.833 67.6691 327.074 67.9941 325.883C68.3191 324.583 67.5608 323.391 66.3692 323.066C65.1777 322.741 63.8778 323.5 63.5528 324.691Z" fill="white"/>
</g>
<mask id="mask3_714_5523" style="mask-type:luminance" maskUnits="userSpaceOnUse" x="18" y="196" width="119" height="132">
<path d="M18.5001 259.047C23.2664 262.947 26.7229 268.471 36.0388 269.446L38.0969 259.48V321.008C38.0969 321.008 38.0969 323.825 48.1711 325.883C54.1289 327.074 69.0776 328.699 83.8096 327.291C94.1004 326.316 104.175 324.041 111.216 319.167C111.216 308.443 109.049 249.406 108.941 245.723V245.507C108.941 245.507 112.84 254.064 118.257 263.38C119.557 262.188 121.073 260.672 122.915 259.047C126.814 255.256 131.797 250.381 136.78 245.073C130.822 231.208 121.723 211.926 116.307 208.676C107.641 203.693 79.4767 197.519 79.4767 197.519L67.0194 196.436C67.0194 196.436 33.5473 205.643 26.6146 215.176C23.1482 219.725 22.2915 238.79 18.5001 259.047Z" fill="white"/>
</mask>
<g mask="url(#mask3_714_5523)">
<path opacity="0.25" d="M64.961 256.447C64.6361 257.747 65.3943 258.939 66.5859 259.264C67.8858 259.589 69.0773 258.83 69.4023 257.639C69.7273 256.339 68.969 255.147 67.7774 254.822C66.4776 254.389 65.286 255.147 64.961 256.447Z" fill="white"/>
<path opacity="0.25" d="M51.7454 252.873C51.4205 254.172 52.1787 255.364 53.3703 255.689C54.6702 256.014 55.8618 255.256 56.1867 254.064C56.5117 252.764 55.7534 251.573 54.5619 251.248C53.3703 250.923 52.0704 251.681 51.7454 252.873Z" fill="white"/>
<path opacity="0.25" d="M38.5299 249.298C38.2049 250.598 38.9632 251.789 40.1547 252.114C41.4546 252.439 42.6462 251.681 42.9712 250.489C43.2961 249.19 42.5379 247.998 41.3463 247.673C40.1547 247.348 38.8548 248.106 38.5299 249.298Z" fill="white"/>
<path opacity="0.25" d="M25.423 245.831C25.098 247.131 25.8562 248.323 27.0478 248.648C28.3477 248.973 29.5393 248.215 29.8642 247.023C30.1892 245.723 29.4309 244.532 28.2394 244.207C27.0478 243.773 25.7479 244.532 25.423 245.831Z" fill="white"/>
<path opacity="0.25" d="M61.7113 268.146C61.3863 269.446 62.1446 270.638 63.3361 270.963C64.636 271.288 65.8276 270.529 66.1526 269.338C66.4775 268.038 65.7193 266.846 64.5277 266.521C63.3361 266.196 62.1446 266.955 61.7113 268.146Z" fill="white"/>
<path opacity="0.25" d="M48.6041 264.68C48.2791 265.98 49.0374 267.171 50.2289 267.496C51.5288 267.821 52.7204 267.063 53.0454 265.871C53.3703 264.571 52.6121 263.38 51.4205 263.055C50.229 262.622 48.9291 263.38 48.6041 264.68Z" fill="white"/>
<path opacity="0.25" d="M35.3885 261.105C35.0636 262.405 35.8218 263.597 37.0134 263.922C38.3133 264.247 39.5048 263.488 39.8298 262.297C40.1548 260.997 39.3965 259.805 38.2049 259.48C37.0134 259.047 35.7135 259.805 35.3885 261.105Z" fill="white"/>
<path opacity="0.25" d="M22.2813 257.53C21.9564 258.83 22.7146 260.022 23.9062 260.347C25.2061 260.672 26.3976 259.914 26.7226 258.722C27.0476 257.422 26.2893 256.231 25.0978 255.906C23.9062 255.581 22.6063 256.339 22.2813 257.53Z" fill="white"/>
<path opacity="0.25" d="M58.5699 279.954C58.2449 281.253 59.0032 282.445 60.1948 282.77C61.4947 283.095 62.6862 282.337 63.0112 281.145C63.3362 279.845 62.5779 278.654 61.3863 278.329C60.1948 277.895 58.8949 278.654 58.5699 279.954Z" fill="white"/>
<path opacity="0.25" d="M45.4627 276.379C45.1378 277.679 45.896 278.87 47.0876 279.195C48.3875 279.52 49.579 278.762 49.904 277.57C50.229 276.271 49.4707 275.079 48.2792 274.754C47.0876 274.429 45.7877 275.079 45.4627 276.379Z" fill="white"/>
<path opacity="0.25" d="M32.2472 272.804C31.9222 274.104 32.6804 275.296 33.872 275.621C35.1719 275.946 36.3635 275.187 36.6884 273.996C37.0134 272.696 36.2551 271.504 35.0636 271.179C33.872 270.854 32.5721 271.613 32.2472 272.804Z" fill="white"/>
<path opacity="0.25" d="M19.14 269.338C18.815 270.638 19.5733 271.829 20.7649 272.154C22.0647 272.479 23.2563 271.721 23.5813 270.529C23.9062 269.229 23.148 268.038 21.9564 267.713C20.6565 267.28 19.465 268.038 19.14 269.338Z" fill="white"/>
<path opacity="0.25" d="M55.4286 291.653C55.1036 292.952 55.8619 294.144 57.0534 294.469C58.3533 294.794 59.5449 294.036 59.8698 292.844C60.1948 291.544 59.4365 290.353 58.245 290.028C57.0534 289.703 55.7535 290.461 55.4286 291.653Z" fill="white"/>
<path opacity="0.25" d="M42.3214 288.078C41.9964 289.378 42.7547 290.569 43.9462 290.894C45.2461 291.219 46.4377 290.461 46.7627 289.269C47.0876 287.97 46.3294 286.778 45.1378 286.453C43.9462 286.128 42.6463 286.886 42.3214 288.078Z" fill="white"/>
<path opacity="0.25" d="M29.1058 284.611C28.7808 285.911 29.5391 287.103 30.7307 287.428C32.0305 287.753 33.2221 286.995 33.5471 285.803C33.8721 284.503 33.1138 283.312 31.9222 282.987C30.7307 282.553 29.4308 283.312 29.1058 284.611Z" fill="white"/>
<path opacity="0.25" d="M15.8902 281.037C15.5653 282.337 16.3235 283.528 17.5151 283.853C18.815 284.178 20.0065 283.42 20.3315 282.228C20.6565 280.928 19.8982 279.737 18.7066 279.412C17.5151 279.087 16.2152 279.845 15.8902 281.037Z" fill="white"/>
<path opacity="0.25" d="M52.2872 303.352C51.9622 304.651 52.7205 305.843 53.9121 306.168C55.2119 306.493 56.4035 305.735 56.7285 304.543C57.0535 303.352 56.2952 302.052 55.1036 301.727C53.9121 301.402 52.6122 302.16 52.2872 303.352Z" fill="white"/>
<path opacity="0.25" d="M39.0716 299.885C38.7466 301.185 39.5049 302.377 40.6965 302.702C41.9964 303.027 43.1879 302.268 43.5129 301.077C43.8379 299.777 43.0796 298.585 41.888 298.26C40.6965 297.827 39.5049 298.585 39.0716 299.885Z" fill="white"/>
<path opacity="0.25" d="M25.9642 296.31C25.6392 297.61 26.3975 298.802 27.5891 299.127C28.889 299.452 30.0805 298.694 30.4055 297.502C30.7305 296.202 29.9722 295.011 28.7806 294.686C27.5891 294.361 26.2892 295.119 25.9642 296.31Z" fill="white"/>
</g>
<mask id="mask4_714_5523" style="mask-type:luminance" maskUnits="userSpaceOnUse" x="15" y="196" width="122" height="132">
<path d="M23.0001 269.446C27.8562 273.233 38.8552 258.072 48.1711 259.047L42.5001 245.073L38.0969 321.008C38.0969 321.008 38.0969 323.825 48.1711 325.883C54.1289 327.074 69.0776 328.699 83.8096 327.291C94.1004 326.316 104.175 324.041 111.216 319.167C111.216 308.443 109.049 249.406 108.941 245.723V245.507C108.941 245.507 112.84 254.064 118.257 263.38C119.557 262.188 121.073 260.672 122.915 259.047C126.814 255.256 131.797 250.381 136.78 245.073C130.822 231.208 121.723 211.926 116.307 208.676C107.641 203.693 79.4767 197.519 79.4767 197.519L67.0194 196.436C67.0194 196.436 33.5473 205.643 26.6146 215.176C22.6207 219.733 5.70503 255.958 23.0001 269.446Z" fill="white"/>
</mask>
<g mask="url(#mask4_714_5523)">
<path opacity="0.25" d="M132.338 240.524C132.013 241.823 132.772 243.015 133.963 243.34C135.263 243.665 136.455 242.907 136.78 241.715C137.104 240.415 136.346 239.224 135.155 238.899C133.963 238.574 132.663 239.332 132.338 240.524Z" fill="white"/>
<path opacity="0.25" d="M119.231 237.057C118.906 238.357 119.665 239.549 120.856 239.874C122.156 240.199 123.348 239.44 123.673 238.249C123.998 236.949 123.239 235.757 122.048 235.432C120.856 234.999 119.556 235.757 119.231 237.057Z" fill="white"/>
<path opacity="0.25" d="M106.016 233.483C105.691 234.782 106.449 235.974 107.641 236.299C108.94 236.624 110.132 235.866 110.457 234.674C110.782 233.374 110.024 232.183 108.832 231.858C107.641 231.533 106.341 232.291 106.016 233.483Z" fill="white"/>
<path opacity="0.25" d="M129.197 252.331C128.872 253.631 129.63 254.822 130.822 255.147C132.122 255.472 133.313 254.714 133.638 253.522C133.963 252.223 133.205 251.031 132.013 250.706C130.822 250.273 129.522 251.031 129.197 252.331Z" fill="white"/>
<path opacity="0.25" d="M116.09 248.756C115.765 250.056 116.523 251.248 117.715 251.573C119.014 251.898 120.206 251.139 120.531 249.948C120.856 248.648 120.098 247.456 118.906 247.131C117.715 246.806 116.415 247.565 116.09 248.756Z" fill="white"/>
<path opacity="0.25" d="M102.874 245.29C102.549 246.59 103.308 247.781 104.499 248.106C105.799 248.431 106.991 247.673 107.316 246.481C107.641 245.182 106.882 243.99 105.691 243.665C104.499 243.232 103.199 243.99 102.874 245.29Z" fill="white"/>
<path opacity="0.25" d="M126.056 264.03C125.731 265.33 126.489 266.521 127.681 266.846C128.98 267.171 130.172 266.413 130.497 265.221C130.822 263.922 130.064 262.73 128.872 262.405C127.681 262.08 126.381 262.838 126.056 264.03Z" fill="white"/>
<path opacity="0.25" d="M112.84 260.564C112.515 261.863 113.273 263.055 114.465 263.38C115.765 263.705 116.956 262.947 117.281 261.755C117.606 260.455 116.848 259.264 115.657 258.939C114.465 258.505 113.273 259.264 112.84 260.564Z" fill="white"/>
<path opacity="0.25" d="M99.733 256.989C99.408 258.289 100.166 259.48 101.358 259.805C102.658 260.13 103.849 259.372 104.174 258.18C104.499 256.881 103.741 255.689 102.549 255.364C101.358 255.039 100.058 255.689 99.733 256.989Z" fill="white"/>
<path opacity="0.25" d="M136.13 279.304C135.805 280.603 136.563 281.795 137.755 282.12C139.055 282.445 140.246 281.687 140.571 280.495C140.896 279.195 140.138 278.004 138.946 277.679C137.647 277.354 136.455 278.112 136.13 279.304Z" fill="white"/>
<path opacity="0.25" d="M122.914 275.837C122.589 277.137 123.347 278.329 124.539 278.654C125.839 278.979 127.03 278.22 127.355 277.029C127.68 275.729 126.922 274.537 125.731 274.212C124.539 273.779 123.239 274.537 122.914 275.837Z" fill="white"/>
<path opacity="0.25" d="M109.699 272.262C109.374 273.562 110.132 274.754 111.323 275.079C112.623 275.404 113.815 274.646 114.14 273.454C114.465 272.154 113.707 270.963 112.515 270.638C111.323 270.313 110.024 271.071 109.699 272.262Z" fill="white"/>
<path opacity="0.25" d="M96.5917 268.688C96.2667 269.988 97.0249 271.179 98.2165 271.504C99.5164 271.829 100.708 271.071 101.033 269.879C101.358 268.579 100.6 267.388 99.4081 267.063C98.2165 266.738 96.9166 267.496 96.5917 268.688Z" fill="white"/>
<path opacity="0.25" d="M132.88 291.111C132.555 292.411 133.313 293.602 134.505 293.927C135.805 294.252 136.996 293.494 137.321 292.302C137.646 291.003 136.888 289.811 135.696 289.486C134.505 289.053 133.205 289.811 132.88 291.111Z" fill="white"/>
<path opacity="0.25" d="M119.773 287.536C119.448 288.836 120.206 290.028 121.398 290.353C122.698 290.678 123.889 289.919 124.214 288.728C124.539 287.428 123.781 286.236 122.589 285.911C121.398 285.586 120.098 286.345 119.773 287.536Z" fill="white"/>
<path opacity="0.25" d="M106.557 283.962C106.232 285.261 106.991 286.453 108.182 286.778C109.482 287.103 110.674 286.345 110.999 285.153C111.324 283.853 110.565 282.662 109.374 282.337C108.182 282.012 106.882 282.77 106.557 283.962Z" fill="white"/>
<path opacity="0.25" d="M93.4503 280.495C93.1253 281.795 93.8836 282.987 95.0751 283.312C96.375 283.637 97.5666 282.878 97.8916 281.687C98.2165 280.387 97.4583 279.195 96.2667 278.87C95.0751 278.437 93.7752 279.195 93.4503 280.495Z" fill="white"/>
</g>
<path d="M107.857 234.457L108.724 245.615C108.724 245.615 112.624 254.172 118.04 263.488C119.34 262.297 120.856 260.78 122.698 259.155C116.523 252.439 111.432 240.632 109.049 234.241C108.724 233.591 107.749 233.808 107.857 234.457Z" fill="url(#paint36_linear_714_5523)"/>
<path d="M59.22 198.819C62.2531 206.185 67.7776 214.201 76.9851 212.901C87.3842 211.493 87.9258 204.452 86.8426 199.361C82.4013 198.277 79.3682 197.627 79.3682 197.627L66.911 196.544C66.8026 196.436 63.6613 197.302 59.22 198.819Z" fill="white"/>
<path d="M93.7752 166.322C100.708 154.514 94.2085 142.382 94.2085 142.382C94.2085 142.382 98.3248 136.641 93.0169 132.2C87.7091 127.867 82.4012 132.633 82.4012 132.633C82.4012 132.633 84.7843 126.567 79.0431 125.159C73.302 123.75 68.969 132.091 61.3863 135.449C53.8037 138.807 46.7626 145.415 46.546 150.181C46.4376 154.948 47.6292 155.923 47.6292 155.923C47.6292 155.923 42.8629 157.872 46.0043 164.264C49.1457 170.546 51.5289 173.254 58.0283 178.562C64.5277 183.87 72.2187 178.454 72.327 177.804L93.7752 166.322Z" fill="#333333"/>
<path d="M65.0693 185.062C65.0693 191.02 64.636 198.169 64.636 198.169C64.636 198.169 68.7523 209.651 76.66 209.651C84.4593 209.651 82.5095 198.711 82.5095 198.711C82.5095 198.711 82.5095 197.844 82.6178 196.436C82.7261 194.486 82.9428 191.453 83.4844 187.878L64.636 178.237C64.961 179.754 65.0693 182.245 65.0693 185.062Z" fill="#FFD9D9"/>
<path d="M64.7444 178.237C65.0694 179.646 65.1777 182.245 65.1777 185.062C68.5357 191.128 75.4685 196.761 82.7262 196.436C82.8345 194.486 83.0512 191.453 83.5928 187.878L64.7444 178.237Z" fill="url(#paint37_linear_714_5523)"/>
<path d="M91.8253 145.524C94.3168 152.89 94.4251 155.814 94.5334 161.339C94.7501 166.755 97.7831 187.445 83.4844 189.503C69.1856 191.453 60.303 175.529 60.303 175.529C60.303 175.529 57.0533 179.429 52.7204 175.529C48.4957 171.63 51.9621 165.78 55.5368 165.888C59.1115 165.997 60.4114 170.546 60.4114 170.546L60.8447 160.797C60.8447 160.797 65.8276 156.139 71.3521 155.598C77.0933 155.164 87.2757 154.623 91.8253 145.524Z" fill="#FFD9D9"/>
<path d="M54.237 169.896C56.6201 168.38 58.4616 172.171 56.7285 174.013" stroke="#E16D90" stroke-width="0.483775" stroke-miterlimit="10" stroke-linecap="round" stroke-linejoin="round"/>
<path d="M81.7512 163.722L84.8926 172.929C85.2176 173.904 84.6759 174.879 83.701 175.096L81.7512 175.529" stroke="#E16D90" stroke-width="0.483775" stroke-miterlimit="10" stroke-linecap="round" stroke-linejoin="round"/>
<path d="M73.3018 166.863C73.3018 167.622 73.8435 168.163 74.6017 168.163C75.36 168.163 75.9016 167.622 75.9016 166.863C75.9016 166.105 75.36 165.563 74.6017 165.563C73.8435 165.563 73.3018 166.213 73.3018 166.863Z" fill="#2A3249"/>
<path d="M87.7091 166.322C87.7091 167.08 88.2507 167.622 89.009 167.622C89.7672 167.622 90.3088 167.08 90.3088 166.322C90.3088 165.563 89.7672 165.022 89.009 165.022C88.2507 165.022 87.7091 165.563 87.7091 166.322Z" fill="#2A3249"/>
<path d="M76.9849 162.097C76.9849 162.097 73.8435 159.497 70.8104 163.18" stroke="#2A3249" stroke-width="0.512047" stroke-miterlimit="10" stroke-linecap="round"/>
<path d="M91.717 161.447C91.717 161.447 88.7923 158.089 85.7592 161.122" stroke="#2A3249" stroke-width="0.512047" stroke-miterlimit="10" stroke-linecap="round"/>
<path d="M75.3602 178.346C75.1435 180.512 76.7684 182.462 78.9349 182.679C81.1013 182.895 83.0512 181.27 83.2678 179.104L75.3602 178.346Z" fill="white"/>
<path d="M95.5687 273.754C96.3822 272.538 90.1391 269.718 90.1569 268.26C90.1747 266.802 98.8011 268.97 99.411 267.871C100.561 265.827 90.1056 264.919 90.5726 263.926C91.0324 262.959 101.86 263.336 101.229 261.302C100.605 259.242 89.952 262.067 90.007 260.791C90.0353 259.508 100.137 259.059 100.653 256.387C100.918 254.966 83.5125 259.338 81.947 258.115C80.3815 256.892 85.7923 251.257 84.6321 249.914C83.4718 248.57 75.6604 261.88 74.5679 262.104C73.4754 262.327 51.5136 266.252 43.7324 266.175C43.5018 263.503 38.4069 257.575 38.2208 255.058C33.3446 256.878 33.4508 255.696 22.9338 256.327C23.9606 264.806 30.5554 281.633 32.4381 283.17C38.1597 287.829 68.8163 273.614 74.7816 271.368C80.747 269.123 83.3289 271.048 87.0093 270.801C90.6824 270.581 94.7284 274.963 95.5687 273.754Z" fill="#FFD9D9"/>
<path d="M21.5812 265.063C18.6528 244.951 17.2723 219.062 28.2792 213.728C32.6224 211.628 41.5138 220.983 44.0571 262.496C44.0571 262.496 28.2547 265.764 21.5812 265.063Z" fill="#F6CA55"/>
<path opacity="0.25" d="M28.0755 227.747C27.7505 229.047 28.5088 230.239 29.7004 230.564C31.0003 230.889 32.1918 230.13 32.5168 228.939C32.8418 227.639 32.0835 226.447 30.892 226.122C29.7004 225.689 28.4005 226.447 28.0755 227.747Z" fill="white"/>
<path opacity="0.25" d="M23.0755 256.747C22.7505 258.047 23.5088 259.239 24.7004 259.564C26.0003 259.889 27.1918 259.13 27.5168 257.939C27.8418 256.639 27.0835 255.447 25.892 255.122C24.7004 254.689 23.4005 255.447 23.0755 256.747Z" fill="white"/>
<path opacity="0.25" d="M28.0755 242.747C27.7505 244.047 28.5088 245.239 29.7004 245.564C31.0003 245.889 32.1918 245.13 32.5168 243.939C32.8418 242.639 32.0835 241.447 30.892 241.122C29.7004 240.689 28.4005 241.447 28.0755 242.747Z" fill="white"/>
<path opacity="0.25" d="M36.0755 256.747C35.7505 258.047 36.5088 259.239 37.7004 259.564C39.0003 259.889 40.1918 259.13 40.5168 257.939C40.8418 256.639 40.0835 255.447 38.892 255.122C37.7004 254.689 36.4005 255.447 36.0755 256.747Z" fill="white"/>
<path d="M144.239 40.8987C155.533 40.8987 164.689 31.7432 164.689 20.4494C164.689 9.15549 155.533 0 144.239 0C132.945 0 123.79 9.15549 123.79 20.4494C123.79 31.7432 132.945 40.8987 144.239 40.8987Z" fill="#02C238"/>
<path d="M141.847 24.1566C142.135 24.1566 142.377 24.059 142.572 23.8639C142.767 23.6687 142.864 23.4274 142.864 23.1401V21.1071H144.897C145.185 21.1071 145.426 21.0096 145.621 20.8144C145.817 20.6192 145.914 20.378 145.913 20.0907C145.913 19.8026 145.816 19.5611 145.62 19.3659C145.425 19.1707 145.184 19.0735 144.897 19.0742H142.864V17.0412C142.864 16.7532 142.766 16.5116 142.571 16.3164C142.376 16.1213 142.135 16.024 141.847 16.0247C141.559 16.0247 141.318 16.1223 141.122 16.3174C140.927 16.5126 140.83 16.7539 140.831 17.0412V19.0742H138.798C138.51 19.0742 138.268 19.1717 138.073 19.3669C137.878 19.5621 137.781 19.8033 137.781 20.0907C137.781 20.3787 137.879 20.6202 138.074 20.8154C138.269 21.0106 138.51 21.1078 138.798 21.1071H140.831V23.1401C140.831 23.4281 140.928 23.6697 141.124 23.8649C141.319 24.06 141.56 24.1573 141.847 24.1566ZM135.748 28.2226C135.189 28.2226 134.71 28.0233 134.312 27.6249C133.914 27.2264 133.715 26.748 133.715 26.1896V13.9917C133.715 13.4327 133.915 12.9539 134.313 12.5554C134.711 12.157 135.19 11.9581 135.748 11.9587H147.946C148.505 11.9587 148.984 12.158 149.382 12.5564C149.781 12.9549 149.98 13.4333 149.979 13.9917V18.5659L153.181 15.364C153.334 15.2115 153.516 15.1732 153.727 15.2491C153.938 15.325 154.044 15.4819 154.045 15.7198V24.4616C154.045 24.6987 153.939 24.8556 153.727 24.9322C153.515 25.0088 153.333 24.9705 153.181 24.8173L149.979 21.6154V26.1896C149.979 26.7487 149.78 27.2274 149.381 27.6259C148.983 28.0244 148.505 28.2232 147.946 28.2226H135.748Z" fill="white"/>
<defs>
<filter id="filter0_d_714_5523" x="4.37827" y="32.2256" width="167.477" height="138.633" filterUnits="userSpaceOnUse" color-interpolation-filters="sRGB">
<feFlood flood-opacity="0" result="BackgroundImageFix"/>
<feColorMatrix in="SourceAlpha" type="matrix" values="0 0 0 0 0 0 0 0 0 0 0 0 0 0 0 0 0 0 127 0" result="hardAlpha"/>
<feOffset/>
<feGaussianBlur stdDeviation="1.72517"/>
<feComposite in2="hardAlpha" operator="out"/>
<feColorMatrix type="matrix" values="0 0 0 0 0 0 0 0 0 0 0 0 0 0 0 0 0 0 0.25 0"/>
<feBlend mode="normal" in2="BackgroundImageFix" result="effect1_dropShadow_714_5523"/>
<feBlend mode="normal" in="SourceGraphic" in2="effect1_dropShadow_714_5523" result="shape"/>
</filter>
<linearGradient id="paint0_linear_714_5523" x1="-19.7218" y1="-20.3113" x2="112.167" y2="126.695" gradientUnits="userSpaceOnUse">
<stop offset="5.3e-07" stop-color="#E0F0FF"/>
<stop offset="1" stop-color="white"/>
</linearGradient>
<linearGradient id="paint1_linear_714_5523" x1="1.92091" y1="51.9848" x2="36.1747" y2="102.152" gradientUnits="userSpaceOnUse">
<stop offset="5.3e-07" stop-color="#E0F0FF"/>
<stop offset="1" stop-color="#9CB1EC"/>
</linearGradient>
<linearGradient id="paint2_linear_714_5523" x1="6.84547" y1="48.6233" x2="41.0984" y2="98.7891" gradientUnits="userSpaceOnUse">
<stop offset="5.3e-07" stop-color="#E0F0FF"/>
<stop offset="1" stop-color="#9CB1EC"/>
</linearGradient>
<linearGradient id="paint3_linear_714_5523" x1="10.6274" y1="46.0397" x2="44.8813" y2="96.2068" gradientUnits="userSpaceOnUse">
<stop offset="5.3e-07" stop-color="#E0F0FF"/>
<stop offset="1" stop-color="#9CB1EC"/>
</linearGradient>
<linearGradient id="paint4_linear_714_5523" x1="15.0513" y1="43.0194" x2="49.3046" y2="93.1857" gradientUnits="userSpaceOnUse">
<stop offset="5.3e-07" stop-color="#E0F0FF"/>
<stop offset="1" stop-color="#9CB1EC"/>
</linearGradient>
<linearGradient id="paint5_linear_714_5523" x1="18.4398" y1="40.7049" x2="52.6935" y2="90.8719" gradientUnits="userSpaceOnUse">
<stop offset="5.3e-07" stop-color="#E0F0FF"/>
<stop offset="1" stop-color="#9CB1EC"/>
</linearGradient>
<linearGradient id="paint6_linear_714_5523" x1="21.5886" y1="38.5558" x2="55.8421" y2="88.7223" gradientUnits="userSpaceOnUse">
<stop offset="5.3e-07" stop-color="#E0F0FF"/>
<stop offset="1" stop-color="#9CB1EC"/>
</linearGradient>
<linearGradient id="paint7_linear_714_5523" x1="81.4711" y1="24.3327" x2="127.688" y2="133.876" gradientUnits="userSpaceOnUse">
<stop offset="5.3e-07" stop-color="#E0F0FF"/>
<stop offset="1" stop-color="#9CB1EC"/>
</linearGradient>
<linearGradient id="paint8_linear_714_5523" x1="71.8194" y1="137.906" x2="328.274" y2="387.542" gradientUnits="userSpaceOnUse">
<stop offset="5.3e-07" stop-color="#E0F0FF"/>
<stop offset="1" stop-color="#9CB1EC"/>
</linearGradient>
<linearGradient id="paint9_linear_714_5523" x1="82.7108" y1="126.716" x2="339.165" y2="376.353" gradientUnits="userSpaceOnUse">
<stop offset="5.3e-07" stop-color="#E0F0FF"/>
<stop offset="1" stop-color="#9CB1EC"/>
</linearGradient>
<linearGradient id="paint10_linear_714_5523" x1="93.6023" y1="115.527" x2="350.056" y2="365.162" gradientUnits="userSpaceOnUse">
<stop offset="5.3e-07" stop-color="#E0F0FF"/>
<stop offset="1" stop-color="#9CB1EC"/>
</linearGradient>
<linearGradient id="paint11_linear_714_5523" x1="104.494" y1="104.337" x2="360.949" y2="353.974" gradientUnits="userSpaceOnUse">
<stop offset="5.3e-07" stop-color="#E0F0FF"/>
<stop offset="1" stop-color="#9CB1EC"/>
</linearGradient>
<linearGradient id="paint12_linear_714_5523" x1="115.386" y1="93.1476" x2="371.84" y2="342.783" gradientUnits="userSpaceOnUse">
<stop offset="5.3e-07" stop-color="#E0F0FF"/>
<stop offset="1" stop-color="#9CB1EC"/>
</linearGradient>
<linearGradient id="paint13_linear_714_5523" x1="126.277" y1="81.9581" x2="382.731" y2="331.594" gradientUnits="userSpaceOnUse">
<stop offset="5.3e-07" stop-color="#E0F0FF"/>
<stop offset="1" stop-color="#9CB1EC"/>
</linearGradient>
<linearGradient id="paint14_linear_714_5523" x1="137.169" y1="70.7686" x2="393.623" y2="320.405" gradientUnits="userSpaceOnUse">
<stop offset="5.3e-07" stop-color="#E0F0FF"/>
<stop offset="1" stop-color="#9CB1EC"/>
</linearGradient>
<linearGradient id="paint15_linear_714_5523" x1="66.4533" y1="143.418" x2="322.908" y2="393.055" gradientUnits="userSpaceOnUse">
<stop offset="5.3e-07" stop-color="#E0F0FF"/>
<stop offset="1" stop-color="#9CB1EC"/>
</linearGradient>
<linearGradient id="paint16_linear_714_5523" x1="77.3452" y1="132.229" x2="333.799" y2="381.865" gradientUnits="userSpaceOnUse">
<stop offset="5.3e-07" stop-color="#E0F0FF"/>
<stop offset="1" stop-color="#9CB1EC"/>
</linearGradient>
<linearGradient id="paint17_linear_714_5523" x1="88.2364" y1="121.039" x2="344.691" y2="370.676" gradientUnits="userSpaceOnUse">
<stop offset="5.3e-07" stop-color="#E0F0FF"/>
<stop offset="1" stop-color="#9CB1EC"/>
</linearGradient>
<linearGradient id="paint18_linear_714_5523" x1="110.02" y1="98.6601" x2="366.474" y2="348.296" gradientUnits="userSpaceOnUse">
<stop offset="5.3e-07" stop-color="#E0F0FF"/>
<stop offset="1" stop-color="#9CB1EC"/>
</linearGradient>
<linearGradient id="paint19_linear_714_5523" x1="120.911" y1="87.4705" x2="377.366" y2="337.107" gradientUnits="userSpaceOnUse">
<stop offset="5.3e-07" stop-color="#E0F0FF"/>
<stop offset="1" stop-color="#9CB1EC"/>
</linearGradient>
<linearGradient id="paint20_linear_714_5523" x1="131.803" y1="76.281" x2="388.256" y2="325.916" gradientUnits="userSpaceOnUse">
<stop offset="5.3e-07" stop-color="#E0F0FF"/>
<stop offset="1" stop-color="#9CB1EC"/>
</linearGradient>
<linearGradient id="paint21_linear_714_5523" x1="61.0884" y1="148.93" x2="317.543" y2="398.567" gradientUnits="userSpaceOnUse">
<stop offset="5.3e-07" stop-color="#E0F0FF"/>
<stop offset="1" stop-color="#9CB1EC"/>
</linearGradient>
<linearGradient id="paint22_linear_714_5523" x1="71.9801" y1="137.741" x2="328.435" y2="387.377" gradientUnits="userSpaceOnUse">
<stop offset="5.3e-07" stop-color="#E0F0FF"/>
<stop offset="1" stop-color="#9CB1EC"/>
</linearGradient>
<linearGradient id="paint23_linear_714_5523" x1="93.7634" y1="115.362" x2="350.217" y2="364.997" gradientUnits="userSpaceOnUse">
<stop offset="5.3e-07" stop-color="#E0F0FF"/>
<stop offset="1" stop-color="#9CB1EC"/>
</linearGradient>
<linearGradient id="paint24_linear_714_5523" x1="104.655" y1="104.172" x2="361.11" y2="353.809" gradientUnits="userSpaceOnUse">
<stop offset="5.3e-07" stop-color="#E0F0FF"/>
<stop offset="1" stop-color="#9CB1EC"/>
</linearGradient>
<linearGradient id="paint25_linear_714_5523" x1="115.547" y1="92.9827" x2="372.001" y2="342.619" gradientUnits="userSpaceOnUse">
<stop offset="5.3e-07" stop-color="#E0F0FF"/>
<stop offset="1" stop-color="#9CB1EC"/>
</linearGradient>
<linearGradient id="paint26_linear_714_5523" x1="126.438" y1="81.7932" x2="382.893" y2="331.43" gradientUnits="userSpaceOnUse">
<stop offset="5.3e-07" stop-color="#E0F0FF"/>
<stop offset="1" stop-color="#9CB1EC"/>
</linearGradient>
<linearGradient id="paint27_linear_714_5523" x1="55.723" y1="154.443" x2="312.178" y2="404.079" gradientUnits="userSpaceOnUse">
<stop offset="5.3e-07" stop-color="#E0F0FF"/>
<stop offset="1" stop-color="#9CB1EC"/>
</linearGradient>
<linearGradient id="paint28_linear_714_5523" x1="66.6148" y1="143.253" x2="323.069" y2="392.89" gradientUnits="userSpaceOnUse">
<stop offset="5.3e-07" stop-color="#E0F0FF"/>
<stop offset="1" stop-color="#9CB1EC"/>
</linearGradient>
<linearGradient id="paint29_linear_714_5523" x1="77.5062" y1="132.064" x2="333.96" y2="381.699" gradientUnits="userSpaceOnUse">
<stop offset="5.3e-07" stop-color="#E0F0FF"/>
<stop offset="1" stop-color="#9CB1EC"/>
</linearGradient>
<linearGradient id="paint30_linear_714_5523" x1="88.3977" y1="120.874" x2="344.853" y2="370.511" gradientUnits="userSpaceOnUse">
<stop offset="5.3e-07" stop-color="#E0F0FF"/>
<stop offset="1" stop-color="#9CB1EC"/>
</linearGradient>
<linearGradient id="paint31_linear_714_5523" x1="99.2892" y1="109.685" x2="355.743" y2="359.321" gradientUnits="userSpaceOnUse">
<stop offset="5.3e-07" stop-color="#E0F0FF"/>
<stop offset="1" stop-color="#9CB1EC"/>
</linearGradient>
<linearGradient id="paint32_linear_714_5523" x1="110.181" y1="98.4951" x2="366.635" y2="348.132" gradientUnits="userSpaceOnUse">
<stop offset="5.3e-07" stop-color="#E0F0FF"/>
<stop offset="1" stop-color="#9CB1EC"/>
</linearGradient>
<linearGradient id="paint33_linear_714_5523" x1="121.072" y1="87.3056" x2="377.526" y2="336.942" gradientUnits="userSpaceOnUse">
<stop offset="5.3e-07" stop-color="#E0F0FF"/>
<stop offset="1" stop-color="#9CB1EC"/>
</linearGradient>
<linearGradient id="paint34_linear_714_5523" x1="82.4769" y1="214.739" x2="48.4997" y2="403.931" gradientUnits="userSpaceOnUse">
<stop offset="2.7e-07" stop-color="#F6CA55"/>
<stop offset="1" stop-color="#F6CA55"/>
</linearGradient>
<linearGradient id="paint35_linear_714_5523" x1="94.8532" y1="220.5" x2="27.4137" y2="356.924" gradientUnits="userSpaceOnUse">
<stop offset="2.7e-07" stop-color="#EBB42C"/>
<stop offset="1" stop-color="#EBB42C"/>
</linearGradient>
<linearGradient id="paint36_linear_714_5523" x1="130.836" y1="210.785" x2="80.9001" y2="325.844" gradientUnits="userSpaceOnUse">
<stop offset="2.7e-07" stop-color="#EBB42C"/>
<stop offset="1" stop-color="#EBB42C"/>
</linearGradient>
<linearGradient id="paint37_linear_714_5523" x1="72.2238" y1="197.394" x2="77.8225" y2="159.363" gradientUnits="userSpaceOnUse">
<stop stop-color="#FFBFCD"/>
<stop offset="1" stop-color="#E16D90"/>
</linearGradient>
<clipPath id="clip0_714_5523">
<rect width="134" height="138" fill="white" transform="translate(218 90)"/>
</clipPath>
</defs>
</svg>
