<svg width="47" height="48" viewBox="0 0 47 48" fill="none" xmlns="http://www.w3.org/2000/svg">
<g clip-path="url(#clip0_579_5077)">
<path d="M1.00476 23.6119C1.00367 27.5656 2.03674 31.4262 4.00112 34.8289L0.816895 46.455L12.7148 43.3354C16.0056 45.1269 19.6927 46.0656 23.4395 46.0658H23.4494C35.8184 46.0658 45.8871 36.0008 45.8924 23.6296C45.8947 17.6349 43.5623 11.9978 39.3245 7.75679C35.0875 3.51614 29.4525 1.17949 23.4485 1.17676C11.078 1.17676 1.01005 11.2412 1.00494 23.6119" fill="url(#paint0_linear_579_5077)"/>
<path d="M0.203706 23.6041C0.202429 27.7001 1.27253 31.6987 3.30695 35.2233L0.00854492 47.2662L12.3331 44.0347C15.7289 45.8862 19.5522 46.8624 23.4426 46.8638H23.4527C36.2655 46.8638 46.6958 36.4368 46.7013 23.6227C46.7035 17.4126 44.2871 11.5729 39.898 7.17994C35.5083 2.78754 29.6717 0.366811 23.4527 0.364258C10.6377 0.364258 0.208813 10.7899 0.203706 23.6041ZM7.54322 34.6163L7.08304 33.8858C5.14858 30.8099 4.12754 27.2554 4.129 23.6056C4.13319 12.9547 12.8013 4.28937 23.46 4.28937C28.6217 4.29155 33.4726 6.30372 37.1212 9.95451C40.7697 13.6057 42.7773 18.4592 42.776 23.6213C42.7713 34.2721 34.103 42.9385 23.4527 42.9385H23.445C19.9772 42.9367 16.5761 42.0054 13.61 40.2455L12.9041 39.8269L5.59052 41.7444L7.54322 34.6161V34.6163Z" fill="url(#paint1_linear_579_5077)"/>
<path d="M17.6425 13.8898C17.2073 12.9226 16.7493 12.903 16.3354 12.8861C15.9965 12.8715 15.6091 12.8726 15.2221 12.8726C14.8347 12.8726 14.2053 13.0183 13.6732 13.5992C13.1406 14.1807 11.6399 15.5859 11.6399 18.4438C11.6399 21.3019 13.7215 24.0639 14.0117 24.4518C14.3023 24.8391 18.0304 30.8916 23.9349 33.22C28.842 35.155 29.8406 34.7702 30.9056 34.6732C31.9707 34.5765 34.3426 33.2684 34.8265 31.9119C35.3107 30.5556 35.3107 29.3931 35.1656 29.1501C35.0204 28.9081 34.633 28.7627 34.052 28.4723C33.4709 28.1818 30.615 26.7764 30.0826 26.5826C29.55 26.3889 29.1628 26.2922 28.7754 26.8738C28.388 27.4546 27.2756 28.7627 26.9365 29.1501C26.5978 29.5384 26.2587 29.5868 25.678 29.2962C25.0967 29.0047 23.2259 28.3921 21.0063 26.4133C19.2794 24.8735 18.1136 22.9721 17.7747 22.3904C17.4358 21.8097 17.7384 21.4949 18.0297 21.2054C18.2907 20.9451 18.6108 20.5271 18.9015 20.188C19.1912 19.8488 19.2878 19.6067 19.4815 19.2193C19.6754 18.8316 19.5784 18.4923 19.4334 18.2018C19.2878 17.9112 18.159 15.0383 17.6425 13.8898Z" fill="white"/>
</g>
<defs>
<linearGradient id="paint0_linear_579_5077" x1="2254.59" y1="4529" x2="2254.59" y2="1.17676" gradientUnits="userSpaceOnUse">
<stop stop-color="#1FAF38"/>
<stop offset="1" stop-color="#60D669"/>
</linearGradient>
<linearGradient id="paint1_linear_579_5077" x1="2334.65" y1="4690.56" x2="2334.65" y2="0.364258" gradientUnits="userSpaceOnUse">
<stop stop-color="#F9F9F9"/>
<stop offset="1" stop-color="white"/>
</linearGradient>
<clipPath id="clip0_579_5077">
<rect width="46.6927" height="47.0575" fill="white" transform="translate(0.00854492 0.364258)"/>
</clipPath>
</defs>
</svg>
